<?xml version="1.0" encoding="us-ascii" standalone="no"?><svg xmlns="http://www.w3.org/2000/svg" xmlns:xlink="http://www.w3.org/1999/xlink" contentStyleType="text/css" height="507px" preserveAspectRatio="none" style="width:659px;height:507px;background:#FFFFFF;" version="1.1" viewBox="0 0 659 507" width="659px" zoomAndPan="magnify"><defs/><g><!--class Padre--><g id="elem_Padre"><rect codeLine="2" fill="#F1F1F1" height="67.0679" id="Padre" rx="2.5" ry="2.5" style="stroke:#181818;stroke-width:0.5;" width="128" x="40" y="7"/><ellipse cx="81.55" cy="23" fill="#A9DCDF" rx="11" ry="11" style="stroke:#181818;stroke-width:1.0;"/><path d="M81.6594,18.3438 L80.5031,23.4219 L82.8313,23.4219 L81.6594,18.3438 Z M80.175,16.1094 L83.1594,16.1094 L86.5188,28.5 L84.0656,28.5 L83.3,25.4375 L80.0188,25.4375 L79.2688,28.5 L76.8313,28.5 L80.175,16.1094 Z " fill="#000000"/><text fill="#000000" font-family="sans-serif" font-size="14" font-style="italic" lengthAdjust="spacing" textLength="37" x="101.45" y="28.432">Padre</text><line style="stroke:#181818;stroke-width:0.5;" x1="41" x2="167" y1="39" y2="39"/><line style="stroke:#181818;stroke-width:0.5;" x1="41" x2="167" y1="47" y2="47"/><text fill="#000000" font-family="sans-serif" font-size="14" font-style="italic" lengthAdjust="spacing" textLength="116" x="46" y="65.9659">metodoAbstracto()</text></g><!--class UsadoAferente--><g id="elem_UsadoAferente"><rect codeLine="5" fill="#F1F1F1" height="48" id="UsadoAferente" rx="2.5" ry="2.5" style="stroke:#181818;stroke-width:0.5;" width="132" x="203" y="16.5"/><ellipse cx="218" cy="32.5" fill="#ADD1B2" rx="11" ry="11" style="stroke:#181818;stroke-width:1.0;"/><path d="M220.9688,38.1406 Q220.3906,38.4375 219.75,38.5781 Q219.1094,38.7344 218.4063,38.7344 Q215.9063,38.7344 214.5781,37.0938 Q213.2656,35.4375 213.2656,32.3125 Q213.2656,29.1875 214.5781,27.5313 Q215.9063,25.875 218.4063,25.875 Q219.1094,25.875 219.75,26.0313 Q220.4063,26.1875 220.9688,26.4844 L220.9688,29.2031 Q220.3438,28.625 219.75,28.3594 Q219.1563,28.0781 218.5313,28.0781 Q217.1875,28.0781 216.5,29.1563 Q215.8125,30.2188 215.8125,32.3125 Q215.8125,34.4063 216.5,35.4844 Q217.1875,36.5469 218.5313,36.5469 Q219.1563,36.5469 219.75,36.2813 Q220.3438,36 220.9688,35.4219 L220.9688,38.1406 Z " fill="#000000"/><text fill="#000000" font-family="sans-serif" font-size="14" lengthAdjust="spacing" textLength="100" x="232" y="37.932">UsadoAferente</text><line style="stroke:#181818;stroke-width:0.5;" x1="204" x2="334" y1="48.5" y2="48.5"/><line style="stroke:#181818;stroke-width:0.5;" x1="204" x2="334" y1="56.5" y2="56.5"/></g><!--class AgregadoAferente--><g id="elem_AgregadoAferente"><rect codeLine="6" fill="#F1F1F1" height="48" id="AgregadoAferente" rx="2.5" ry="2.5" style="stroke:#181818;stroke-width:0.5;" width="156" x="370" y="16.5"/><ellipse cx="385" cy="32.5" fill="#ADD1B2" rx="11" ry="11" style="stroke:#181818;stroke-width:1.0;"/><path d="M387.9688,38.1406 Q387.3906,38.4375 386.75,38.5781 Q386.1094,38.7344 385.4063,38.7344 Q382.9063,38.7344 381.5781,37.0938 Q380.2656,35.4375 380.2656,32.3125 Q380.2656,29.1875 381.5781,27.5313 Q382.9063,25.875 385.4063,25.875 Q386.1094,25.875 386.75,26.0313 Q387.4063,26.1875 387.9688,26.4844 L387.9688,29.2031 Q387.3438,28.625 386.75,28.3594 Q386.1563,28.0781 385.5313,28.0781 Q384.1875,28.0781 383.5,29.1563 Q382.8125,30.2188 382.8125,32.3125 Q382.8125,34.4063 383.5,35.4844 Q384.1875,36.5469 385.5313,36.5469 Q386.1563,36.5469 386.75,36.2813 Q387.3438,36 387.9688,35.4219 L387.9688,38.1406 Z " fill="#000000"/><text fill="#000000" font-family="sans-serif" font-size="14" lengthAdjust="spacing" textLength="124" x="399" y="37.932">AgregadoAferente</text><line style="stroke:#181818;stroke-width:0.5;" x1="371" x2="525" y1="48.5" y2="48.5"/><line style="stroke:#181818;stroke-width:0.5;" x1="371" x2="525" y1="56.5" y2="56.5"/></g><!--class Todo--><g id="elem_Todo"><rect codeLine="7" fill="#F1F1F1" height="48" id="Todo" rx="2.5" ry="2.5" style="stroke:#181818;stroke-width:0.5;" width="65" x="561.5" y="16.5"/><ellipse cx="576.5" cy="32.5" fill="#ADD1B2" rx="11" ry="11" style="stroke:#181818;stroke-width:1.0;"/><path d="M579.4688,38.1406 Q578.8906,38.4375 578.25,38.5781 Q577.6094,38.7344 576.9063,38.7344 Q574.4063,38.7344 573.0781,37.0938 Q571.7656,35.4375 571.7656,32.3125 Q571.7656,29.1875 573.0781,27.5313 Q574.4063,25.875 576.9063,25.875 Q577.6094,25.875 578.25,26.0313 Q578.9063,26.1875 579.4688,26.4844 L579.4688,29.2031 Q578.8438,28.625 578.25,28.3594 Q577.6563,28.0781 577.0313,28.0781 Q575.6875,28.0781 575,29.1563 Q574.3125,30.2188 574.3125,32.3125 Q574.3125,34.4063 575,35.4844 Q575.6875,36.5469 577.0313,36.5469 Q577.6563,36.5469 578.25,36.2813 Q578.8438,36 579.4688,35.4219 L579.4688,38.1406 Z " fill="#000000"/><text fill="#000000" font-family="sans-serif" font-size="14" lengthAdjust="spacing" textLength="33" x="590.5" y="37.932">Todo</text><line style="stroke:#181818;stroke-width:0.5;" x1="562.5" x2="625.5" y1="48.5" y2="48.5"/><line style="stroke:#181818;stroke-width:0.5;" x1="562.5" x2="625.5" y1="56.5" y2="56.5"/></g><!--class AsociadoAferente--><g id="elem_AsociadoAferente"><rect codeLine="11" fill="#F1F1F1" height="48" id="AsociadoAferente" rx="2.5" ry="2.5" style="stroke:#181818;stroke-width:0.5;" width="150" x="7" y="239"/><ellipse cx="22" cy="255" fill="#ADD1B2" rx="11" ry="11" style="stroke:#181818;stroke-width:1.0;"/><path d="M24.9688,260.6406 Q24.3906,260.9375 23.75,261.0781 Q23.1094,261.2344 22.4063,261.2344 Q19.9063,261.2344 18.5781,259.5938 Q17.2656,257.9375 17.2656,254.8125 Q17.2656,251.6875 18.5781,250.0313 Q19.9063,248.375 22.4063,248.375 Q23.1094,248.375 23.75,248.5313 Q24.4063,248.6875 24.9688,248.9844 L24.9688,251.7031 Q24.3438,251.125 23.75,250.8594 Q23.1563,250.5781 22.5313,250.5781 Q21.1875,250.5781 20.5,251.6563 Q19.8125,252.7188 19.8125,254.8125 Q19.8125,256.9063 20.5,257.9844 Q21.1875,259.0469 22.5313,259.0469 Q23.1563,259.0469 23.75,258.7813 Q24.3438,258.5 24.9688,257.9219 L24.9688,260.6406 Z " fill="#000000"/><text fill="#000000" font-family="sans-serif" font-size="14" lengthAdjust="spacing" textLength="118" x="36" y="260.432">AsociadoAferente</text><line style="stroke:#181818;stroke-width:0.5;" x1="8" x2="156" y1="271" y2="271"/><line style="stroke:#181818;stroke-width:0.5;" x1="8" x2="156" y1="279" y2="279"/></g><!--class Base--><g id="elem_Base"><rect codeLine="12" fill="#F1F1F1" height="219.6113" id="Base" rx="2.5" ry="2.5" style="stroke:#181818;stroke-width:0.5;" width="150" x="255" y="153"/><ellipse cx="309.75" cy="169" fill="#ADD1B2" rx="11" ry="11" style="stroke:#181818;stroke-width:1.0;"/><path d="M312.7188,174.6406 Q312.1406,174.9375 311.5,175.0781 Q310.8594,175.2344 310.1563,175.2344 Q307.6563,175.2344 306.3281,173.5938 Q305.0156,171.9375 305.0156,168.8125 Q305.0156,165.6875 306.3281,164.0313 Q307.6563,162.375 310.1563,162.375 Q310.8594,162.375 311.5,162.5313 Q312.1563,162.6875 312.7188,162.9844 L312.7188,165.7031 Q312.0938,165.125 311.5,164.8594 Q310.9063,164.5781 310.2813,164.5781 Q308.9375,164.5781 308.25,165.6563 Q307.5625,166.7188 307.5625,168.8125 Q307.5625,170.9063 308.25,171.9844 Q308.9375,173.0469 310.2813,173.0469 Q310.9063,173.0469 311.5,172.7813 Q312.0938,172.5 312.7188,171.9219 L312.7188,174.6406 Z " fill="#000000"/><text fill="#000000" font-family="sans-serif" font-size="14" lengthAdjust="spacing" textLength="32" x="330.25" y="174.432">Base</text><line style="stroke:#181818;stroke-width:0.5;" x1="256" x2="404" y1="185" y2="185"/><rect fill="none" height="6" style="stroke:#C82930;stroke-width:1.0;" width="6" x="263" y="197.034"/><text fill="#000000" font-family="sans-serif" font-size="14" lengthAdjust="spacing" textLength="109" x="275" y="203.9659">atributo privado</text><polygon fill="none" points="266,214.1019,270,218.1019,266,222.1019,262,218.1019" style="stroke:#B38D22;stroke-width:1.0;"/><text fill="#000000" font-family="sans-serif" font-size="14" lengthAdjust="spacing" textLength="124" x="275" y="223.0339">atributo protegido</text><ellipse cx="266" cy="238.1698" fill="none" rx="3" ry="3" style="stroke:#038048;stroke-width:1.0;"/><text fill="#000000" font-family="sans-serif" font-size="14" lengthAdjust="spacing" textLength="108" x="275" y="242.1018">atributo publico</text><text fill="#000000" font-family="sans-serif" font-size="14" lengthAdjust="spacing" text-decoration="underline" textLength="106" x="275" y="261.1697">atributoEstatico</text><line style="stroke:#181818;stroke-width:0.5;" x1="256" x2="404" y1="269.2717" y2="269.2717"/><rect fill="#F24D5C" height="6" style="stroke:#C82930;stroke-width:1.0;" width="6" x="263" y="281.3056"/><text fill="#000000" font-family="sans-serif" font-size="14" lengthAdjust="spacing" textLength="109" x="275" y="288.2376">metodoPrivado()</text><polygon fill="#FFFF44" points="266,298.3735,270,302.3735,266,306.3735,262,302.3735" style="stroke:#B38D22;stroke-width:1.0;"/><text fill="#000000" font-family="sans-serif" font-size="14" lengthAdjust="spacing" textLength="124" x="275" y="307.3055">metodoProtegido()</text><ellipse cx="266" cy="322.4415" fill="#84BE84" rx="3" ry="3" style="stroke:#038048;stroke-width:1.0;"/><text fill="#000000" font-family="sans-serif" font-size="14" lengthAdjust="spacing" textLength="108" x="275" y="326.3734">metodoPublico()</text><text fill="#000000" font-family="sans-serif" font-size="14" lengthAdjust="spacing" textLength="123" x="275" y="345.4414">metodoAbstracto()</text><text fill="#000000" font-family="sans-serif" font-size="14" lengthAdjust="spacing" text-decoration="underline" textLength="111" x="275" y="364.5093">metodoEstatico()</text></g><!--class AsociadoEferente--><g id="elem_AsociadoEferente"><rect codeLine="23" fill="#F1F1F1" height="48" id="AsociadoEferente" rx="2.5" ry="2.5" style="stroke:#181818;stroke-width:0.5;" width="149" x="503.5" y="239"/><ellipse cx="518.5" cy="255" fill="#ADD1B2" rx="11" ry="11" style="stroke:#181818;stroke-width:1.0;"/><path d="M521.4688,260.6406 Q520.8906,260.9375 520.25,261.0781 Q519.6094,261.2344 518.9063,261.2344 Q516.4063,261.2344 515.0781,259.5938 Q513.7656,257.9375 513.7656,254.8125 Q513.7656,251.6875 515.0781,250.0313 Q516.4063,248.375 518.9063,248.375 Q519.6094,248.375 520.25,248.5313 Q520.9063,248.6875 521.4688,248.9844 L521.4688,251.7031 Q520.8438,251.125 520.25,250.8594 Q519.6563,250.5781 519.0313,250.5781 Q517.6875,250.5781 517,251.6563 Q516.3125,252.7188 516.3125,254.8125 Q516.3125,256.9063 517,257.9844 Q517.6875,259.0469 519.0313,259.0469 Q519.6563,259.0469 520.25,258.7813 Q520.8438,258.5 521.4688,257.9219 L521.4688,260.6406 Z " fill="#000000"/><text fill="#000000" font-family="sans-serif" font-size="14" lengthAdjust="spacing" textLength="117" x="532.5" y="260.432">AsociadoEferente</text><line style="stroke:#181818;stroke-width:0.5;" x1="504.5" x2="651.5" y1="271" y2="271"/><line style="stroke:#181818;stroke-width:0.5;" x1="504.5" x2="651.5" y1="279" y2="279"/></g><!--class Parte--><g id="elem_Parte"><rect codeLine="27" fill="#F1F1F1" height="48" id="Parte" rx="2.5" ry="2.5" style="stroke:#181818;stroke-width:0.5;" width="67" x="53.5" y="452"/><ellipse cx="68.5" cy="468" fill="#ADD1B2" rx="11" ry="11" style="stroke:#181818;stroke-width:1.0;"/><path d="M71.4688,473.6406 Q70.8906,473.9375 70.25,474.0781 Q69.6094,474.2344 68.9063,474.2344 Q66.4063,474.2344 65.0781,472.5938 Q63.7656,470.9375 63.7656,467.8125 Q63.7656,464.6875 65.0781,463.0313 Q66.4063,461.375 68.9063,461.375 Q69.6094,461.375 70.25,461.5313 Q70.9063,461.6875 71.4688,461.9844 L71.4688,464.7031 Q70.8438,464.125 70.25,463.8594 Q69.6563,463.5781 69.0313,463.5781 Q67.6875,463.5781 67,464.6563 Q66.3125,465.7188 66.3125,467.8125 Q66.3125,469.9063 67,470.9844 Q67.6875,472.0469 69.0313,472.0469 Q69.6563,472.0469 70.25,471.7813 Q70.8438,471.5 71.4688,470.9219 L71.4688,473.6406 Z " fill="#000000"/><text fill="#000000" font-family="sans-serif" font-size="14" lengthAdjust="spacing" textLength="35" x="82.5" y="473.432">Parte</text><line style="stroke:#181818;stroke-width:0.5;" x1="54.5" x2="119.5" y1="484" y2="484"/><line style="stroke:#181818;stroke-width:0.5;" x1="54.5" x2="119.5" y1="492" y2="492"/></g><!--class AgregadoEferente--><g id="elem_AgregadoEferente"><rect codeLine="28" fill="#F1F1F1" height="48" id="AgregadoEferente" rx="2.5" ry="2.5" style="stroke:#181818;stroke-width:0.5;" width="155" x="155.5" y="452"/><ellipse cx="170.5" cy="468" fill="#ADD1B2" rx="11" ry="11" style="stroke:#181818;stroke-width:1.0;"/><path d="M173.4688,473.6406 Q172.8906,473.9375 172.25,474.0781 Q171.6094,474.2344 170.9063,474.2344 Q168.4063,474.2344 167.0781,472.5938 Q165.7656,470.9375 165.7656,467.8125 Q165.7656,464.6875 167.0781,463.0313 Q168.4063,461.375 170.9063,461.375 Q171.6094,461.375 172.25,461.5313 Q172.9063,461.6875 173.4688,461.9844 L173.4688,464.7031 Q172.8438,464.125 172.25,463.8594 Q171.6563,463.5781 171.0313,463.5781 Q169.6875,463.5781 169,464.6563 Q168.3125,465.7188 168.3125,467.8125 Q168.3125,469.9063 169,470.9844 Q169.6875,472.0469 171.0313,472.0469 Q171.6563,472.0469 172.25,471.7813 Q172.8438,471.5 173.4688,470.9219 L173.4688,473.6406 Z " fill="#000000"/><text fill="#000000" font-family="sans-serif" font-size="14" lengthAdjust="spacing" textLength="123" x="184.5" y="473.432">AgregadoEferente</text><line style="stroke:#181818;stroke-width:0.5;" x1="156.5" x2="309.5" y1="484" y2="484"/><line style="stroke:#181818;stroke-width:0.5;" x1="156.5" x2="309.5" y1="492" y2="492"/></g><!--class UsadoEferente--><g id="elem_UsadoEferente"><rect codeLine="29" fill="#F1F1F1" height="48" id="UsadoEferente" rx="2.5" ry="2.5" style="stroke:#181818;stroke-width:0.5;" width="131" x="345.5" y="452"/><ellipse cx="360.5" cy="468" fill="#ADD1B2" rx="11" ry="11" style="stroke:#181818;stroke-width:1.0;"/><path d="M363.4688,473.6406 Q362.8906,473.9375 362.25,474.0781 Q361.6094,474.2344 360.9063,474.2344 Q358.4063,474.2344 357.0781,472.5938 Q355.7656,470.9375 355.7656,467.8125 Q355.7656,464.6875 357.0781,463.0313 Q358.4063,461.375 360.9063,461.375 Q361.6094,461.375 362.25,461.5313 Q362.9063,461.6875 363.4688,461.9844 L363.4688,464.7031 Q362.8438,464.125 362.25,463.8594 Q361.6563,463.5781 361.0313,463.5781 Q359.6875,463.5781 359,464.6563 Q358.3125,465.7188 358.3125,467.8125 Q358.3125,469.9063 359,470.9844 Q359.6875,472.0469 361.0313,472.0469 Q361.6563,472.0469 362.25,471.7813 Q362.8438,471.5 363.4688,470.9219 L363.4688,473.6406 Z " fill="#000000"/><text fill="#000000" font-family="sans-serif" font-size="14" lengthAdjust="spacing" textLength="99" x="374.5" y="473.432">UsadoEferente</text><line style="stroke:#181818;stroke-width:0.5;" x1="346.5" x2="475.5" y1="484" y2="484"/><line style="stroke:#181818;stroke-width:0.5;" x1="346.5" x2="475.5" y1="492" y2="492"/></g><!--class Hija--><g id="elem_Hija"><rect codeLine="30" fill="#F1F1F1" height="48" id="Hija" rx="2.5" ry="2.5" style="stroke:#181818;stroke-width:0.5;" width="58" x="512" y="452"/><ellipse cx="527" cy="468" fill="#ADD1B2" rx="11" ry="11" style="stroke:#181818;stroke-width:1.0;"/><path d="M529.9688,473.6406 Q529.3906,473.9375 528.75,474.0781 Q528.1094,474.2344 527.4063,474.2344 Q524.9063,474.2344 523.5781,472.5938 Q522.2656,470.9375 522.2656,467.8125 Q522.2656,464.6875 523.5781,463.0313 Q524.9063,461.375 527.4063,461.375 Q528.1094,461.375 528.75,461.5313 Q529.4063,461.6875 529.9688,461.9844 L529.9688,464.7031 Q529.3438,464.125 528.75,463.8594 Q528.1563,463.5781 527.5313,463.5781 Q526.1875,463.5781 525.5,464.6563 Q524.8125,465.7188 524.8125,467.8125 Q524.8125,469.9063 525.5,470.9844 Q526.1875,472.0469 527.5313,472.0469 Q528.1563,472.0469 528.75,471.7813 Q529.3438,471.5 529.9688,470.9219 L529.9688,473.6406 Z " fill="#000000"/><text fill="#000000" font-family="sans-serif" font-size="14" lengthAdjust="spacing" textLength="26" x="541" y="473.432">Hija</text><line style="stroke:#181818;stroke-width:0.5;" x1="513" x2="569" y1="484" y2="484"/><line style="stroke:#181818;stroke-width:0.5;" x1="513" x2="569" y1="492" y2="492"/></g><!--reverse link Padre to Base--><g id="link_Padre_Base"><path codeLine="33" d="M150.2358,86.6081 C181.0558,116.6681 215.07,149.87 254.88,188.71 " fill="none" id="Padre-backto-Base" style="stroke:#181818;stroke-width:1.0;"/><polygon fill="none" points="137.35,74.04,146.0465,90.9033,154.4252,82.3128,137.35,74.04" style="stroke:#181818;stroke-width:1.0;"/></g><!--reverse link Base to Hija--><g id="link_Base_Hija"><path codeLine="34" d="M418.0079,352.0079 C457.5379,391.5379 490.52,424.52 517.53,451.53 " fill="none" id="Base-backto-Hija" style="stroke:#181818;stroke-width:1.0;"/><polygon fill="none" points="405.28,339.28,413.7653,356.2506,422.2506,347.7653,405.28,339.28" style="stroke:#181818;stroke-width:1.0;"/></g><!--link Todo to Base--><g id="link_Todo_Base"><path codeLine="36" d="M557.0399,72.3725 C519.1099,104.0525 463.4651,150.5238 409.6451,195.4738 " fill="none" id="Todo-Base" style="stroke:#181818;stroke-width:1.0;"/><polygon fill="#181818" points="566.25,64.68,559.0808,65.4562,557.0399,72.3725,564.2091,71.5963,566.25,64.68" style="stroke:#181818;stroke-width:1.0;"/><polygon fill="#181818" points="405.04,199.32,414.5118,196.6208,408.8776,196.1149,409.3836,190.4807,405.04,199.32" style="stroke:#181818;stroke-width:1.0;"/><text fill="#000000" font-family="sans-serif" font-size="13" lengthAdjust="spacing" textLength="76" x="516" y="118.897">composicion</text></g><!--link Base to Parte--><g id="link_Base_Parte"><path codeLine="37" d="M245.7184,337.1869 C197.6284,378.9369 151.7602,418.7659 118.0902,448.0059 " fill="none" id="Base-Parte" style="stroke:#181818;stroke-width:1.0;"/><polygon fill="#181818" points="254.78,329.32,247.6269,330.2329,245.7184,337.1869,252.8715,336.274,254.78,329.32" style="stroke:#181818;stroke-width:1.0;"/><polygon fill="#181818" points="113.56,451.94,122.978,449.0589,117.3352,448.6615,117.7325,443.0187,113.56,451.94" style="stroke:#181818;stroke-width:1.0;"/><text fill="#000000" font-family="sans-serif" font-size="13" lengthAdjust="spacing" textLength="76" x="167" y="417.897">composicion</text></g><!--link AgregadoAferente to Base--><g id="link_AgregadoAferente_Base"><path codeLine="39" d="M429.9327,75.2628 C418.4927,96.6628 409.1004,114.1895 391.2904,147.4795 " fill="none" id="AgregadoAferente-Base" style="stroke:#181818;stroke-width:1.0;"/><polygon fill="none" points="435.59,64.68,429.2338,68.0856,429.9327,75.2628,436.2889,71.8572,435.59,64.68" style="stroke:#181818;stroke-width:1.0;"/><polygon fill="#181818" points="388.46,152.77,396.2325,146.7212,390.8186,148.3613,389.1786,142.9474,388.46,152.77" style="stroke:#181818;stroke-width:1.0;"/><text fill="#000000" font-family="sans-serif" font-size="13" lengthAdjust="spacing" textLength="67" x="414" y="118.897">agregacion</text></g><!--link Base to AgregadoEferente--><g id="link_Base_AgregadoEferente"><path codeLine="40" d="M274.785,384.1118 C261.095,413.8718 255.1162,426.8885 246.1562,446.3785 " fill="none" id="Base-AgregadoEferente" style="stroke:#181818;stroke-width:1.0;"/><polygon fill="none" points="279.8,373.21,273.6586,376.9893,274.785,384.1118,280.9264,380.3326,279.8,373.21" style="stroke:#181818;stroke-width:1.0;"/><polygon fill="#181818" points="243.65,451.83,251.0436,445.3235,245.7385,447.2871,243.7749,441.9819,243.65,451.83" style="stroke:#181818;stroke-width:1.0;"/><text fill="#000000" font-family="sans-serif" font-size="13" lengthAdjust="spacing" textLength="67" x="266" y="417.897">agregacion</text></g><!--link UsadoAferente to Base--><g id="link_UsadoAferente_Base"><path codeLine="42" d="M274.01,64.78 C277.63,81.14 282.78,103.49 288,123 C290.6,132.74 291.7641,137.063 294.6641,147.163 " fill="none" id="UsadoAferente-to-Base" style="stroke:#181818;stroke-width:1.0;stroke-dasharray:7.0,7.0;"/><polygon fill="#181818" points="296.32,152.93,297.6809,143.1756,294.9401,148.1242,289.9915,145.3834,296.32,152.93" style="stroke:#181818;stroke-width:1.0;"/><text fill="#000000" font-family="sans-serif" font-size="13" lengthAdjust="spacing" textLength="22" x="289" y="118.897">uso</text></g><!--link Base to UsadoEferente--><g id="link_Base_UsadoEferente"><path codeLine="43" d="M371.92,373.21 C383.35,402.97 392.4827,426.7374 399.9527,446.2274 " fill="none" id="Base-to-UsadoEferente" style="stroke:#181818;stroke-width:1.0;stroke-dasharray:7.0,7.0;"/><polygon fill="#181818" points="402.1,451.83,402.6141,441.9946,400.3106,447.1612,395.144,444.8577,402.1,451.83" style="stroke:#181818;stroke-width:1.0;"/><text fill="#000000" font-family="sans-serif" font-size="13" lengthAdjust="spacing" textLength="22" x="390" y="417.897">uso</text></g><!--link AsociadoAferente to Base--><g id="link_AsociadoAferente_Base"><path codeLine="45" d="M157.08,263 C188.02,263 217.79,263 248.75,263 " fill="none" id="AsociadoAferente-to-Base" style="stroke:#181818;stroke-width:1.0;"/><polygon fill="#181818" points="254.75,263,245.75,259,249.75,263,245.75,267,254.75,263" style="stroke:#181818;stroke-width:1.0;"/><text fill="#000000" font-family="sans-serif" font-size="13" lengthAdjust="spacing" textLength="62" x="175" y="255.897">asociacion</text></g><!--link Base to AsociadoEferente--><g id="link_Base_AsociadoEferente"><path codeLine="46" d="M405.08,263 C436.16,263 466.12,263 497.17,263 " fill="none" id="Base-to-AsociadoEferente" style="stroke:#181818;stroke-width:1.0;"/><polygon fill="#181818" points="503.17,263,494.17,259,498.17,263,494.17,267,503.17,263" style="stroke:#181818;stroke-width:1.0;"/><text fill="#000000" font-family="sans-serif" font-size="13" lengthAdjust="spacing" textLength="62" x="423.25" y="255.897">asociacion</text></g><!--SRC=[RP91JiCm44NtFeMbRe0gFG12I4Mgr6KMS829OrAZDbFP4rY4t1t74pk9mz9llhzd_fYmqNJHLlO2AaSM54br1UTa2RNL7lUH3_Ac2MiyJcTyU1I3OF670r_ur5Qtf2TsRAnkjlZTM_XxWkQN9xr3PRRwDt1Z6uK4igRg2ENTcc-l4xibGjADyN2_W5rrDGf5xmZ8g25LJWpGc_989JlwWNQ9J8QUxIDZFq-sGQGtk1HVM4GKnpl5yVxBe0IxoU-qpYD4dR6p-OBHZtVsyblK-DCM8JeHyaieACMu0_d4w9KJVfOARtTqHXbi-L8IXAuoXSZNAp7pWo2OxL8z7soj5Qk_90_ZfKCoxHooM-IhE2Q1oB-IBAnfBhJeBGZctb8ztz9A-mS0]--></g></svg>