<?xml version="1.0" encoding="us-ascii" standalone="no"?><svg xmlns="http://www.w3.org/2000/svg" xmlns:xlink="http://www.w3.org/1999/xlink" contentStyleType="text/css" height="1150px" preserveAspectRatio="none" style="width:769px;height:1150px;background:#FFFFFF;" version="1.1" viewBox="0 0 769 1150" width="769px" zoomAndPan="magnify"><defs/><g><!--cluster Cliente Web--><g id="cluster_Cliente Web"><path d="M8.5,6.602 L92.5,6.602 A3.75,3.75 0 0 1 95,9.102 L102,31.6699 L294.5,31.6699 A2.5,2.5 0 0 1 297,34.1699 L297,558.102 A2.5,2.5 0 0 1 294.5,560.602 L8.5,560.602 A2.5,2.5 0 0 1 6,558.102 L6,9.102 A2.5,2.5 0 0 1 8.5,6.602 " fill="none" style="stroke:#000000;stroke-width:1.5;"/><line style="stroke:#000000;stroke-width:1.5;" x1="6" x2="102" y1="31.6699" y2="31.6699"/><text fill="#000000" font-family="sans-serif" font-size="14" font-weight="bold" lengthAdjust="spacing" textLength="83" x="10" y="23.5679">Cliente Web</text></g><!--cluster Servidor Web--><g id="cluster_Servidor Web"><path d="M323.5,400.602 L417.5,400.602 A3.75,3.75 0 0 1 420,403.102 L427,425.6699 L759.5,425.6699 A2.5,2.5 0 0 1 762,428.1699 L762,930.102 A2.5,2.5 0 0 1 759.5,932.602 L323.5,932.602 A2.5,2.5 0 0 1 321,930.102 L321,403.102 A2.5,2.5 0 0 1 323.5,400.602 " fill="none" style="stroke:#000000;stroke-width:1.5;"/><line style="stroke:#000000;stroke-width:1.5;" x1="321" x2="427" y1="425.6699" y2="425.6699"/><text fill="#000000" font-family="sans-serif" font-size="14" font-weight="bold" lengthAdjust="spacing" textLength="93" x="325" y="417.5679">Servidor Web</text></g><!--cluster Persistencia--><g id="cluster_Persistencia"><path d="M552.5,983.602 L636.5,983.602 A3.75,3.75 0 0 1 639,986.102 L646,1008.6699 L751.5,1008.6699 A2.5,2.5 0 0 1 754,1011.1699 L754,1141.102 A2.5,2.5 0 0 1 751.5,1143.602 L552.5,1143.602 A2.5,2.5 0 0 1 550,1141.102 L550,986.102 A2.5,2.5 0 0 1 552.5,983.602 " fill="none" style="stroke:#000000;stroke-width:1.5;"/><line style="stroke:#000000;stroke-width:1.5;" x1="550" x2="646" y1="1008.6699" y2="1008.6699"/><text fill="#000000" font-family="sans-serif" font-size="14" font-weight="bold" lengthAdjust="spacing" textLength="83" x="554" y="1000.5679">Persistencia</text></g><!--entity ui--><g id="elem_ui"><rect fill="#F1F1F1" height="106.2717" rx="2.5" ry="2.5" style="stroke:#181818;stroke-width:0.5;" width="188" x="91" y="44.602"/><rect fill="#F1F1F1" height="10" style="stroke:#181818;stroke-width:0.5;" width="15" x="259" y="49.602"/><rect fill="#F1F1F1" height="2" style="stroke:#181818;stroke-width:0.5;" width="4" x="257" y="51.602"/><rect fill="#F1F1F1" height="2" style="stroke:#181818;stroke-width:0.5;" width="4" x="257" y="55.602"/><text fill="#000000" font-family="sans-serif" font-size="14" font-weight="bold" lengthAdjust="spacing" textLength="55" x="106" y="79.5679">TetrisUI</text><text fill="#000000" font-family="sans-serif" font-size="14" lengthAdjust="spacing" textLength="128" x="106" y="98.6358">Renderizado visual</text><text fill="#000000" font-family="sans-serif" font-size="14" lengthAdjust="spacing" textLength="127" x="106" y="117.7038">Manejo de eventos</text><text fill="#000000" font-family="sans-serif" font-size="14" lengthAdjust="spacing" textLength="148" x="106" y="136.7717">Clases: Tablero, Celda</text></g><!--entity controller--><g id="elem_controller"><rect fill="#F1F1F1" height="106.2717" rx="2.5" ry="2.5" style="stroke:#181818;stroke-width:0.5;" width="170" x="64" y="229.602"/><rect fill="#F1F1F1" height="10" style="stroke:#181818;stroke-width:0.5;" width="15" x="214" y="234.602"/><rect fill="#F1F1F1" height="2" style="stroke:#181818;stroke-width:0.5;" width="4" x="212" y="236.602"/><rect fill="#F1F1F1" height="2" style="stroke:#181818;stroke-width:0.5;" width="4" x="212" y="240.602"/><text fill="#000000" font-family="sans-serif" font-size="14" font-weight="bold" lengthAdjust="spacing" textLength="124" x="79" y="264.5679">ControladorJuego</text><text fill="#000000" font-family="sans-serif" font-size="14" lengthAdjust="spacing" textLength="92" x="79" y="283.6358">L&#243;gica cliente</text><text fill="#000000" font-family="sans-serif" font-size="14" lengthAdjust="spacing" textLength="104" x="79" y="302.7038">Validaci&#243;n local</text><text fill="#000000" font-family="sans-serif" font-size="14" lengthAdjust="spacing" textLength="130" x="79" y="321.7717">Clases: Movimiento</text></g><!--entity renderer--><g id="elem_renderer"><rect fill="#F1F1F1" height="106.2717" rx="2.5" ry="2.5" style="stroke:#181818;stroke-width:0.5;" width="198" x="36" y="438.602"/><rect fill="#F1F1F1" height="10" style="stroke:#181818;stroke-width:0.5;" width="15" x="214" y="443.602"/><rect fill="#F1F1F1" height="2" style="stroke:#181818;stroke-width:0.5;" width="4" x="212" y="445.602"/><rect fill="#F1F1F1" height="2" style="stroke:#181818;stroke-width:0.5;" width="4" x="212" y="449.602"/><text fill="#000000" font-family="sans-serif" font-size="14" font-weight="bold" lengthAdjust="spacing" textLength="135" x="51" y="473.5679">RenderizadorPiezas</text><text fill="#000000" font-family="sans-serif" font-size="14" lengthAdjust="spacing" textLength="134" x="51" y="492.6358">Visualizaci&#243;n piezas</text><text fill="#000000" font-family="sans-serif" font-size="14" lengthAdjust="spacing" textLength="86" x="51" y="511.7038">Animaciones</text><text fill="#000000" font-family="sans-serif" font-size="14" lengthAdjust="spacing" textLength="158" x="51" y="530.7717">Clases: Pieza, TipoPieza</text></g><!--entity api--><g id="elem_api"><rect fill="#F1F1F1" height="106.2717" rx="2.5" ry="2.5" style="stroke:#181818;stroke-width:0.5;" width="163" x="380.5" y="438.602"/><rect fill="#F1F1F1" height="10" style="stroke:#181818;stroke-width:0.5;" width="15" x="523.5" y="443.602"/><rect fill="#F1F1F1" height="2" style="stroke:#181818;stroke-width:0.5;" width="4" x="521.5" y="445.602"/><rect fill="#F1F1F1" height="2" style="stroke:#181818;stroke-width:0.5;" width="4" x="521.5" y="449.602"/><text fill="#000000" font-family="sans-serif" font-size="14" font-weight="bold" lengthAdjust="spacing" textLength="54" x="395.5" y="473.5679">APIRest</text><text fill="#000000" font-family="sans-serif" font-size="14" lengthAdjust="spacing" textLength="106" x="395.5" y="492.6358">Endpoints HTTP</text><text fill="#000000" font-family="sans-serif" font-size="14" lengthAdjust="spacing" textLength="123" x="395.5" y="511.7038">Serializaci&#243;n JSON</text><text fill="#000000" font-family="sans-serif" font-size="14" lengthAdjust="spacing" textLength="92" x="395.5" y="530.7717">Autenticaci&#243;n</text></g><!--entity engine--><g id="elem_engine"><rect fill="#F1F1F1" height="106.2717" rx="2.5" ry="2.5" style="stroke:#181818;stroke-width:0.5;" width="177" x="373.5" y="625.602"/><rect fill="#F1F1F1" height="10" style="stroke:#181818;stroke-width:0.5;" width="15" x="530.5" y="630.602"/><rect fill="#F1F1F1" height="2" style="stroke:#181818;stroke-width:0.5;" width="4" x="528.5" y="632.602"/><rect fill="#F1F1F1" height="2" style="stroke:#181818;stroke-width:0.5;" width="4" x="528.5" y="636.602"/><text fill="#000000" font-family="sans-serif" font-size="14" font-weight="bold" lengthAdjust="spacing" textLength="83" x="388.5" y="660.5679">MotorJuego</text><text fill="#000000" font-family="sans-serif" font-size="14" lengthAdjust="spacing" textLength="94" x="388.5" y="679.6358">L&#243;gica central</text><text fill="#000000" font-family="sans-serif" font-size="14" lengthAdjust="spacing" textLength="112" x="388.5" y="698.7038">Reglas del juego</text><text fill="#000000" font-family="sans-serif" font-size="14" lengthAdjust="spacing" textLength="137" x="388.5" y="717.7717">Clases: Juego, Turno</text></g><!--entity board--><g id="elem_board"><rect fill="#F1F1F1" height="106.2717" rx="2.5" ry="2.5" style="stroke:#181818;stroke-width:0.5;" width="186" x="337" y="810.602"/><rect fill="#F1F1F1" height="10" style="stroke:#181818;stroke-width:0.5;" width="15" x="503" y="815.602"/><rect fill="#F1F1F1" height="2" style="stroke:#181818;stroke-width:0.5;" width="4" x="501" y="817.602"/><rect fill="#F1F1F1" height="2" style="stroke:#181818;stroke-width:0.5;" width="4" x="501" y="821.602"/><text fill="#000000" font-family="sans-serif" font-size="14" font-weight="bold" lengthAdjust="spacing" textLength="98" x="352" y="845.5679">GestorTablero</text><text fill="#000000" font-family="sans-serif" font-size="14" lengthAdjust="spacing" textLength="122" x="352" y="864.6358">Estado del tablero</text><text fill="#000000" font-family="sans-serif" font-size="14" lengthAdjust="spacing" textLength="110" x="352" y="883.7038">Detecci&#243;n l&#237;neas</text><text fill="#000000" font-family="sans-serif" font-size="14" lengthAdjust="spacing" textLength="146" x="352" y="902.7717">Clases: Tablero, L&#237;nea</text></g><!--entity scores--><g id="elem_scores"><rect fill="#F1F1F1" height="106.2717" rx="2.5" ry="2.5" style="stroke:#181818;stroke-width:0.5;" width="188" x="558" y="810.602"/><rect fill="#F1F1F1" height="10" style="stroke:#181818;stroke-width:0.5;" width="15" x="726" y="815.602"/><rect fill="#F1F1F1" height="2" style="stroke:#181818;stroke-width:0.5;" width="4" x="724" y="817.602"/><rect fill="#F1F1F1" height="2" style="stroke:#181818;stroke-width:0.5;" width="4" x="724" y="821.602"/><text fill="#000000" font-family="sans-serif" font-size="14" font-weight="bold" lengthAdjust="spacing" textLength="148" x="573" y="845.5679">ServicioPuntuaciones</text><text fill="#000000" font-family="sans-serif" font-size="14" lengthAdjust="spacing" textLength="100" x="573" y="864.6358">C&#225;lculo puntos</text><text fill="#000000" font-family="sans-serif" font-size="14" lengthAdjust="spacing" textLength="62" x="573" y="883.7038">Rankings</text><text fill="#000000" font-family="sans-serif" font-size="14" lengthAdjust="spacing" textLength="81" x="573" y="902.7717">Persistencia</text></g><!--entity db--><g id="elem_db"><rect fill="#F1F1F1" height="106.2717" rx="2.5" ry="2.5" style="stroke:#181818;stroke-width:0.5;" width="172" x="566" y="1021.602"/><rect fill="#F1F1F1" height="10" style="stroke:#181818;stroke-width:0.5;" width="15" x="718" y="1026.602"/><rect fill="#F1F1F1" height="2" style="stroke:#181818;stroke-width:0.5;" width="4" x="716" y="1028.602"/><rect fill="#F1F1F1" height="2" style="stroke:#181818;stroke-width:0.5;" width="4" x="716" y="1032.602"/><text fill="#000000" font-family="sans-serif" font-size="14" font-weight="bold" lengthAdjust="spacing" textLength="72" x="581" y="1056.5679">BaseDatos</text><text fill="#000000" font-family="sans-serif" font-size="14" lengthAdjust="spacing" textLength="77" x="581" y="1075.6358">PostgreSQL</text><text fill="#000000" font-family="sans-serif" font-size="14" lengthAdjust="spacing" textLength="132" x="581" y="1094.7038">Partidas guardadas</text><text fill="#000000" font-family="sans-serif" font-size="14" lengthAdjust="spacing" textLength="91" x="581" y="1113.7717">Puntuaciones</text></g><!--link ui to controller--><g id="link_ui_controller"><path codeLine="65" d="M133.08,150.842 C126.5,160.112 120.77,170.162 117,180.602 C111.32,196.352 111.7581,207.9918 117.2181,223.7718 " fill="none" id="ui-to-controller" style="stroke:#181818;stroke-width:1.0;stroke-dasharray:7.0,7.0;"/><polygon fill="#181818" points="119.18,229.442,120.0172,219.6288,117.5451,224.7168,112.457,222.2447,119.18,229.442" style="stroke:#181818;stroke-width:1.0;"/><text fill="#000000" font-family="sans-serif" font-size="13" lengthAdjust="spacing" textLength="21" x="118" y="195.499">usa</text></g><!--link ui to controller--><g id="link_ui_controller"><path codeLine="76" d="M174.68,151.042 C169.84,175.652 165.2473,199.0147 160.4173,223.5847 " fill="none" id="ui-to-controller-1" style="stroke:#181818;stroke-width:1.0;"/><polygon fill="#181818" points="159.26,229.472,164.9209,221.4126,160.2244,224.5659,157.0711,219.8694,159.26,229.472" style="stroke:#181818;stroke-width:1.0;"/><text fill="#000000" font-family="sans-serif" font-size="13" lengthAdjust="spacing" textLength="96" x="170" y="195.499">eventos usuario</text></g><!--link controller to renderer--><g id="link_controller_renderer"><path codeLine="66" d="M74.5,335.722 C66.22,344.712 58.99,354.702 54,365.602 C42.48,390.762 50.8868,412.1227 69.0668,433.8227 " fill="none" id="controller-to-renderer" style="stroke:#181818;stroke-width:1.0;stroke-dasharray:7.0,7.0;"/><polygon fill="#181818" points="72.92,438.422,70.2064,428.9543,69.709,434.5893,64.0741,434.0919,72.92,438.422" style="stroke:#181818;stroke-width:1.0;"/><text fill="#000000" font-family="sans-serif" font-size="13" lengthAdjust="spacing" textLength="50" x="55" y="380.499">requiere</text></g><!--link controller to renderer--><g id="link_controller_renderer"><path codeLine="75" d="M145.47,335.832 C143.34,367.212 141.0546,401.0256 138.9346,432.3956 " fill="none" id="controller-to-renderer-1" style="stroke:#181818;stroke-width:1.0;"/><polygon fill="#181818" points="138.53,438.382,143.1277,429.6722,138.8671,433.3934,135.1459,429.1328,138.53,438.382" style="stroke:#181818;stroke-width:1.0;"/><text fill="#000000" font-family="sans-serif" font-size="13" lengthAdjust="spacing" textLength="130" x="145" y="380.499">actualiza visualizaci&#243;n</text></g><!--link ui to api--><g id="link_ui_api"><path codeLine="67" d="M248.96,150.812 C305.12,200.232 384.6,279.512 429,365.602 C440.68,388.242 447.2085,409.5204 452.2785,432.7104 " fill="none" id="ui-to-api" style="stroke:#181818;stroke-width:1.0;stroke-dasharray:7.0,7.0;"/><polygon fill="#181818" points="453.56,438.572,455.5454,428.9253,452.4921,433.6874,447.73,430.634,453.56,438.572" style="stroke:#181818;stroke-width:1.0;"/><text fill="#000000" font-family="sans-serif" font-size="13" lengthAdjust="spacing" textLength="60" x="411" y="287.999">HTTP calls</text></g><!--link ui to api--><g id="link_ui_api"><path codeLine="80" d="M279.02,112.872 C347.57,128.722 435.87,161.712 480,229.602 C520.72,292.242 503.5834,376.4619 484.7634,432.7219 " fill="none" id="ui-to-api-1" style="stroke:#181818;stroke-width:1.0;"/><polygon fill="#181818" points="482.86,438.412,489.5085,431.1458,484.4462,433.6703,481.9218,428.6079,482.86,438.412" style="stroke:#181818;stroke-width:1.0;"/><text fill="#000000" font-family="sans-serif" font-size="13" lengthAdjust="spacing" textLength="72" x="505" y="287.999">GET /estado</text></g><!--link api to engine--><g id="link_api_engine"><path codeLine="69" d="M462,544.632 C462,569.852 462,594.072 462,619.322 " fill="none" id="api-to-engine" style="stroke:#181818;stroke-width:1.0;stroke-dasharray:7.0,7.0;"/><polygon fill="#181818" points="462,625.322,466,616.322,462,620.322,458,616.322,462,625.322" style="stroke:#181818;stroke-width:1.0;"/><text fill="#000000" font-family="sans-serif" font-size="13" lengthAdjust="spacing" textLength="40" x="463" y="591.499">delega</text></g><!--link engine to board--><g id="link_engine_board"><path codeLine="70" d="M452.83,732.042 C448.53,756.652 444.442,779.9914 440.152,804.5614 " fill="none" id="engine-to-board" style="stroke:#181818;stroke-width:1.0;stroke-dasharray:7.0,7.0;"/><polygon fill="#181818" points="439.12,810.472,444.6084,802.2941,439.98,805.5465,436.7276,800.9181,439.12,810.472" style="stroke:#181818;stroke-width:1.0;"/><text fill="#000000" font-family="sans-serif" font-size="13" lengthAdjust="spacing" textLength="52" x="447" y="776.499">gestiona</text></g><!--link engine to scores--><g id="link_engine_scores"><path codeLine="71" d="M514.11,731.812 C530.03,747.592 547.65,764.892 564,780.602 C574.09,790.292 580.5499,796.4314 591.0499,806.2614 " fill="none" id="engine-to-scores" style="stroke:#181818;stroke-width:1.0;stroke-dasharray:7.0,7.0;"/><polygon fill="#181818" points="595.43,810.362,591.5936,801.291,591.7799,806.9448,586.1261,807.1311,595.43,810.362" style="stroke:#181818;stroke-width:1.0;"/><text fill="#000000" font-family="sans-serif" font-size="13" lengthAdjust="spacing" textLength="52" x="565" y="776.499">actualiza</text></g><!--link scores to db--><g id="link_scores_db"><path codeLine="72" d="M652,916.802 C652,948.722 652,983.412 652,1015.342 " fill="none" id="scores-to-db" style="stroke:#181818;stroke-width:1.0;stroke-dasharray:7.0,7.0;"/><polygon fill="#181818" points="652,1021.342,656,1012.342,652,1016.342,648,1012.342,652,1021.342" style="stroke:#181818;stroke-width:1.0;"/><text fill="#000000" font-family="sans-serif" font-size="13" lengthAdjust="spacing" textLength="47" x="653" y="963.499">persiste</text></g><!--link controller to api--><g id="link_controller_api"><path codeLine="79" d="M234.22,335.192 C250.19,345.132 266.68,355.572 282,365.602 C317.65,388.942 351.6494,412.3444 384.1394,435.1544 " fill="none" id="controller-to-api" style="stroke:#181818;stroke-width:1.0;"/><polygon fill="#181818" points="389.05,438.602,383.9824,430.1569,384.9578,435.729,379.3857,436.7044,389.05,438.602" style="stroke:#181818;stroke-width:1.0;"/><text fill="#000000" font-family="sans-serif" font-size="13" lengthAdjust="spacing" textLength="113" x="307" y="380.499">POST /movimiento</text></g><!--link scores to api--><g id="link_scores_api"><path codeLine="81" d="M637.47,810.422 C632.81,794.642 627.45,777.332 622,761.602 C600.72,700.152 600.62,681.862 568,625.602 C551.49,597.122 533.1148,572.8114 513.2748,549.2514 " fill="none" id="scores-to-api" style="stroke:#181818;stroke-width:1.0;"/><polygon fill="#181818" points="509.41,544.662,512.1476,554.1227,512.6307,548.4865,518.2669,548.9696,509.41,544.662" style="stroke:#181818;stroke-width:1.0;"/><text fill="#000000" font-family="sans-serif" font-size="13" lengthAdjust="spacing" textLength="113" x="612" y="683.999">GET /puntuaciones</text></g><!--SRC=[TLJBRjim4BphAnQwz18dTo4maDf1wi1kLDjD3aKF5BKLcCYaoeSFAVen_O2UyWd-iIufwc7NEHYGTcZEpiok6iPVM8MGpcg1qY8yOP72hmI0grsZ9DN02VX61O3hOhf5guNvkhY-AgQXjaPPeXQlh5Im5yQnEfHNJEApWX81ztI7Cg4wgvb1ay6M5JLgTG4ph4j6q7Vw7N5o9QrMDPqQk6TjZPZqlSDAzJqi3s-Lu0nugo7K7bajIiR5uKr2hNXigsjWfVPYvm-hS-GwQ1fJZrJgNE0hCptvOn1DKClL13GWDrBig4ft7giF5rp0LZGgF8OMVYT9qsMnGRqNn7Gk3DQCqhZ95siqjk_bLfQD4j8Q-BJTvg54TubHU_URXyzjSyxITUHQg9zp0MKb90vaAsNVDPxEwsZn6YlIISdNyEmF7qaFVoVfJikppXUAwNAWl2DnIiTf6LGQwwVDCzWM2kKvMkGnyCDVYUoTcLi6y1oxuKgZ6UX33XHWxgHrCSc-YzdXJyrThQ1n_NolcNmHicfVSjH667APY_yZ7eEd4PV5qC97QdxEwFwUDrV6LXetNvRjAzEM1jr0vSWwLaRLuvOxyW-meEtGFnWdaOsc5IW9fEs-l9oE5ou3PrWoAdYytucC7dywGS_TN_r8Pc7YWFQiDadYAnw98vJvhB1YINptK9jq1XL5J5qUOJ6731YtxMubiUHHiYU39lhdLSsnySrvAmtuISJ1J6mdiVioZ4HD9aUYqfuhViQwbKczJ7_uoA4qVjR8Al9TgDGtCbCx9xkLwZWd9cxpANbhMve_RBPmjUi_I3rVnEzk2SOmycbdmodSZD9Eaty0]--></g></svg>