<?xml version="1.0" encoding="us-ascii" standalone="no"?><svg xmlns="http://www.w3.org/2000/svg" xmlns:xlink="http://www.w3.org/1999/xlink" contentStyleType="text/css" height="377px" preserveAspectRatio="none" style="width:472px;height:377px;background:#FFFFFF;" version="1.1" viewBox="0 0 472 377" width="472px" zoomAndPan="magnify"><defs/><g><!--cluster Aplicaci?n Desktop--><g id="cluster_Aplicaci&#243;n Desktop"><path d="M8.5,6.602 L142.5,6.602 A3.75,3.75 0 0 1 145,9.102 L152,31.6699 L462.5,31.6699 A2.5,2.5 0 0 1 465,34.1699 L465,368.102 A2.5,2.5 0 0 1 462.5,370.602 L8.5,370.602 A2.5,2.5 0 0 1 6,368.102 L6,9.102 A2.5,2.5 0 0 1 8.5,6.602 " fill="none" style="stroke:#000000;stroke-width:1.5;"/><line style="stroke:#000000;stroke-width:1.5;" x1="6" x2="152" y1="31.6699" y2="31.6699"/><text fill="#000000" font-family="sans-serif" font-size="14" font-weight="bold" lengthAdjust="spacing" textLength="133" x="10" y="23.5679">Aplicaci&#243;n Desktop</text></g><!--entity tetrisExe--><g id="elem_tetrisExe"><rect fill="#F1F1F1" height="125.3396" rx="2.5" ry="2.5" style="stroke:#181818;stroke-width:0.5;" width="155" x="186.5" y="44.602"/><rect fill="#F1F1F1" height="10" style="stroke:#181818;stroke-width:0.5;" width="15" x="321.5" y="49.602"/><rect fill="#F1F1F1" height="2" style="stroke:#181818;stroke-width:0.5;" width="4" x="319.5" y="51.602"/><rect fill="#F1F1F1" height="2" style="stroke:#181818;stroke-width:0.5;" width="4" x="319.5" y="55.602"/><text fill="#000000" font-family="sans-serif" font-size="14" font-weight="bold" lengthAdjust="spacing" textLength="67" x="201.5" y="79.5679">Tetris.exe</text><text fill="#000000" font-family="sans-serif" font-size="14" lengthAdjust="spacing" textLength="85" x="201.5" y="98.6358">TetrisEngine</text><text fill="#000000" font-family="sans-serif" font-size="14" lengthAdjust="spacing" textLength="101" x="201.5" y="117.7038">InterfazGrafica</text><text fill="#000000" font-family="sans-serif" font-size="14" lengthAdjust="spacing" textLength="83" x="201.5" y="136.7717">GestorAudio</text><text fill="#000000" font-family="sans-serif" font-size="14" lengthAdjust="spacing" textLength="115" x="201.5" y="155.8396">PersistenciaLocal</text></g><!--entity configFile--><g id="elem_configFile"><rect fill="#F1F1F1" height="106.2717" rx="2.5" ry="2.5" style="stroke:#181818;stroke-width:0.5;" width="210" x="22" y="248.602"/><rect fill="#F1F1F1" height="10" style="stroke:#181818;stroke-width:0.5;" width="15" x="212" y="253.602"/><rect fill="#F1F1F1" height="2" style="stroke:#181818;stroke-width:0.5;" width="4" x="210" y="255.602"/><rect fill="#F1F1F1" height="2" style="stroke:#181818;stroke-width:0.5;" width="4" x="210" y="259.602"/><text fill="#000000" font-family="sans-serif" font-size="14" font-weight="bold" lengthAdjust="spacing" textLength="64" x="37" y="283.5679">config.ini</text><text fill="#000000" font-family="sans-serif" font-size="14" lengthAdjust="spacing" textLength="150" x="37" y="302.6358">Configuraci&#243;n usuario</text><text fill="#000000" font-family="sans-serif" font-size="14" lengthAdjust="spacing" textLength="142" x="37" y="321.7038">Preferencias gr&#225;ficas</text><text fill="#000000" font-family="sans-serif" font-size="14" lengthAdjust="spacing" textLength="170" x="37" y="340.7717">Controles personalizados</text></g><!--entity scoresFile--><g id="elem_scoresFile"><rect fill="#F1F1F1" height="106.2717" rx="2.5" ry="2.5" style="stroke:#181818;stroke-width:0.5;" width="182" x="267" y="248.602"/><rect fill="#F1F1F1" height="10" style="stroke:#181818;stroke-width:0.5;" width="15" x="429" y="253.602"/><rect fill="#F1F1F1" height="2" style="stroke:#181818;stroke-width:0.5;" width="4" x="427" y="255.602"/><rect fill="#F1F1F1" height="2" style="stroke:#181818;stroke-width:0.5;" width="4" x="427" y="259.602"/><text fill="#000000" font-family="sans-serif" font-size="14" font-weight="bold" lengthAdjust="spacing" textLength="121" x="282" y="283.5679">puntuaciones.dat</text><text fill="#000000" font-family="sans-serif" font-size="14" lengthAdjust="spacing" textLength="140" x="282" y="302.6358">Hist&#243;rico de partidas</text><text fill="#000000" font-family="sans-serif" font-size="14" lengthAdjust="spacing" textLength="132" x="282" y="321.7038">Records personales</text><text fill="#000000" font-family="sans-serif" font-size="14" lengthAdjust="spacing" textLength="142" x="282" y="340.7717">Estad&#237;sticas de juego</text></g><!--link tetrisExe to configFile--><g id="link_tetrisExe_configFile"><path codeLine="27" d="M220.09,169.802 C202.09,195.102 184.9485,219.1732 167.7085,243.4032 " fill="none" id="tetrisExe-to-configFile" style="stroke:#181818;stroke-width:1.0;stroke-dasharray:7.0,7.0;"/><polygon fill="#181818" points="164.23,248.292,172.7069,243.2778,167.1287,244.218,166.1885,238.6398,164.23,248.292" style="stroke:#181818;stroke-width:1.0;"/><text fill="#000000" font-family="sans-serif" font-size="13" lengthAdjust="spacing" textLength="17" x="196" y="214.499">lee</text></g><!--link tetrisExe to scoresFile--><g id="link_tetrisExe_scoresFile"><path codeLine="28" d="M252.6,169.762 C252.11,186.252 254.05,203.632 261,218.602 C266.01,229.402 269.146,234.8965 277.406,243.7865 " fill="none" id="tetrisExe-to-scoresFile" style="stroke:#181818;stroke-width:1.0;stroke-dasharray:7.0,7.0;"/><polygon fill="#181818" points="281.49,248.182,278.2943,238.866,278.0866,244.519,272.4336,244.3114,281.49,248.182" style="stroke:#181818;stroke-width:1.0;"/><text fill="#000000" font-family="sans-serif" font-size="13" lengthAdjust="spacing" textLength="52" x="262" y="214.499">actualiza</text></g><!--link tetrisExe to scoresFile--><g id="link_tetrisExe_scoresFile"><path codeLine="29" d="M303.05,169.812 C308.68,179.622 314.2,189.782 319,199.602 C326.6,215.132 331.6336,226.9452 337.7036,242.8752 " fill="none" id="tetrisExe-to-scoresFile-1" style="stroke:#181818;stroke-width:1.0;"/><polygon fill="#181818" points="339.84,248.482,340.3732,238.6476,338.0597,243.8097,332.8975,241.4961,339.84,248.482" style="stroke:#181818;stroke-width:1.0;"/><text fill="#000000" font-family="sans-serif" font-size="13" lengthAdjust="spacing" textLength="47" x="328" y="214.499">persiste</text></g><!--SRC=[RP5DJiCm44RtESMe6rOD-wgAL44fI2mGOeTOJEr9D3JObiUMgY8Emm5OzGYv68xJdr2nzFEClpSUXsg33S5auLfMgBZR6xWbsGJh9l1P02ZxuQmX4o1Gy2pBBS5huW3pTVMIKKbRcb-lgqm7j3GD6yhWmGJoDUvM7kiK0P3fYYHOluYQRJu_aHUMG4OnFbg5RQ9lHIu-6oXhQcxkk1qf3AnamoU5cuoYFumJ9Q8_ndYgoUSKWSPttxsI7Bk2joq9kEHY3RQyGstbFn5HrfFy5N7HX9WYKuMK6iD9vpxDrUqzAmkQmA4Fh0-PpvGUqkT46l1I0khkHq8lrpUzHsfi5lagYgkq84T63rCKvxMKPJN-eXcqH1VN8_4Pe4h2_PIZekdqeiWT5bFy0W00]--></g></svg>