<?xml version="1.0" encoding="us-ascii" standalone="no"?><svg xmlns="http://www.w3.org/2000/svg" xmlns:xlink="http://www.w3.org/1999/xlink" contentStyleType="text/css" height="173px" preserveAspectRatio="none" style="width:201px;height:173px;background:#FFFFFF;" version="1.1" viewBox="0 0 201 173" width="201px" zoomAndPan="magnify"><defs/><g><!--cluster Aplicaci?n Desktop--><g id="cluster_Aplicaci&#243;n Desktop"><path d="M8.5,6.602 L142.5,6.602 A3.75,3.75 0 0 1 145,9.102 L152,31.6699 L191.5,31.6699 A2.5,2.5 0 0 1 194,34.1699 L194,164.102 A2.5,2.5 0 0 1 191.5,166.602 L8.5,166.602 A2.5,2.5 0 0 1 6,164.102 L6,9.102 A2.5,2.5 0 0 1 8.5,6.602 " fill="none" style="stroke:#000000;stroke-width:1.5;"/><line style="stroke:#000000;stroke-width:1.5;" x1="6" x2="152" y1="31.6699" y2="31.6699"/><text fill="#000000" font-family="sans-serif" font-size="14" font-weight="bold" lengthAdjust="spacing" textLength="133" x="10" y="23.5679">Aplicaci&#243;n Desktop</text></g><!--entity Tetris--><g id="elem_Tetris"><rect fill="#F1F1F1" height="106.2717" rx="2.5" ry="2.5" style="stroke:#181818;stroke-width:0.5;" width="155" x="22.5" y="44.602"/><rect fill="#F1F1F1" height="10" style="stroke:#181818;stroke-width:0.5;" width="15" x="157.5" y="49.602"/><rect fill="#F1F1F1" height="2" style="stroke:#181818;stroke-width:0.5;" width="4" x="155.5" y="51.602"/><rect fill="#F1F1F1" height="2" style="stroke:#181818;stroke-width:0.5;" width="4" x="155.5" y="55.602"/><text fill="#000000" font-family="sans-serif" font-size="14" lengthAdjust="spacing" textLength="85" x="37.5" y="79.5679">TetrisEngine</text><text fill="#000000" font-family="sans-serif" font-size="14" lengthAdjust="spacing" textLength="101" x="37.5" y="98.6358">InterfazGrafica</text><text fill="#000000" font-family="sans-serif" font-size="14" lengthAdjust="spacing" textLength="83" x="37.5" y="117.7038">GestorAudio</text><text fill="#000000" font-family="sans-serif" font-size="14" lengthAdjust="spacing" textLength="115" x="37.5" y="136.7717">PersistenciaLocal</text></g><!--SRC=[FSmn2i9W38RXlQS8lKb1AOA3WviuX9YMq9hy976nU2gFuCMi5VvtV3xu2jA48qFRbLa8IJvlXHt7b5PQM1fO8xiNKzQ4CwTBm6NZNt_OwoZA5G-Qx0C-UyTX_QpUSwHvzxY9LJknXqIoak3H2ETjkJQlBm00]--></g></svg>