<?xml version="1.0" encoding="us-ascii" standalone="no"?><svg xmlns="http://www.w3.org/2000/svg" xmlns:xlink="http://www.w3.org/1999/xlink" contentStyleType="text/css" height="1107px" preserveAspectRatio="none" style="width:1287px;height:1107px;background:#FFFFFF;" version="1.1" viewBox="0 0 1287 1107" width="1287px" zoomAndPan="magnify"><defs/><g><!--cluster usernode--><g id="cluster_usernode"><polygon fill="none" points="16,16,26,6,387,6,387,423,377,433,16,433,16,16" style="stroke:#181818;stroke-width:1.0;"/><line style="stroke:#181818;stroke-width:1.0;" x1="377" x2="387" y1="16" y2="6"/><line style="stroke:#181818;stroke-width:1.0;" x1="16" x2="377" y1="16" y2="16"/><line style="stroke:#181818;stroke-width:1.0;" x1="377" x2="377" y1="16" y2="433"/><text fill="#000000" font-family="sans-serif" font-size="14" font-weight="bold" lengthAdjust="spacing" textLength="135" x="130" y="33.9659">Dispositivo Usuario</text></g><!--cluster browser--><g id="cluster_browser"><polygon fill="none" points="48,75,58,65,347,65,347,391,337,401,48,401,48,75" style="stroke:#181818;stroke-width:1.0;"/><line style="stroke:#181818;stroke-width:1.0;" x1="337" x2="347" y1="75" y2="65"/><line style="stroke:#181818;stroke-width:1.0;" x1="48" x2="337" y1="75" y2="75"/><line style="stroke:#181818;stroke-width:1.0;" x1="337" x2="337" y1="75" y2="401"/><text fill="#000000" font-family="sans-serif" font-size="14" font-weight="bold" lengthAdjust="spacing" textLength="111" x="138" y="92.9659">Navegador Web</text></g><!--cluster appServer--><g id="cluster_appServer"><polygon fill="none" points="306,528,316,518,744,518,744,954.5,734,964.5,306,964.5,306,528" style="stroke:#181818;stroke-width:1.0;"/><line style="stroke:#181818;stroke-width:1.0;" x1="734" x2="744" y1="528" y2="518"/><line style="stroke:#181818;stroke-width:1.0;" x1="306" x2="734" y1="528" y2="528"/><line style="stroke:#181818;stroke-width:1.0;" x1="734" x2="734" y1="528" y2="964.5"/><text fill="#000000" font-family="sans-serif" font-size="14" font-weight="bold" lengthAdjust="spacing" textLength="148" x="447" y="545.9659">Servidor Aplicaciones</text></g><!--cluster tomcat--><g id="cluster_tomcat"><polygon fill="none" points="338,587,348,577,704,577,704,922.5,694,932.5,338,932.5,338,587" style="stroke:#181818;stroke-width:1.0;"/><line style="stroke:#181818;stroke-width:1.0;" x1="694" x2="704" y1="587" y2="577"/><line style="stroke:#181818;stroke-width:1.0;" x1="338" x2="694" y1="587" y2="587"/><line style="stroke:#181818;stroke-width:1.0;" x1="694" x2="694" y1="587" y2="932.5"/><text fill="#000000" font-family="sans-serif" font-size="14" font-weight="bold" lengthAdjust="spacing" textLength="107" x="463.5" y="604.9659">Apache Tomcat</text></g><!--cluster dbServer--><g id="cluster_dbServer"><polygon fill="none" points="951,782.5,961,772.5,1228,772.5,1228,954.5,1218,964.5,951,964.5,951,782.5" style="stroke:#181818;stroke-width:1.0;"/><line style="stroke:#181818;stroke-width:1.0;" x1="1218" x2="1228" y1="782.5" y2="772.5"/><line style="stroke:#181818;stroke-width:1.0;" x1="951" x2="1218" y1="782.5" y2="782.5"/><line style="stroke:#181818;stroke-width:1.0;" x1="1218" x2="1218" y1="782.5" y2="964.5"/><text fill="#000000" font-family="sans-serif" font-size="14" font-weight="bold" lengthAdjust="spacing" textLength="138" x="1016.5" y="800.4659">Servidor Base Datos</text></g><!--cluster postgres--><g id="cluster_postgres"><polygon fill="none" points="991,841.5,1001,831.5,1196,831.5,1196,922.5,1186,932.5,991,932.5,991,841.5" style="stroke:#181818;stroke-width:1.0;"/><line style="stroke:#181818;stroke-width:1.0;" x1="1186" x2="1196" y1="841.5" y2="831.5"/><line style="stroke:#181818;stroke-width:1.0;" x1="991" x2="1186" y1="841.5" y2="841.5"/><line style="stroke:#181818;stroke-width:1.0;" x1="1186" x2="1186" y1="841.5" y2="932.5"/><text fill="#000000" font-family="sans-serif" font-size="14" font-weight="bold" lengthAdjust="spacing" textLength="129" x="1025" y="859.4659">PostgreSQL Server</text></g><!--cluster cdnServer--><g id="cluster_cdnServer"><polygon fill="none" points="847,251,857,241,1270,241,1270,423,1260,433,847,433,847,251" style="stroke:#181818;stroke-width:1.0;"/><line style="stroke:#181818;stroke-width:1.0;" x1="1260" x2="1270" y1="251" y2="241"/><line style="stroke:#181818;stroke-width:1.0;" x1="847" x2="1260" y1="251" y2="251"/><line style="stroke:#181818;stroke-width:1.0;" x1="1260" x2="1260" y1="251" y2="433"/><text fill="#000000" font-family="sans-serif" font-size="14" font-weight="bold" lengthAdjust="spacing" textLength="92" x="1008.5" y="268.9659">Servidor CDN</text></g><!--cluster nginx--><g id="cluster_nginx"><polygon fill="none" points="887,310,897,300,1238,300,1238,391,1228,401,887,401,887,310" style="stroke:#181818;stroke-width:1.0;"/><line style="stroke:#181818;stroke-width:1.0;" x1="1228" x2="1238" y1="310" y2="300"/><line style="stroke:#181818;stroke-width:1.0;" x1="887" x2="1228" y1="310" y2="310"/><line style="stroke:#181818;stroke-width:1.0;" x1="1228" x2="1228" y1="310" y2="401"/><text fill="#000000" font-family="sans-serif" font-size="14" font-weight="bold" lengthAdjust="spacing" textLength="75" x="1021" y="327.9659">Nginx CDN</text></g><!--entity uiArt--><g id="elem_uiArt"><rect fill="#F1F1F1" height="42.0679" rx="2.5" ry="2.5" style="stroke:#181818;stroke-width:0.5;" width="83" x="64.5" y="108"/><polygon fill="#F1F1F1" points="130.5,113,130.5,127,142.5,127,142.5,119,136.5,113,130.5,113" style="stroke:#181818;stroke-width:0.5;"/><line style="stroke:#181818;stroke-width:0.5;" x1="136.5" x2="136.5" y1="113" y2="119"/><line style="stroke:#181818;stroke-width:0.5;" x1="142.5" x2="136.5" y1="119" y2="119"/><text fill="#000000" font-family="sans-serif" font-size="14" lengthAdjust="spacing" textLength="53" x="74.5" y="135.9659">TetrisUI</text></g><!--entity controllerArt--><g id="elem_controllerArt"><rect fill="#F1F1F1" height="42.0679" rx="2.5" ry="2.5" style="stroke:#181818;stroke-width:0.5;" width="148" x="183" y="108"/><polygon fill="#F1F1F1" points="314,113,314,127,326,127,326,119,320,113,314,113" style="stroke:#181818;stroke-width:0.5;"/><line style="stroke:#181818;stroke-width:0.5;" x1="320" x2="320" y1="113" y2="119"/><line style="stroke:#181818;stroke-width:0.5;" x1="326" x2="320" y1="119" y2="119"/><text fill="#000000" font-family="sans-serif" font-size="14" lengthAdjust="spacing" textLength="118" x="193" y="135.9659">ControladorJuego</text></g><!--entity rendererArt--><g id="elem_rendererArt"><rect fill="#F1F1F1" height="42.0679" rx="2.5" ry="2.5" style="stroke:#181818;stroke-width:0.5;" width="163" x="64.5" y="343"/><polygon fill="#F1F1F1" points="210.5,348,210.5,362,222.5,362,222.5,354,216.5,348,210.5,348" style="stroke:#181818;stroke-width:0.5;"/><line style="stroke:#181818;stroke-width:0.5;" x1="216.5" x2="216.5" y1="348" y2="354"/><line style="stroke:#181818;stroke-width:0.5;" x1="222.5" x2="216.5" y1="354" y2="354"/><text fill="#000000" font-family="sans-serif" font-size="14" lengthAdjust="spacing" textLength="133" x="74.5" y="370.9659">RenderizadorPiezas</text></g><!--entity apiArt--><g id="elem_apiArt"><rect fill="#F1F1F1" height="42.0679" rx="2.5" ry="2.5" style="stroke:#181818;stroke-width:0.5;" width="81" x="376.5" y="620"/><polygon fill="#F1F1F1" points="440.5,625,440.5,639,452.5,639,452.5,631,446.5,625,440.5,625" style="stroke:#181818;stroke-width:0.5;"/><line style="stroke:#181818;stroke-width:0.5;" x1="446.5" x2="446.5" y1="625" y2="631"/><line style="stroke:#181818;stroke-width:0.5;" x1="452.5" x2="446.5" y1="631" y2="631"/><text fill="#000000" font-family="sans-serif" font-size="14" lengthAdjust="spacing" textLength="51" x="386.5" y="647.9659">APIRest</text></g><!--entity engineArt--><g id="elem_engineArt"><rect fill="#F1F1F1" height="42.0679" rx="2.5" ry="2.5" style="stroke:#181818;stroke-width:0.5;" width="108" x="493" y="620"/><polygon fill="#F1F1F1" points="584,625,584,639,596,639,596,631,590,625,584,625" style="stroke:#181818;stroke-width:0.5;"/><line style="stroke:#181818;stroke-width:0.5;" x1="590" x2="590" y1="625" y2="631"/><line style="stroke:#181818;stroke-width:0.5;" x1="596" x2="590" y1="631" y2="631"/><text fill="#000000" font-family="sans-serif" font-size="14" lengthAdjust="spacing" textLength="78" x="503" y="647.9659">MotorJuego</text></g><!--entity boardArt--><g id="elem_boardArt"><rect fill="#F1F1F1" height="42.0679" rx="2.5" ry="2.5" style="stroke:#181818;stroke-width:0.5;" width="125" x="354.5" y="874.5"/><polygon fill="#F1F1F1" points="462.5,879.5,462.5,893.5,474.5,893.5,474.5,885.5,468.5,879.5,462.5,879.5" style="stroke:#181818;stroke-width:0.5;"/><line style="stroke:#181818;stroke-width:0.5;" x1="468.5" x2="468.5" y1="879.5" y2="885.5"/><line style="stroke:#181818;stroke-width:0.5;" x1="474.5" x2="468.5" y1="885.5" y2="885.5"/><text fill="#000000" font-family="sans-serif" font-size="14" lengthAdjust="spacing" textLength="95" x="364.5" y="902.4659">GestorTablero</text></g><!--entity scoresArt--><g id="elem_scoresArt"><rect fill="#F1F1F1" height="42.0679" rx="2.5" ry="2.5" style="stroke:#181818;stroke-width:0.5;" width="173" x="514.5" y="874.5"/><polygon fill="#F1F1F1" points="670.5,879.5,670.5,893.5,682.5,893.5,682.5,885.5,676.5,879.5,670.5,879.5" style="stroke:#181818;stroke-width:0.5;"/><line style="stroke:#181818;stroke-width:0.5;" x1="676.5" x2="676.5" y1="879.5" y2="885.5"/><line style="stroke:#181818;stroke-width:0.5;" x1="682.5" x2="676.5" y1="885.5" y2="885.5"/><text fill="#000000" font-family="sans-serif" font-size="14" lengthAdjust="spacing" textLength="143" x="524.5" y="902.4659">ServicioPuntuaciones</text></g><!--entity dbArt--><g id="elem_dbArt"><rect fill="#F1F1F1" height="42.0679" rx="2.5" ry="2.5" style="stroke:#181818;stroke-width:0.5;" width="100" x="1043" y="874.5"/><polygon fill="#F1F1F1" points="1126,879.5,1126,893.5,1138,893.5,1138,885.5,1132,879.5,1126,879.5" style="stroke:#181818;stroke-width:0.5;"/><line style="stroke:#181818;stroke-width:0.5;" x1="1132" x2="1132" y1="879.5" y2="885.5"/><line style="stroke:#181818;stroke-width:0.5;" x1="1138" x2="1132" y1="885.5" y2="885.5"/><text fill="#000000" font-family="sans-serif" font-size="14" lengthAdjust="spacing" textLength="70" x="1053" y="902.4659">BaseDatos</text></g><!--entity staticFiles--><g id="elem_staticFiles"><rect fill="#F1F1F1" height="42.0679" rx="2.5" ry="2.5" style="stroke:#181818;stroke-width:0.5;" width="136" x="1086" y="343"/><polygon fill="#F1F1F1" points="1205,348,1205,362,1217,362,1217,354,1211,348,1205,348" style="stroke:#181818;stroke-width:0.5;"/><line style="stroke:#181818;stroke-width:0.5;" x1="1211" x2="1211" y1="348" y2="354"/><line style="stroke:#181818;stroke-width:0.5;" x1="1217" x2="1211" y1="354" y2="354"/><text fill="#000000" font-family="sans-serif" font-size="14" lengthAdjust="spacing" textLength="106" x="1096" y="370.9659">Assets Est&#225;ticos</text></g><!--entity jsBundle--><g id="elem_jsBundle"><rect fill="#F1F1F1" height="42.0679" rx="2.5" ry="2.5" style="stroke:#181818;stroke-width:0.5;" width="148" x="903" y="343"/><polygon fill="#F1F1F1" points="1034,348,1034,362,1046,362,1046,354,1040,348,1034,348" style="stroke:#181818;stroke-width:0.5;"/><line style="stroke:#181818;stroke-width:0.5;" x1="1040" x2="1040" y1="348" y2="354"/><line style="stroke:#181818;stroke-width:0.5;" x1="1046" x2="1040" y1="354" y2="354"/><text fill="#000000" font-family="sans-serif" font-size="14" lengthAdjust="spacing" textLength="118" x="913" y="370.9659">JavaScript Bundle</text></g><g id="elem_GMN7"><path d="M411,332.5 L411,395.618 L637,395.618 L637,342.5 L627,332.5 L411,332.5 " fill="#FEFFDD" style="stroke:#181818;stroke-width:0.5;"/><path d="M627,332.5 L627,342.5 L637,342.5 L627,332.5 " fill="#FEFFDD" style="stroke:#181818;stroke-width:1.0;"/><text fill="#000000" font-family="sans-serif" font-size="13" lengthAdjust="spacing" textLength="163" x="417" y="351.397">OS: Windows/macOS/Linux</text><text fill="#000000" font-family="sans-serif" font-size="13" lengthAdjust="spacing" textLength="65" x="417" y="369.103">RAM: 4GB+</text><text fill="#000000" font-family="sans-serif" font-size="13" lengthAdjust="spacing" textLength="205" x="417" y="386.809">Navegador: Chrome/Firefox/Safari</text></g><g id="elem_GMN16"><path d="M768.5,855 L768.5,935.8241 L923.5,935.8241 L923.5,865 L913.5,855 L768.5,855 " fill="#FEFFDD" style="stroke:#181818;stroke-width:0.5;"/><path d="M913.5,855 L913.5,865 L923.5,865 L913.5,855 " fill="#FEFFDD" style="stroke:#181818;stroke-width:1.0;"/><text fill="#000000" font-family="sans-serif" font-size="13" lengthAdjust="spacing" textLength="128" x="774.5" y="873.897">OS: Ubuntu 22.04 LTS</text><text fill="#000000" font-family="sans-serif" font-size="13" lengthAdjust="spacing" textLength="58" x="774.5" y="891.603">RAM: 8GB</text><text fill="#000000" font-family="sans-serif" font-size="13" lengthAdjust="spacing" textLength="74" x="774.5" y="909.309">CPU: 4 cores</text><text fill="#000000" font-family="sans-serif" font-size="13" lengthAdjust="spacing" textLength="75" x="774.5" y="927.0151">Puerto: 8080</text></g><g id="elem_GMN22"><path d="M863,1019.5 L863,1100.3241 L1055,1100.3241 L1055,1029.5 L1045,1019.5 L863,1019.5 " fill="#FEFFDD" style="stroke:#181818;stroke-width:0.5;"/><path d="M1045,1019.5 L1045,1029.5 L1055,1029.5 L1045,1019.5 " fill="#FEFFDD" style="stroke:#181818;stroke-width:1.0;"/><text fill="#000000" font-family="sans-serif" font-size="13" lengthAdjust="spacing" textLength="128" x="869" y="1038.397">OS: Ubuntu 22.04 LTS</text><text fill="#000000" font-family="sans-serif" font-size="13" lengthAdjust="spacing" textLength="65" x="869" y="1056.103">RAM: 16GB</text><text fill="#000000" font-family="sans-serif" font-size="13" lengthAdjust="spacing" textLength="171" x="869" y="1073.809">Almacenamiento: SSD 500GB</text><text fill="#000000" font-family="sans-serif" font-size="13" lengthAdjust="spacing" textLength="75" x="869" y="1091.5151">Puerto: 5432</text></g><g id="elem_GMN29"><path d="M824.5,600.5 L824.5,681.3241 L973.5,681.3241 L973.5,610.5 L963.5,600.5 L824.5,600.5 " fill="#FEFFDD" style="stroke:#181818;stroke-width:0.5;"/><path d="M963.5,600.5 L963.5,610.5 L973.5,610.5 L963.5,600.5 " fill="#FEFFDD" style="stroke:#181818;stroke-width:1.0;"/><text fill="#000000" font-family="sans-serif" font-size="13" lengthAdjust="spacing" textLength="128" x="830.5" y="619.397">OS: Ubuntu 22.04 LTS</text><text fill="#000000" font-family="sans-serif" font-size="13" lengthAdjust="spacing" textLength="58" x="830.5" y="637.103">RAM: 4GB</text><text fill="#000000" font-family="sans-serif" font-size="13" lengthAdjust="spacing" textLength="123" x="830.5" y="654.809">Ancho banda: 1Gbps</text><text fill="#000000" font-family="sans-serif" font-size="13" lengthAdjust="spacing" textLength="68" x="830.5" y="672.5151">Puerto: 443</text></g><!--link usernode to GMN7--><g id="link_usernode_GMN7"><path d="M387.0344,142.9089 C387.1395,143.0778 387.2454,143.2481 387.3523,143.4198 C387.7798,144.1068 388.2216,144.817 388.6774,145.5495 C390.5005,148.4794 392.5463,151.7669 394.7838,155.3625 C403.7338,169.745 415.7525,189.0575 428.87,210.135 C455.105,252.29 485.735,301.505 505,332.46 " fill="none" id="usernode-GMN7" style="stroke:#181818;stroke-width:1.0;stroke-dasharray:7.0,7.0;"/></g><!--link appServer to GMN16--><g id="link_appServer_GMN16"><path d="M744.1826,660.7897 C744.2713,660.9932 744.3605,661.198 744.4504,661.4043 C745.1692,663.0544 745.9271,664.794 746.7211,666.6167 C753.0734,681.1984 761.7444,701.1019 771.3338,723.1138 C790.5125,767.1375 813.365,819.595 828.69,854.78 " fill="none" id="appServer-GMN16" style="stroke:#181818;stroke-width:1.0;stroke-dasharray:7.0,7.0;"/></g><!--link dbServer to GMN22--><g id="link_dbServer_GMN22"><path d="M959,964.8955 C959,965.103 959,965.3107 959,965.5185 C959,967.1807 959,968.85 959,970.5233 C959,973.8701 959,977.2333 959,980.59 C959,994.0169 959,1007.34 959,1019.09 " fill="none" id="dbServer-GMN22" style="stroke:#181818;stroke-width:1.0;stroke-dasharray:7.0,7.0;"/></g><!--link cdnServer to GMN29--><g id="link_cdnServer_GMN29"><path d="M872.2752,433.4083 C872.3105,433.5701 872.3457,433.7319 872.3809,433.8938 C872.9441,436.483 873.4955,439.0782 874.0302,441.6662 C875.0997,446.842 876.1025,451.9888 877,457 C885.77,505.98 892,562.98 895.55,600.18 " fill="none" id="cdnServer-GMN29" style="stroke:#181818;stroke-width:1.0;stroke-dasharray:7.0,7.0;"/></g><!--link usernode to cdnServer--><g id="link_usernode_cdnServer"><path d="M387.72,130.3801 C387.9653,130.3918 388.2154,130.4037 388.4704,130.4158 C388.9803,130.4402 389.5094,130.4657 390.0574,130.4925 C392.2497,130.5993 394.7445,130.7251 397.5208,130.8713 C408.6259,131.4563 424.2344,132.3684 442.9912,133.7063 C480.505,136.3819 530.6125,140.76 582.475,147.6275 C686.2,161.3625 796.945,185.055 828,225 C832.72,231.0713 836.6872,237.7378 840.0154,244.7613 C841.6795,248.273 843.1838,251.874 844.5426,255.5343 C845.222,257.3645 845.8651,259.2096 846.4735,261.0657 C846.6256,261.5298 844.9593,256.276 845.1071,256.7414 " fill="none" id="usernode-to-cdnServer" style="stroke:#0000FF;stroke-width:1.0;"/><polygon fill="#0000FF" points="846.9233,262.4599,848.0113,252.6713,845.4098,257.6945,840.3866,255.093,846.9233,262.4599" style="stroke:#0000FF;stroke-width:1.0;"/><text fill="#000000" font-family="sans-serif" font-size="13" lengthAdjust="spacing" textLength="39" x="845" y="194.897">HTTPS</text><text fill="#000000" font-family="sans-serif" font-size="13" lengthAdjust="spacing" textLength="91" x="819" y="212.603">Descarga inicial</text></g><!--link usernode to appServer--><g id="link_usernode_appServer"><path d="M387.1488,130.0633 C387.8033,130.0765 388.4943,130.0921 389.2207,130.1105 C395.032,130.2572 403.1102,130.5782 412.9028,131.2664 C432.4881,132.6428 458.9313,135.4881 487.8125,141.3462 C545.575,153.0625 613.09,176.83 655,225 C685.595,260.165 705.77,362.575 718.3338,456.8563 C719.9042,468.6414 721.3558,480.2996 722.6939,491.6835 C723.3629,497.3754 724.0036,502.9988 724.6166,508.5353 C724.9231,511.3035 724.5812,508.0844 724.874,510.8068 " fill="none" id="usernode-to-appServer" style="stroke:#008000;stroke-width:1.0;"/><polygon fill="#008000" points="725.5155,516.7724,728.5303,507.3963,724.9809,511.8011,720.5761,508.2517,725.5155,516.7724" style="stroke:#008000;stroke-width:1.0;"/><text fill="#000000" font-family="sans-serif" font-size="13" lengthAdjust="spacing" textLength="111" x="717" y="360.397">HTTPS/WebSocket</text><text fill="#000000" font-family="sans-serif" font-size="13" lengthAdjust="spacing" textLength="48" x="748.5" y="378.103">API calls</text></g><!--link appServer to dbServer--><g id="link_appServer_dbServer"><path d="M744.0592,646.4836 C744.2246,646.5757 744.3924,646.6691 744.5624,646.7638 C745.2426,647.1425 745.9593,647.5415 746.7109,647.9599 C752.724,651.3077 760.9761,655.9023 770.7059,661.3208 C790.1656,672.1578 815.5363,686.2906 840.7275,700.3363 C891.11,728.4275 940.775,756.17 941,756.5 C943.135,759.65 945.0754,762.9348 946.8371,766.3258 C947.718,768.0213 948.5542,769.7434 949.3477,771.4885 C949.7444,772.361 950.1305,773.2393 950.5061,774.1229 C950.6,774.3438 948.3793,769.0292 948.4719,769.2507 " fill="none" id="appServer-to-dbServer" style="stroke:#FF0000;stroke-width:1.0;"/><polygon fill="#FF0000" points="950.7859,774.7866,951.0054,764.9402,948.8576,770.1734,943.6243,768.0255,950.7859,774.7866" style="stroke:#FF0000;stroke-width:1.0;"/><text fill="#000000" font-family="sans-serif" font-size="13" lengthAdjust="spacing" textLength="40" x="969.5" y="726.397">TCP/IP</text><text fill="#000000" font-family="sans-serif" font-size="13" lengthAdjust="spacing" textLength="125" x="927" y="744.103">PostgreSQL protocol</text></g><!--link cdnServer to appServer--><g id="link_cdnServer_appServer"><path d="M846.8525,420.8449 C846.8001,420.9845 846.7473,421.1241 846.6942,421.2635 C846.4819,421.8214 846.2643,422.3775 846.0413,422.9316 C845.5953,424.0398 845.1277,425.1399 844.6375,426.2294 C840.7156,434.945 835.345,442.9775 828,449 C803.79,468.85 780.21,434.92 758,457 C743.7025,471.2125 735.11,489.5125 730.2803,509.0275 C729.6766,511.4669 729.1317,513.9252 728.6418,516.397 C728.5805,516.7059 729.6538,511.1232 729.5943,511.4326 " fill="none" id="cdnServer-to-appServer" style="stroke:#FFA500;stroke-width:1.0;"/><polygon fill="#FFA500" points="728.4606,517.3245,734.0891,509.2424,729.4054,512.4145,726.2332,507.7308,728.4606,517.3245" style="stroke:#FFA500;stroke-width:1.0;"/><text fill="#000000" font-family="sans-serif" font-size="13" lengthAdjust="spacing" textLength="32" x="797.5" y="471.897">HTTP</text><text fill="#000000" font-family="sans-serif" font-size="13" lengthAdjust="spacing" textLength="109" x="759" y="489.603">Cache invalidation</text></g><!--SRC=[VLHDSzCm4BtxL-oO0mS64jgKwUJ0Z9FGa4u_J9rC3uJ3Mjwa0aVoI7B8bEcFuRVmnrZ9QHBgbfiblRUxx-skbIu8uf6qbRRIoRM6cQtHI1q3MgWj6UKHloA0y15VuPgMM6W3jvG7K6xqJyO5300Q9nSe7CHJSaRQsQI991FZdW26MZcZIn_ilAPbar8qboKP9W0yeToGAiZ8Uyz99TsZ3IGJhWE52G_HGnGfxGXoxPnUWLxibFJXEkl3hLG55zrPeRZEEXTIrPkvkaak-z0R3zxCrKva7uPtHg-eSoODBVIca-62tV7XlHaPcRNqNYHLAGKAgHKr5M5L-SUjBGqwgL3S4KprIg0BA1S-MyubwUI6hDi6UiQvI-qEFIErb8hQi347qMQAERlP87EDfcW3WmwkFgsLgmzbMA4DsPTjtUjiZ9tbFW8S7Rthzk1YcW5iVJqT3-PgcCxOOGWnvogjoJZDJztJRilG0Lg24JhTr57aBJTJRTtIKFRb0fgt0AoQMzlor0SyZFUofiTSpolQwdd_mGjAIfuWKhYIfBoKB1l1IRVhdnxLdVIEZrhgXgEhPjWBrT9rnRtSx10gd5e3OYqv2v-i-_FRIR4LPHtouKoMP9_Wpt6DcJ2oSZ2eLL5Im7-tpU457tR5_TS8NXZVv4I9EmqvgWBPd75U7JIurpkEejV0wqwRC5h0EWqLqUxtylRhgxoiwTlRZmUMz27-F9scd6X4Lg1P8aZ5Kufb_0-JsqtAK_SxzqZjy3ygq-87EQumdO30ihHnj0SodGlnvDs4CNSwJ3kJb0NiHwmol792S-fzWKpM1jMIdatEunxMNQerbhBWrcWLHty1]--></g></svg>