<?xml version="1.0" encoding="us-ascii" standalone="no"?><svg xmlns="http://www.w3.org/2000/svg" xmlns:xlink="http://www.w3.org/1999/xlink" contentStyleType="text/css" height="301px" preserveAspectRatio="none" style="width:436px;height:301px;background:#FFFFFF;" version="1.1" viewBox="0 0 436 301" width="436px" zoomAndPan="magnify"><defs/><g><!--cluster PC Usuario--><g id="cluster_PC Usuario"><polygon fill="none" points="16,16,26,6,419,6,419,274,409,284,16,284,16,16" style="stroke:#181818;stroke-width:1.0;"/><line style="stroke:#181818;stroke-width:1.0;" x1="409" x2="419" y1="16" y2="6"/><line style="stroke:#181818;stroke-width:1.0;" x1="16" x2="409" y1="16" y2="16"/><line style="stroke:#181818;stroke-width:1.0;" x1="409" x2="409" y1="16" y2="284"/><text fill="#000000" font-family="sans-serif" font-size="14" font-weight="bold" lengthAdjust="spacing" textLength="76" x="175.5" y="33.9659">PC Usuario</text></g><!--cluster Windows 10--><g id="cluster_Windows 10"><polygon fill="none" points="40,67,50,57,395,57,395,250,385,260,40,260,40,67" style="stroke:#181818;stroke-width:1.0;"/><line style="stroke:#181818;stroke-width:1.0;" x1="385" x2="395" y1="67" y2="57"/><line style="stroke:#181818;stroke-width:1.0;" x1="40" x2="385" y1="67" y2="67"/><line style="stroke:#181818;stroke-width:1.0;" x1="385" x2="385" y1="67" y2="260"/><text fill="#000000" font-family="sans-serif" font-size="14" font-weight="bold" lengthAdjust="spacing" textLength="84" x="171.5" y="84.9659">Windows 10</text></g><!--entity Tetris.exe--><g id="elem_Tetris.exe"><rect fill="#F1F1F1" height="42.0679" rx="2.5" ry="2.5" style="stroke:#181818;stroke-width:0.5;" width="95" x="82.5" y="100"/><polygon fill="#F1F1F1" points="160.5,105,160.5,119,172.5,119,172.5,111,166.5,105,160.5,105" style="stroke:#181818;stroke-width:0.5;"/><line style="stroke:#181818;stroke-width:0.5;" x1="166.5" x2="166.5" y1="105" y2="111"/><line style="stroke:#181818;stroke-width:0.5;" x1="172.5" x2="166.5" y1="111" y2="111"/><text fill="#000000" font-family="sans-serif" font-size="14" lengthAdjust="spacing" textLength="65" x="92.5" y="127.9659">Tetris.exe</text></g><!--entity config.ini--><g id="elem_config.ini"><rect fill="#F1F1F1" height="42.0679" rx="2.5" ry="2.5" style="stroke:#181818;stroke-width:0.5;" width="93" x="212.5" y="100"/><polygon fill="#F1F1F1" points="288.5,105,288.5,119,300.5,119,300.5,111,294.5,105,288.5,105" style="stroke:#181818;stroke-width:0.5;"/><line style="stroke:#181818;stroke-width:0.5;" x1="294.5" x2="294.5" y1="105" y2="111"/><line style="stroke:#181818;stroke-width:0.5;" x1="300.5" x2="294.5" y1="111" y2="111"/><text fill="#000000" font-family="sans-serif" font-size="14" lengthAdjust="spacing" textLength="63" x="222.5" y="127.9659">config.ini</text></g><!--entity puntuaciones.dat--><g id="elem_puntuaciones.dat"><rect fill="#F1F1F1" height="42.0679" rx="2.5" ry="2.5" style="stroke:#181818;stroke-width:0.5;" width="148" x="56" y="202"/><polygon fill="#F1F1F1" points="187,207,187,221,199,221,199,213,193,207,187,207" style="stroke:#181818;stroke-width:0.5;"/><line style="stroke:#181818;stroke-width:0.5;" x1="193" x2="193" y1="207" y2="213"/><line style="stroke:#181818;stroke-width:0.5;" x1="199" x2="193" y1="213" y2="213"/><text fill="#000000" font-family="sans-serif" font-size="14" lengthAdjust="spacing" textLength="118" x="66" y="229.9659">puntuaciones.dat</text></g><!--entity DirectX Runtime--><g id="elem_DirectX Runtime"><rect fill="#F1F1F1" height="42.0679" rx="2.5" ry="2.5" style="stroke:#181818;stroke-width:0.5;" width="139" x="239.5" y="202"/><polygon fill="#F1F1F1" points="361.5,207,361.5,221,373.5,221,373.5,213,367.5,207,361.5,207" style="stroke:#181818;stroke-width:0.5;"/><line style="stroke:#181818;stroke-width:0.5;" x1="367.5" x2="367.5" y1="207" y2="213"/><line style="stroke:#181818;stroke-width:0.5;" x1="373.5" x2="367.5" y1="213" y2="213"/><text fill="#000000" font-family="sans-serif" font-size="14" lengthAdjust="spacing" textLength="109" x="249.5" y="229.9659">DirectX Runtime</text></g><!--SRC=[NOn12W8n34NtSufF3b3q37e04KMteSr85YRIfYWCStTbt7Nxtd_Vl0ZeTC2rTQxgX6K2RACtjUBlXltkJm6keJFd05qaghOa7w71PBTP7qbD2ODwTOlEMTsafS8nfaUjakEEys-dp-rvdTOl]--></g></svg>