<?xml version="1.0" encoding="us-ascii" standalone="no"?><svg xmlns="http://www.w3.org/2000/svg" xmlns:xlink="http://www.w3.org/1999/xlink" contentStyleType="text/css" height="337px" preserveAspectRatio="none" style="width:713px;height:337px;background:#FFFFFF;" version="1.1" viewBox="0 0 713 337" width="713px" zoomAndPan="magnify"><defs/><g><g id="elem_Todo"><rect fill="#F1F1F1" height="39.0679" style="stroke:#181818;stroke-width:0.5;" width="51" x="200.5" y="7"/><text fill="#000000" font-family="sans-serif" font-size="14" lengthAdjust="spacing" textLength="37" x="207.5" y="23.9659">:Todo</text><line style="stroke:#181818;stroke-width:0.5;" x1="201.5" x2="250.5" y1="30.0679" y2="30.0679"/></g><g id="elem_AgregadoAferente"><rect fill="#F1F1F1" height="39.0679" style="stroke:#181818;stroke-width:0.5;" width="142" x="287" y="7"/><text fill="#000000" font-family="sans-serif" font-size="14" lengthAdjust="spacing" textLength="128" x="294" y="23.9659">:AgregadoAferente</text><line style="stroke:#181818;stroke-width:0.5;" x1="288" x2="428" y1="30.0679" y2="30.0679"/></g><g id="elem_UsadoAferente"><rect fill="#F1F1F1" height="39.0679" style="stroke:#181818;stroke-width:0.5;" width="118" x="464" y="7"/><text fill="#000000" font-family="sans-serif" font-size="14" lengthAdjust="spacing" textLength="104" x="471" y="23.9659">:UsadoAferente</text><line style="stroke:#181818;stroke-width:0.5;" x1="465" x2="581" y1="30.0679" y2="30.0679"/></g><g id="elem_AsociadoAferente"><rect fill="#F1F1F1" height="39.0679" style="stroke:#181818;stroke-width:0.5;" width="136" x="7" y="149.5"/><text fill="#000000" font-family="sans-serif" font-size="14" lengthAdjust="spacing" textLength="122" x="14" y="166.4659">:AsociadoAferente</text><line style="stroke:#181818;stroke-width:0.5;" x1="8" x2="142" y1="172.5679" y2="172.5679"/></g><g id="elem_Clase"><rect fill="#F1F1F1" height="88.2717" style="stroke:#181818;stroke-width:0.5;" width="232" x="242" y="125"/><text fill="#000000" font-family="sans-serif" font-size="14" lengthAdjust="spacing" textLength="128" x="294" y="141.9659">loQueDesees:Clase</text><line style="stroke:#181818;stroke-width:0.5;" x1="243" x2="473" y1="148.0679" y2="148.0679"/><rect fill="none" height="6" style="stroke:#C82930;stroke-width:1.0;" width="6" x="250" y="160.1019"/><text fill="#000000" font-family="sans-serif" font-size="14" lengthAdjust="spacing" textLength="136" x="262" y="167.0339">atributoPrivado = 13</text><polygon fill="none" points="253,177.1698,257,181.1698,253,185.1698,249,181.1698" style="stroke:#B38D22;stroke-width:1.0;"/><text fill="#000000" font-family="sans-serif" font-size="14" lengthAdjust="spacing" textLength="206" x="262" y="186.1018">atributoProtegido = "es primo"</text><ellipse cx="253" cy="201.2377" fill="none" rx="3" ry="3" style="stroke:#038048;stroke-width:1.0;"/><text fill="#000000" font-family="sans-serif" font-size="14" lengthAdjust="spacing" textLength="147" x="262" y="205.1697">atributoPublico = true</text></g><g id="elem_AsociadoEferente"><rect fill="#F1F1F1" height="39.0679" style="stroke:#181818;stroke-width:0.5;" width="135" x="572.5" y="149.5"/><text fill="#000000" font-family="sans-serif" font-size="14" lengthAdjust="spacing" textLength="121" x="579.5" y="166.4659">:AsociadoEferente</text><line style="stroke:#181818;stroke-width:0.5;" x1="573.5" x2="706.5" y1="172.5679" y2="172.5679"/></g><g id="elem_Derivada"><rect fill="#F1F1F1" height="39.0679" style="stroke:#181818;stroke-width:0.5;" width="78" x="616" y="292"/><text fill="#000000" font-family="sans-serif" font-size="14" lengthAdjust="spacing" textLength="64" x="623" y="308.9659">:Derivada</text><line style="stroke:#181818;stroke-width:0.5;" x1="617" x2="693" y1="315.0679" y2="315.0679"/></g><g id="elem_Parte"><rect fill="#F1F1F1" height="39.0679" style="stroke:#181818;stroke-width:0.5;" width="53" x="199.5" y="292"/><text fill="#000000" font-family="sans-serif" font-size="14" lengthAdjust="spacing" textLength="39" x="206.5" y="308.9659">:Parte</text><line style="stroke:#181818;stroke-width:0.5;" x1="200.5" x2="251.5" y1="315.0679" y2="315.0679"/></g><g id="elem_AgregadoEferente"><rect fill="#F1F1F1" height="39.0679" style="stroke:#181818;stroke-width:0.5;" width="141" x="287.5" y="292"/><text fill="#000000" font-family="sans-serif" font-size="14" lengthAdjust="spacing" textLength="127" x="294.5" y="308.9659">:AgregadoEferente</text><line style="stroke:#181818;stroke-width:0.5;" x1="288.5" x2="427.5" y1="315.0679" y2="315.0679"/></g><g id="elem_UsadoEferente"><rect fill="#F1F1F1" height="39.0679" style="stroke:#181818;stroke-width:0.5;" width="117" x="463.5" y="292"/><text fill="#000000" font-family="sans-serif" font-size="14" lengthAdjust="spacing" textLength="103" x="470.5" y="308.9659">:UsadoEferente</text><line style="stroke:#181818;stroke-width:0.5;" x1="464.5" x2="579.5" y1="315.0679" y2="315.0679"/></g><!--link Todo to Clase--><g id="link_Todo_Clase"><path codeLine="25" d="M243.128,56.479 C251.758,70.599 258.34,79.82 272,95 C281.3,105.34 287.5479,111.6051 298.2379,120.9751 " fill="none" id="Todo-Clase" style="stroke:#181818;stroke-width:1.0;"/><polygon fill="#181818" points="236.87,46.24,236.586,53.4455,243.128,56.479,243.412,49.2735,236.87,46.24" style="stroke:#181818;stroke-width:1.0;"/><polygon fill="#181818" points="302.75,124.93,298.6185,115.9896,298.99,121.6342,293.3453,122.0057,302.75,124.93" style="stroke:#181818;stroke-width:1.0;"/><text fill="#000000" font-family="sans-serif" font-size="13" lengthAdjust="spacing" textLength="76" x="273" y="90.897">composicion</text></g><!--link Clase to Parte--><g id="link_Clase_Parte"><path codeLine="26" d="M293.7259,220.9798 C283.0359,230.3498 281.3,232.66 272,243 C258.34,258.18 248.629,272.5205 239.999,286.6405 " fill="none" id="Clase-Parte" style="stroke:#181818;stroke-width:1.0;"/><polygon fill="#181818" points="302.75,213.07,295.6013,214.0169,293.7259,220.9798,300.8745,220.033,302.75,213.07" style="stroke:#181818;stroke-width:1.0;"/><polygon fill="#181818" points="236.87,291.76,244.9765,286.1667,239.4775,287.4937,238.1505,281.9947,236.87,291.76" style="stroke:#181818;stroke-width:1.0;"/><text fill="#000000" font-family="sans-serif" font-size="13" lengthAdjust="spacing" textLength="76" x="273" y="257.897">composicion</text></g><!--link UsadoAferente to Clase--><g id="link_UsadoAferente_Clase"><path codeLine="28" d="M501.09,46.16 C477.6,66.16 444.0582,94.7201 413.0782,121.1001 " fill="none" id="UsadoAferente-to-Clase" style="stroke:#181818;stroke-width:1.0;stroke-dasharray:7.0,7.0;"/><polygon fill="#181818" points="408.51,124.99,417.9556,122.2006,412.3168,121.7484,412.769,116.1097,408.51,124.99" style="stroke:#181818;stroke-width:1.0;"/><text fill="#000000" font-family="sans-serif" font-size="13" lengthAdjust="spacing" textLength="22" x="465" y="90.897">uso</text></g><!--link AgregadoAferente to Clase--><g id="link_AgregadoAferente_Clase"><path codeLine="29" d="M358,58.16 C358,78.16 358,92.61 358,118.99 " fill="none" id="AgregadoAferente-Clase" style="stroke:#181818;stroke-width:1.0;"/><polygon fill="none" points="358,46.16,354,52.16,358,58.16,362,52.16,358,46.16" style="stroke:#181818;stroke-width:1.0;"/><polygon fill="#181818" points="358,124.99,362,115.99,358,119.99,354,115.99,358,124.99" style="stroke:#181818;stroke-width:1.0;"/><text fill="#000000" font-family="sans-serif" font-size="13" lengthAdjust="spacing" textLength="67" x="359" y="90.897">agregacion</text></g><!--link Clase to AgregadoEferente--><g id="link_Clase_AgregadoEferente"><path codeLine="30" d="M358,225.3 C358,251.59 358,265.8 358,285.74 " fill="none" id="Clase-AgregadoEferente" style="stroke:#181818;stroke-width:1.0;"/><polygon fill="none" points="358,213.3,354,219.3,358,225.3,362,219.3,358,213.3" style="stroke:#181818;stroke-width:1.0;"/><polygon fill="#181818" points="358,291.74,362,282.74,358,286.74,354,282.74,358,291.74" style="stroke:#181818;stroke-width:1.0;"/><text fill="#000000" font-family="sans-serif" font-size="13" lengthAdjust="spacing" textLength="67" x="359" y="257.897">agregacion</text></g><!--link Clase to UsadoEferente--><g id="link_Clase_UsadoEferente"><path codeLine="31" d="M408.54,213.3 C439.23,239.59 472.2731,267.8969 495.5531,287.8369 " fill="none" id="Clase-to-UsadoEferente" style="stroke:#181818;stroke-width:1.0;stroke-dasharray:7.0,7.0;"/><polygon fill="#181818" points="500.11,291.74,495.8767,282.8473,496.3126,288.4874,490.6725,288.9232,500.11,291.74" style="stroke:#181818;stroke-width:1.0;"/><text fill="#000000" font-family="sans-serif" font-size="13" lengthAdjust="spacing" textLength="22" x="465" y="257.897">uso</text></g><!--link AsociadoAferente to Clase--><g id="link_AsociadoAferente_Clase"><path codeLine="33" d="M143.15,169 C172.75,169 202.27,169 235.83,169 " fill="none" id="AsociadoAferente-to-Clase" style="stroke:#181818;stroke-width:1.0;"/><polygon fill="#181818" points="241.83,169,232.83,165,236.83,169,232.83,173,241.83,169" style="stroke:#181818;stroke-width:1.0;"/><text fill="#000000" font-family="sans-serif" font-size="13" lengthAdjust="spacing" textLength="62" x="161.5" y="161.897">asociacion</text></g><!--link Clase to AsociadoEferente--><g id="link_Clase_AsociadoEferente"><path codeLine="34" d="M474.33,169 C507.71,169 536.99,169 566.38,169 " fill="none" id="Clase-to-AsociadoEferente" style="stroke:#181818;stroke-width:1.0;"/><polygon fill="#181818" points="572.38,169,563.38,165,567.38,169,563.38,173,572.38,169" style="stroke:#181818;stroke-width:1.0;"/><text fill="#000000" font-family="sans-serif" font-size="13" lengthAdjust="spacing" textLength="62" x="492.25" y="161.897">asociacion</text></g><!--SRC=[XP9DQiCm48NtEiNWxbeSADqPMZ2Dzmca1v3bgQBYU88afulIkpTI7El7XkxacK_ptlZ9aaHxH0q_ZDel51QAwa0T5S0Dk4CerrAZv1tLdwXniEYHl1Zm3vEpIONzCcPNn6j3GYrKikACzxGVSOi6qLJlFJStt9-kGqlWLgjsjBJJwdAz3w_m_C8UeZ9PbCet2ZHmrkf41NiAmDZsIhYsrQFplF3PhFbi_bboYzuFzvVk7w6zuteQw4_B29gr29hr29f51B4x5p4ybXrz3-NRzECg47Gwar52qS1kjHdnZZA49Sd2ng6RC6qqnF9t0fHeLi0z42dEGBxV2djNJDQRb5d-UA3KIXvjj2xtH3Hl9l904_WF]--></g></svg>