<?xml version="1.0" encoding="us-ascii" standalone="no"?><svg xmlns="http://www.w3.org/2000/svg" xmlns:xlink="http://www.w3.org/1999/xlink" contentStyleType="text/css" height="789px" preserveAspectRatio="none" style="width:891px;height:789px;background:#FFFFFF;" version="1.1" viewBox="0 0 891 789" width="891px" zoomAndPan="magnify"><defs/><g><g id="elem_juego"><rect fill="#F1F1F1" height="88.2717" style="stroke:#181818;stroke-width:0.5;" width="124" x="504" y="7"/><text fill="#000000" font-family="sans-serif" font-size="14" lengthAdjust="spacing" textLength="99" x="516.5" y="23.9659">partida1:Juego</text><line style="stroke:#181818;stroke-width:0.5;" x1="505" x2="627" y1="30.0679" y2="30.0679"/><text fill="#000000" font-family="sans-serif" font-size="14" lengthAdjust="spacing" textLength="95" x="510" y="49.0339">puntos = 1500</text><text fill="#000000" font-family="sans-serif" font-size="14" lengthAdjust="spacing" textLength="56" x="510" y="68.1018">nivel = 3</text><text fill="#000000" font-family="sans-serif" font-size="14" lengthAdjust="spacing" textLength="112" x="510" y="87.1697">estado = "activo"</text></g><g id="elem_tablero"><rect fill="#F1F1F1" height="88.2717" style="stroke:#181818;stroke-width:0.5;" width="147" x="307.5" y="174"/><text fill="#000000" font-family="sans-serif" font-size="14" lengthAdjust="spacing" textLength="111" x="325.5" y="190.9659">tablero1:Tablero</text><line style="stroke:#181818;stroke-width:0.5;" x1="308.5" x2="453.5" y1="197.0679" y2="197.0679"/><text fill="#000000" font-family="sans-serif" font-size="14" lengthAdjust="spacing" textLength="60" x="313.5" y="216.0339">filas = 20</text><text fill="#000000" font-family="sans-serif" font-size="14" lengthAdjust="spacing" textLength="97" x="313.5" y="235.1018">columnas = 10</text><text fill="#000000" font-family="sans-serif" font-size="14" lengthAdjust="spacing" textLength="135" x="313.5" y="254.1697">lineasCompletas = 5</text></g><g id="elem_turno"><rect fill="#F1F1F1" height="69.2038" style="stroke:#181818;stroke-width:0.5;" width="154" x="494" y="183.5"/><text fill="#000000" font-family="sans-serif" font-size="14" lengthAdjust="spacing" textLength="89" x="526.5" y="200.4659">turno7:Turno</text><line style="stroke:#181818;stroke-width:0.5;" x1="495" x2="647" y1="206.5679" y2="206.5679"/><text fill="#000000" font-family="sans-serif" font-size="14" lengthAdjust="spacing" textLength="77" x="500" y="225.5339">numero = 7</text><text fill="#000000" font-family="sans-serif" font-size="14" lengthAdjust="spacing" textLength="142" x="500" y="244.6018">tiempoRestante = 2.3</text></g><g id="elem_linea1"><rect fill="#F1F1F1" height="88.2717" style="stroke:#181818;stroke-width:0.5;" width="147" x="125.5" y="341"/><text fill="#000000" font-family="sans-serif" font-size="14" lengthAdjust="spacing" textLength="124" x="137" y="357.9659">lineaInferior:Linea</text><line style="stroke:#181818;stroke-width:0.5;" x1="126.5" x2="271.5" y1="364.0679" y2="364.0679"/><text fill="#000000" font-family="sans-serif" font-size="14" lengthAdjust="spacing" textLength="85" x="131.5" y="383.0339">numero = 19</text><text fill="#000000" font-family="sans-serif" font-size="14" lengthAdjust="spacing" textLength="110" x="131.5" y="402.1018">completa = false</text><text fill="#000000" font-family="sans-serif" font-size="14" lengthAdjust="spacing" textLength="135" x="131.5" y="421.1697">celdasOcupadas = 7</text></g><g id="elem_linea2"><rect fill="#F1F1F1" height="88.2717" style="stroke:#181818;stroke-width:0.5;" width="147" x="307.5" y="341"/><text fill="#000000" font-family="sans-serif" font-size="14" lengthAdjust="spacing" textLength="115" x="323.5" y="357.9659">lineaMedia:Linea</text><line style="stroke:#181818;stroke-width:0.5;" x1="308.5" x2="453.5" y1="364.0679" y2="364.0679"/><text fill="#000000" font-family="sans-serif" font-size="14" lengthAdjust="spacing" textLength="85" x="313.5" y="383.0339">numero = 10</text><text fill="#000000" font-family="sans-serif" font-size="14" lengthAdjust="spacing" textLength="110" x="313.5" y="402.1018">completa = false</text><text fill="#000000" font-family="sans-serif" font-size="14" lengthAdjust="spacing" textLength="135" x="313.5" y="421.1697">celdasOcupadas = 3</text></g><g id="elem_pieza"><rect fill="#F1F1F1" height="107.3396" style="stroke:#181818;stroke-width:0.5;" width="131" x="624.5" y="508"/><text fill="#000000" font-family="sans-serif" font-size="14" lengthAdjust="spacing" textLength="117" x="631.5" y="524.9659">piezaActual:Pieza</text><line style="stroke:#181818;stroke-width:0.5;" x1="625.5" x2="754.5" y1="531.0679" y2="531.0679"/><text fill="#000000" font-family="sans-serif" font-size="14" lengthAdjust="spacing" textLength="88" x="630.5" y="550.0339">posicionX = 5</text><text fill="#000000" font-family="sans-serif" font-size="14" lengthAdjust="spacing" textLength="88" x="630.5" y="569.1018">posicionY = 2</text><text fill="#000000" font-family="sans-serif" font-size="14" lengthAdjust="spacing" textLength="87" x="630.5" y="588.1697">rotacion = 90</text><text fill="#000000" font-family="sans-serif" font-size="14" lengthAdjust="spacing" textLength="83" x="630.5" y="607.2376">activa = true</text></g><g id="elem_movimiento"><rect fill="#F1F1F1" height="88.2717" style="stroke:#181818;stroke-width:0.5;" width="184" x="490" y="341"/><text fill="#000000" font-family="sans-serif" font-size="14" lengthAdjust="spacing" textLength="170" x="497" y="357.9659">movimiento3:Movimiento</text><line style="stroke:#181818;stroke-width:0.5;" x1="491" x2="673" y1="364.0679" y2="364.0679"/><text fill="#000000" font-family="sans-serif" font-size="14" lengthAdjust="spacing" textLength="109" x="496" y="383.0339">tipo = "rotacion"</text><text fill="#000000" font-family="sans-serif" font-size="14" lengthAdjust="spacing" textLength="84" x="496" y="402.1018">valido = true</text><text fill="#000000" font-family="sans-serif" font-size="14" lengthAdjust="spacing" textLength="110" x="496" y="421.1697">ejecutado = true</text></g><g id="elem_celda1"><rect fill="#F1F1F1" height="107.3396" style="stroke:#181818;stroke-width:0.5;" width="114" x="7" y="508"/><text fill="#000000" font-family="sans-serif" font-size="14" lengthAdjust="spacing" textLength="86" x="21" y="524.9659">celda1:Celda</text><line style="stroke:#181818;stroke-width:0.5;" x1="8" x2="120" y1="531.0679" y2="531.0679"/><text fill="#000000" font-family="sans-serif" font-size="14" lengthAdjust="spacing" textLength="53" x="13" y="550.0339">fila = 19</text><text fill="#000000" font-family="sans-serif" font-size="14" lengthAdjust="spacing" textLength="82" x="13" y="569.1018">columna = 0</text><text fill="#000000" font-family="sans-serif" font-size="14" lengthAdjust="spacing" textLength="102" x="13" y="588.1697">ocupada = true</text><text fill="#000000" font-family="sans-serif" font-size="14" lengthAdjust="spacing" textLength="89" x="13" y="607.2376">color = "azul"</text></g><g id="elem_celda2"><rect fill="#F1F1F1" height="107.3396" style="stroke:#181818;stroke-width:0.5;" width="118" x="156" y="508"/><text fill="#000000" font-family="sans-serif" font-size="14" lengthAdjust="spacing" textLength="86" x="172" y="524.9659">celda2:Celda</text><line style="stroke:#181818;stroke-width:0.5;" x1="157" x2="273" y1="531.0679" y2="531.0679"/><text fill="#000000" font-family="sans-serif" font-size="14" lengthAdjust="spacing" textLength="53" x="162" y="550.0339">fila = 19</text><text fill="#000000" font-family="sans-serif" font-size="14" lengthAdjust="spacing" textLength="82" x="162" y="569.1018">columna = 1</text><text fill="#000000" font-family="sans-serif" font-size="14" lengthAdjust="spacing" textLength="106" x="162" y="588.1697">ocupada = false</text><text fill="#000000" font-family="sans-serif" font-size="14" lengthAdjust="spacing" textLength="95" x="162" y="607.2376">color = "vacio"</text></g><g id="elem_celda3"><rect fill="#F1F1F1" height="107.3396" style="stroke:#181818;stroke-width:0.5;" width="114" x="324" y="508"/><text fill="#000000" font-family="sans-serif" font-size="14" lengthAdjust="spacing" textLength="86" x="338" y="524.9659">celda3:Celda</text><line style="stroke:#181818;stroke-width:0.5;" x1="325" x2="437" y1="531.0679" y2="531.0679"/><text fill="#000000" font-family="sans-serif" font-size="14" lengthAdjust="spacing" textLength="53" x="330" y="550.0339">fila = 10</text><text fill="#000000" font-family="sans-serif" font-size="14" lengthAdjust="spacing" textLength="82" x="330" y="569.1018">columna = 5</text><text fill="#000000" font-family="sans-serif" font-size="14" lengthAdjust="spacing" textLength="102" x="330" y="588.1697">ocupada = true</text><text fill="#000000" font-family="sans-serif" font-size="14" lengthAdjust="spacing" textLength="87" x="330" y="607.2376">color = "rojo"</text></g><g id="elem_tipoL"><rect fill="#F1F1F1" height="88.2717" style="stroke:#181818;stroke-width:0.5;" width="161" x="609.5" y="694"/><text fill="#000000" font-family="sans-serif" font-size="14" lengthAdjust="spacing" textLength="101" x="639.5" y="710.9659">tipoL:TipoPieza</text><line style="stroke:#181818;stroke-width:0.5;" x1="610.5" x2="769.5" y1="717.0679" y2="717.0679"/><text fill="#000000" font-family="sans-serif" font-size="14" lengthAdjust="spacing" textLength="75" x="615.5" y="736.0339">forma = "L"</text><text fill="#000000" font-family="sans-serif" font-size="14" lengthAdjust="spacing" textLength="113" x="615.5" y="755.1018">color = "naranja"</text><text fill="#000000" font-family="sans-serif" font-size="14" lengthAdjust="spacing" textLength="149" x="615.5" y="774.1697">rotacionesPosibles = 4</text></g><!--link juego to tablero--><g id="link_juego_tablero"><path codeLine="72" d="M517.39,95.35 C490.2,119.6 460.8974,145.7359 433.7574,169.9459 " fill="none" id="juego-to-tablero" style="stroke:#181818;stroke-width:1.0;"/><polygon fill="#181818" points="429.28,173.94,438.6589,170.9339,433.0112,170.6116,433.3335,164.9639,429.28,173.94" style="stroke:#181818;stroke-width:1.0;"/><text fill="#000000" font-family="sans-serif" font-size="13" lengthAdjust="spacing" textLength="67" x="481" y="139.897">se juega en</text></g><!--link juego to turno--><g id="link_juego_turno"><path codeLine="73" d="M563.04,95.08 C562.4,110.51 562.13,128.04 563,144 C563.7,156.86 564.4088,164.9699 565.8388,177.2999 " fill="none" id="juego-to-turno" style="stroke:#181818;stroke-width:1.0;"/><polygon fill="#181818" points="566.53,183.26,569.4665,173.8591,565.954,178.2933,561.5198,174.7807,566.53,183.26" style="stroke:#181818;stroke-width:1.0;"/><text fill="#000000" font-family="sans-serif" font-size="13" lengthAdjust="spacing" textLength="136" x="564" y="139.897">se desarrolla en turnos</text></g><!--link juego to pieza--><g id="link_juego_pieza"><path codeLine="74" d="M628.04,68.35 C656.75,79.36 688.15,97.12 705,125 C777.88,245.59 738.6014,415.5164 710.7914,502.2764 " fill="none" id="juego-to-pieza" style="stroke:#181818;stroke-width:1.0;"/><polygon fill="#181818" points="708.96,507.99,715.5163,500.6405,710.4862,503.2286,707.8981,498.1986,708.96,507.99" style="stroke:#181818;stroke-width:1.0;"/><text fill="#000000" font-family="sans-serif" font-size="13" lengthAdjust="spacing" textLength="136" x="747" y="306.897">contiene piezas activas</text></g><!--link tablero to linea1--><g id="link_tablero_linea1"><path codeLine="76" d="M321.1,262.07 C308.85,271.56 296.26,281.82 285,292 C268.29,307.1 255.1494,320.5126 240.5794,336.4426 " fill="none" id="tablero-to-linea1" style="stroke:#181818;stroke-width:1.0;"/><polygon fill="#181818" points="236.53,340.87,245.5558,336.9285,239.9045,337.1805,239.6525,331.5292,236.53,340.87" style="stroke:#181818;stroke-width:1.0;"/><text fill="#000000" font-family="sans-serif" font-size="13" lengthAdjust="spacing" textLength="86" x="286" y="306.897">se organiza en</text></g><!--link tablero to linea2--><g id="link_tablero_linea2"><path codeLine="77" d="M381,262.35 C381,286.6 381,310.73 381,334.94 " fill="none" id="tablero-to-linea2" style="stroke:#181818;stroke-width:1.0;"/><polygon fill="#181818" points="381,340.94,385,331.94,381,335.94,377,331.94,381,340.94" style="stroke:#181818;stroke-width:1.0;"/><text fill="#000000" font-family="sans-serif" font-size="13" lengthAdjust="spacing" textLength="86" x="382" y="306.897">se organiza en</text></g><!--link linea1 to celda1--><g id="link_linea1_celda1"><path codeLine="79" d="M125.27,426.74 C113.16,436.05 101.74,446.84 93,459 C82.73,473.29 77.5836,485.3189 73.2836,502.0489 " fill="none" id="linea1-to-celda1" style="stroke:#181818;stroke-width:1.0;"/><polygon fill="#181818" points="71.79,507.86,77.9045,500.139,73.0347,503.0174,70.1563,498.1476,71.79,507.86" style="stroke:#181818;stroke-width:1.0;"/><text fill="#000000" font-family="sans-serif" font-size="13" lengthAdjust="spacing" textLength="104" x="94" y="473.897">est&#225; formado por</text></g><!--link linea1 to celda2--><g id="link_linea1_celda2"><path codeLine="80" d="M202.96,429.13 C205.14,452.95 207.3219,476.7451 209.6319,501.9251 " fill="none" id="linea1-to-celda2" style="stroke:#181818;stroke-width:1.0;"/><polygon fill="#181818" points="210.18,507.9,213.3411,498.5722,209.7232,502.9209,205.3745,499.3031,210.18,507.9" style="stroke:#181818;stroke-width:1.0;"/><text fill="#000000" font-family="sans-serif" font-size="13" lengthAdjust="spacing" textLength="104" x="208" y="473.897">est&#225; formado por</text></g><!--link linea2 to celda3--><g id="link_linea2_celda3"><path codeLine="81" d="M381,429.13 C381,452.95 381,476.72 381,501.9 " fill="none" id="linea2-to-celda3" style="stroke:#181818;stroke-width:1.0;"/><polygon fill="#181818" points="381,507.9,385,498.9,381,502.9,377,498.9,381,507.9" style="stroke:#181818;stroke-width:1.0;"/><text fill="#000000" font-family="sans-serif" font-size="13" lengthAdjust="spacing" textLength="104" x="382" y="473.897">est&#225; formado por</text></g><!--link turno to movimiento--><g id="link_turno_movimiento"><path codeLine="83" d="M573.25,252.79 C574.95,278.24 576.8915,307.3533 578.7215,334.8433 " fill="none" id="turno-to-movimiento" style="stroke:#181818;stroke-width:1.0;"/><polygon fill="#181818" points="579.12,340.83,582.5134,331.5842,578.7879,335.841,574.531,332.1156,579.12,340.83" style="stroke:#181818;stroke-width:1.0;"/><text fill="#000000" font-family="sans-serif" font-size="13" lengthAdjust="spacing" textLength="55" x="578" y="306.897">involucra</text></g><!--link movimiento to pieza--><g id="link_movimiento_pieza"><path codeLine="84" d="M608.7,429.13 C623.44,452.95 638.7015,477.6186 654.2915,502.7986 " fill="none" id="movimiento-to-pieza" style="stroke:#181818;stroke-width:1.0;"/><polygon fill="#181818" points="657.45,507.9,656.1132,498.1423,654.8179,503.6489,649.3114,502.3536,657.45,507.9" style="stroke:#181818;stroke-width:1.0;"/><text fill="#000000" font-family="sans-serif" font-size="13" lengthAdjust="spacing" textLength="47" x="637" y="473.897">permite</text></g><!--link pieza to tipoL--><g id="link_pieza_tipoL"><path codeLine="86" d="M690,615.33 C690,640.41 690,664 690,687.73 " fill="none" id="pieza-to-tipoL" style="stroke:#181818;stroke-width:1.0;"/><polygon fill="#181818" points="690,693.73,694,684.73,690,688.73,686,684.73,690,693.73" style="stroke:#181818;stroke-width:1.0;"/><text fill="#000000" font-family="sans-serif" font-size="13" lengthAdjust="spacing" textLength="58" x="691" y="659.897">es de tipo</text></g><!--SRC=[ZLJ1Yjim4BtxAuGkFMs9xOQmXYsKFRLawRBaq1wrzcHHa2KZoJwaz6FwBVsnpeoSn7RQq8kj6JtUasRUoBqUe8v2Tif7tQYy-jB3cvD21N6WbVYH2T7rDheW7aI-Ngqmjde0Ws69QmXHDGu3gUge1oUpdrdcHjQeNWrubrUxj63UCSdCUsqK4HT4MplJjvRZd6AZBQZmwDhEGEJqUaRUU-isrOv-YPXMJ6lxbXGUn0Q3gA7jt0iTr4OWiVVbb8TbFjizUEryjQM8wJYVp_doUpvdEX76UsK2K0fCeyBNkkzKmoVTN2ayGQFLahvOqA_-atvsWKx3KNsgOwzCzKnhvkTiQfyBkjREVkCANkBlL0kClOkAOWplwG3SI9AFleUfKEi6tMf0CvJLqtdDQfSjbeowOq-Sg2Nc1cKqEuLfqJb8se_cMIhnXVFgaNxCdn9dprnQmPR1a0xkKe4k4hZjF7lps1jv9L0i1OeR0lbCuDoPay90zxoMA9SIvKnYDPDOtxo3TuV5T66HjzKElvUkSov9EDyIZTpAAOjLNjc3afE-GtX6H-1GahC-aC8xyG9ct1FOL0-2HF4HoDAhS7VtyJp7bP01-BLGY9LJ10zascyWAE-TCGHAEs6AJNP5REqiJgo5b0cZ6n6RdGG9FWvdudR-JLbzJF9NgE9lg6ma8DJeBKJX6_7xLweSsh9pNbxXYbkuue8h_u7BKb48DvaPn6exe15gZwsPRCnAqu5lTGGaIIckCJUSjR367Chi3m00]--></g></svg>