<?xml version="1.0" encoding="us-ascii" standalone="no"?><svg xmlns="http://www.w3.org/2000/svg" xmlns:xlink="http://www.w3.org/1999/xlink" contentStyleType="text/css" height="822px" preserveAspectRatio="none" style="width:949px;height:822px;background:#FFFFFF;" version="1.1" viewBox="0 0 949 822" width="949px" zoomAndPan="magnify"><defs/><g><!--cluster estructurales--><g id="cluster_estructurales"><path d="M8.5,77 L150.5,77 A3.75,3.75 0 0 1 153,79.5 L160,102.0679 L402.5,102.0679 A2.5,2.5 0 0 1 405,104.5679 L405,812.5 A2.5,2.5 0 0 1 402.5,815 L8.5,815 A2.5,2.5 0 0 1 6,812.5 L6,79.5 A2.5,2.5 0 0 1 8.5,77 " fill="none" style="stroke:#000000;stroke-width:1.5;"/><line style="stroke:#000000;stroke-width:1.5;" x1="6" x2="160" y1="102.0679" y2="102.0679"/><text fill="#000000" font-family="sans-serif" font-size="14" font-weight="bold" lengthAdjust="spacing" textLength="141" x="10" y="93.9659">Estructurales (fotos)</text></g><!--cluster B?sicos--><g id="cluster_B&#225;sicos"><path d="M32.5,223 L84.5,223 A3.75,3.75 0 0 1 87,225.5 L94,248.0679 L328.5,248.0679 A2.5,2.5 0 0 1 331,250.5679 L331,360.5 A2.5,2.5 0 0 1 328.5,363 L32.5,363 A2.5,2.5 0 0 1 30,360.5 L30,225.5 A2.5,2.5 0 0 1 32.5,223 " fill="none" style="stroke:#000000;stroke-width:1.5;"/><line style="stroke:#000000;stroke-width:1.5;" x1="30" x2="94" y1="248.0679" y2="248.0679"/><text fill="#000000" font-family="sans-serif" font-size="14" font-weight="bold" lengthAdjust="spacing" textLength="51" x="34" y="239.9659">B&#225;sicos</text></g><!--cluster Implementaci?n--><g id="cluster_Implementaci&#243;n"><path d="M32.5,387 L147.5,387 A3.75,3.75 0 0 1 150,389.5 L157,412.0679 L328.5,412.0679 A2.5,2.5 0 0 1 331,414.5679 L331,524.5 A2.5,2.5 0 0 1 328.5,527 L32.5,527 A2.5,2.5 0 0 1 30,524.5 L30,389.5 A2.5,2.5 0 0 1 32.5,387 " fill="none" style="stroke:#000000;stroke-width:1.5;"/><line style="stroke:#000000;stroke-width:1.5;" x1="30" x2="157" y1="412.0679" y2="412.0679"/><text fill="#000000" font-family="sans-serif" font-size="14" font-weight="bold" lengthAdjust="spacing" textLength="114" x="34" y="403.9659">Implementaci&#243;n</text></g><!--cluster comportamientos--><g id="cluster_comportamientos"><path d="M431.5,77 L618.5,77 A3.75,3.75 0 0 1 621,79.5 L628,102.0679 L939.5,102.0679 A2.5,2.5 0 0 1 942,104.5679 L942,812.5 A2.5,2.5 0 0 1 939.5,815 L431.5,815 A2.5,2.5 0 0 1 429,812.5 L429,79.5 A2.5,2.5 0 0 1 431.5,77 " fill="none" style="stroke:#000000;stroke-width:1.5;"/><line style="stroke:#000000;stroke-width:1.5;" x1="429" x2="628" y1="102.0679" y2="102.0679"/><text fill="#000000" font-family="sans-serif" font-size="14" font-weight="bold" lengthAdjust="spacing" textLength="186" x="433" y="93.9659">Comportamientos (videos)</text></g><!--cluster Flujo--><g id="cluster_Flujo"><path d="M455.5,223 L490.5,223 A3.75,3.75 0 0 1 493,225.5 L500,248.0679 L745.5,248.0679 A2.5,2.5 0 0 1 748,250.5679 L748,360.5 A2.5,2.5 0 0 1 745.5,363 L455.5,363 A2.5,2.5 0 0 1 453,360.5 L453,225.5 A2.5,2.5 0 0 1 455.5,223 " fill="none" style="stroke:#000000;stroke-width:1.5;"/><line style="stroke:#000000;stroke-width:1.5;" x1="453" x2="500" y1="248.0679" y2="248.0679"/><text fill="#000000" font-family="sans-serif" font-size="14" font-weight="bold" lengthAdjust="spacing" textLength="34" x="457" y="239.9659">Flujo</text></g><!--cluster Mensajes--><g id="cluster_Mensajes"><path d="M511.5,551 L576.5,551 A3.75,3.75 0 0 1 579,553.5 L586,576.0679 L825.5,576.0679 A2.5,2.5 0 0 1 828,578.5679 L828,688.5 A2.5,2.5 0 0 1 825.5,691 L511.5,691 A2.5,2.5 0 0 1 509,688.5 L509,553.5 A2.5,2.5 0 0 1 511.5,551 " fill="none" style="stroke:#000000;stroke-width:1.5;"/><line style="stroke:#000000;stroke-width:1.5;" x1="509" x2="586" y1="576.0679" y2="576.0679"/><text fill="#000000" font-family="sans-serif" font-size="14" font-weight="bold" lengthAdjust="spacing" textLength="64" x="513" y="567.9659">Mensajes</text></g><!--class Estructural--><g id="elem_Estructural"><rect codeLine="7" fill="#F1F1F1" height="86.1358" id="Estructural" rx="2.5" ry="2.5" style="stroke:#181818;stroke-width:0.5;" width="130" x="259" y="115"/><ellipse cx="287.05" cy="131" fill="#A9DCDF" rx="11" ry="11" style="stroke:#181818;stroke-width:1.0;"/><path d="M287.1594,126.3438 L286.0031,131.4219 L288.3313,131.4219 L287.1594,126.3438 Z M285.675,124.1094 L288.6594,124.1094 L292.0188,136.5 L289.5656,136.5 L288.8,133.4375 L285.5188,133.4375 L284.7688,136.5 L282.3313,136.5 L285.675,124.1094 Z " fill="#000000"/><text fill="#000000" font-family="sans-serif" font-size="14" font-style="italic" lengthAdjust="spacing" textLength="69" x="303.95" y="136.432">Estructural</text><line style="stroke:#181818;stroke-width:0.5;" x1="260" x2="388" y1="147" y2="147"/><text fill="#000000" font-family="sans-serif" font-size="14" lengthAdjust="spacing" textLength="118" x="265" y="165.9659">// cosas tangibles</text><text fill="#000000" font-family="sans-serif" font-size="14" lengthAdjust="spacing" textLength="102" x="265" y="185.0339">// e intangibles</text><line style="stroke:#181818;stroke-width:0.5;" x1="260" x2="388" y1="193.1358" y2="193.1358"/></g><!--class Paquetes--><g id="elem_Paquetes"><rect codeLine="33" fill="#F1F1F1" height="86.1358" id="Paquetes" rx="2.5" ry="2.5" style="stroke:#181818;stroke-width:0.5;" width="103" x="248.5" y="589"/><ellipse cx="267.55" cy="605" fill="#ADD1B2" rx="11" ry="11" style="stroke:#181818;stroke-width:1.0;"/><path d="M270.5188,610.6406 Q269.9406,610.9375 269.3,611.0781 Q268.6594,611.2344 267.9563,611.2344 Q265.4563,611.2344 264.1281,609.5938 Q262.8156,607.9375 262.8156,604.8125 Q262.8156,601.6875 264.1281,600.0313 Q265.4563,598.375 267.9563,598.375 Q268.6594,598.375 269.3,598.5313 Q269.9563,598.6875 270.5188,598.9844 L270.5188,601.7031 Q269.8938,601.125 269.3,600.8594 Q268.7063,600.5781 268.0813,600.5781 Q266.7375,600.5781 266.05,601.6563 Q265.3625,602.7188 265.3625,604.8125 Q265.3625,606.9063 266.05,607.9844 Q266.7375,609.0469 268.0813,609.0469 Q268.7063,609.0469 269.3,608.7813 Q269.8938,608.5 270.5188,607.9219 L270.5188,610.6406 Z " fill="#000000"/><text fill="#000000" font-family="sans-serif" font-size="14" lengthAdjust="spacing" textLength="62" x="282.45" y="610.432">Paquetes</text><line style="stroke:#181818;stroke-width:0.5;" x1="249.5" x2="350.5" y1="621" y2="621"/><text fill="#000000" font-family="sans-serif" font-size="14" lengthAdjust="spacing" textLength="91" x="254.5" y="639.9659">// agrupaci&#243;n</text><text fill="#000000" font-family="sans-serif" font-size="14" lengthAdjust="spacing" textLength="84" x="254.5" y="659.0339">// contextual</text><line style="stroke:#181818;stroke-width:0.5;" x1="249.5" x2="350.5" y1="667.1358" y2="667.1358"/></g><!--class EstructuraCompuesta--><g id="elem_EstructuraCompuesta"><rect codeLine="38" fill="#F1F1F1" height="64.1358" id="EstructuraCompuesta" rx="2.5" ry="2.5" style="stroke:#181818;stroke-width:0.5;" width="108" x="281" y="735"/><ellipse cx="296" cy="759.0679" fill="#ADD1B2" rx="11" ry="11" style="stroke:#181818;stroke-width:1.0;"/><path d="M298.9688,764.7085 Q298.3906,765.0054 297.75,765.146 Q297.1094,765.3023 296.4063,765.3023 Q293.9063,765.3023 292.5781,763.6617 Q291.2656,762.0054 291.2656,758.8804 Q291.2656,755.7554 292.5781,754.0992 Q293.9063,752.4429 296.4063,752.4429 Q297.1094,752.4429 297.75,752.5992 Q298.4063,752.7554 298.9688,753.0523 L298.9688,755.771 Q298.3438,755.1929 297.75,754.9273 Q297.1563,754.646 296.5313,754.646 Q295.1875,754.646 294.5,755.7242 Q293.8125,756.7867 293.8125,758.8804 Q293.8125,760.9742 294.5,762.0523 Q295.1875,763.1148 296.5313,763.1148 Q297.1563,763.1148 297.75,762.8492 Q298.3438,762.5679 298.9688,761.9898 L298.9688,764.7085 Z " fill="#000000"/><text fill="#000000" font-family="sans-serif" font-size="14" lengthAdjust="spacing" textLength="70" x="313" y="754.9659">Estructura</text><text fill="#000000" font-family="sans-serif" font-size="14" lengthAdjust="spacing" textLength="76" x="310" y="774.0339">Compuesta</text><line style="stroke:#181818;stroke-width:0.5;" x1="282" x2="388" y1="783.1358" y2="783.1358"/><line style="stroke:#181818;stroke-width:0.5;" x1="282" x2="388" y1="791.1358" y2="791.1358"/></g><!--class Clases--><g id="elem_Clases"><rect codeLine="13" fill="#F1F1F1" height="67.0679" id="Clases" rx="2.5" ry="2.5" style="stroke:#181818;stroke-width:0.5;" width="119" x="46.5" y="270.5"/><ellipse cx="81.3" cy="286.5" fill="#ADD1B2" rx="11" ry="11" style="stroke:#181818;stroke-width:1.0;"/><path d="M84.2688,292.1406 Q83.6906,292.4375 83.05,292.5781 Q82.4094,292.7344 81.7063,292.7344 Q79.2063,292.7344 77.8781,291.0938 Q76.5656,289.4375 76.5656,286.3125 Q76.5656,283.1875 77.8781,281.5313 Q79.2063,279.875 81.7063,279.875 Q82.4094,279.875 83.05,280.0313 Q83.7063,280.1875 84.2688,280.4844 L84.2688,283.2031 Q83.6438,282.625 83.05,282.3594 Q82.4563,282.0781 81.8313,282.0781 Q80.4875,282.0781 79.8,283.1563 Q79.1125,284.2188 79.1125,286.3125 Q79.1125,288.4063 79.8,289.4844 Q80.4875,290.5469 81.8313,290.5469 Q82.4563,290.5469 83.05,290.2813 Q83.6438,290 84.2688,289.4219 L84.2688,292.1406 Z " fill="#000000"/><text fill="#000000" font-family="sans-serif" font-size="14" lengthAdjust="spacing" textLength="43" x="99.7" y="291.932">Clases</text><line style="stroke:#181818;stroke-width:0.5;" x1="47.5" x2="164.5" y1="302.5" y2="302.5"/><text fill="#000000" font-family="sans-serif" font-size="14" lengthAdjust="spacing" textLength="107" x="52.5" y="321.4659">// descripciones</text><line style="stroke:#181818;stroke-width:0.5;" x1="47.5" x2="164.5" y1="329.5679" y2="329.5679"/></g><!--class Objetos--><g id="elem_Objetos"><rect codeLine="16" fill="#F1F1F1" height="86.1358" id="Objetos" rx="2.5" ry="2.5" style="stroke:#181818;stroke-width:0.5;" width="114" x="201" y="261"/><ellipse cx="229.5" cy="277" fill="#ADD1B2" rx="11" ry="11" style="stroke:#181818;stroke-width:1.0;"/><path d="M232.4688,282.6406 Q231.8906,282.9375 231.25,283.0781 Q230.6094,283.2344 229.9063,283.2344 Q227.4063,283.2344 226.0781,281.5938 Q224.7656,279.9375 224.7656,276.8125 Q224.7656,273.6875 226.0781,272.0313 Q227.4063,270.375 229.9063,270.375 Q230.6094,270.375 231.25,270.5313 Q231.9063,270.6875 232.4688,270.9844 L232.4688,273.7031 Q231.8438,273.125 231.25,272.8594 Q230.6563,272.5781 230.0313,272.5781 Q228.6875,272.5781 228,273.6563 Q227.3125,274.7188 227.3125,276.8125 Q227.3125,278.9063 228,279.9844 Q228.6875,281.0469 230.0313,281.0469 Q230.6563,281.0469 231.25,280.7813 Q231.8438,280.5 232.4688,279.9219 L232.4688,282.6406 Z " fill="#000000"/><text fill="#000000" font-family="sans-serif" font-size="14" lengthAdjust="spacing" textLength="52" x="246.5" y="282.432">Objetos</text><line style="stroke:#181818;stroke-width:0.5;" x1="202" x2="314" y1="293" y2="293"/><text fill="#000000" font-family="sans-serif" font-size="14" lengthAdjust="spacing" textLength="102" x="207" y="311.9659">// concreciones</text><text fill="#000000" font-family="sans-serif" font-size="14" lengthAdjust="spacing" textLength="87" x="207" y="331.0339">// con estado</text><line style="stroke:#181818;stroke-width:0.5;" x1="202" x2="314" y1="339.1358" y2="339.1358"/></g><!--class Componentes--><g id="elem_Componentes"><rect codeLine="23" fill="#F1F1F1" height="86.1358" id="Componentes" rx="2.5" ry="2.5" style="stroke:#181818;stroke-width:0.5;" width="125" x="46.5" y="425"/><ellipse cx="61.5" cy="441" fill="#ADD1B2" rx="11" ry="11" style="stroke:#181818;stroke-width:1.0;"/><path d="M64.4688,446.6406 Q63.8906,446.9375 63.25,447.0781 Q62.6094,447.2344 61.9063,447.2344 Q59.4063,447.2344 58.0781,445.5938 Q56.7656,443.9375 56.7656,440.8125 Q56.7656,437.6875 58.0781,436.0313 Q59.4063,434.375 61.9063,434.375 Q62.6094,434.375 63.25,434.5313 Q63.9063,434.6875 64.4688,434.9844 L64.4688,437.7031 Q63.8438,437.125 63.25,436.8594 Q62.6563,436.5781 62.0313,436.5781 Q60.6875,436.5781 60,437.6563 Q59.3125,438.7188 59.3125,440.8125 Q59.3125,442.9063 60,443.9844 Q60.6875,445.0469 62.0313,445.0469 Q62.6563,445.0469 63.25,444.7813 Q63.8438,444.5 64.4688,443.9219 L64.4688,446.6406 Z " fill="#000000"/><text fill="#000000" font-family="sans-serif" font-size="14" lengthAdjust="spacing" textLength="93" x="75.5" y="446.432">Componentes</text><line style="stroke:#181818;stroke-width:0.5;" x1="47.5" x2="170.5" y1="457" y2="457"/><text fill="#000000" font-family="sans-serif" font-size="14" lengthAdjust="spacing" textLength="72" x="52.5" y="475.9659">// software</text><text fill="#000000" font-family="sans-serif" font-size="14" lengthAdjust="spacing" textLength="97" x="52.5" y="495.0339">// desplegable</text><line style="stroke:#181818;stroke-width:0.5;" x1="47.5" x2="170.5" y1="503.1358" y2="503.1358"/></g><!--class Despliegue--><g id="elem_Despliegue"><rect codeLine="27" fill="#F1F1F1" height="86.1358" id="Despliegue" rx="2.5" ry="2.5" style="stroke:#181818;stroke-width:0.5;" width="108" x="207" y="425"/><ellipse cx="222" cy="441" fill="#ADD1B2" rx="11" ry="11" style="stroke:#181818;stroke-width:1.0;"/><path d="M224.9688,446.6406 Q224.3906,446.9375 223.75,447.0781 Q223.1094,447.2344 222.4063,447.2344 Q219.9063,447.2344 218.5781,445.5938 Q217.2656,443.9375 217.2656,440.8125 Q217.2656,437.6875 218.5781,436.0313 Q219.9063,434.375 222.4063,434.375 Q223.1094,434.375 223.75,434.5313 Q224.4063,434.6875 224.9688,434.9844 L224.9688,437.7031 Q224.3438,437.125 223.75,436.8594 Q223.1563,436.5781 222.5313,436.5781 Q221.1875,436.5781 220.5,437.6563 Q219.8125,438.7188 219.8125,440.8125 Q219.8125,442.9063 220.5,443.9844 Q221.1875,445.0469 222.5313,445.0469 Q223.1563,445.0469 223.75,444.7813 Q224.3438,444.5 224.9688,443.9219 L224.9688,446.6406 Z " fill="#000000"/><text fill="#000000" font-family="sans-serif" font-size="14" lengthAdjust="spacing" textLength="76" x="236" y="446.432">Despliegue</text><line style="stroke:#181818;stroke-width:0.5;" x1="208" x2="314" y1="457" y2="457"/><text fill="#000000" font-family="sans-serif" font-size="14" lengthAdjust="spacing" textLength="48" x="213" y="475.9659">// nodo</text><text fill="#000000" font-family="sans-serif" font-size="14" lengthAdjust="spacing" textLength="79" x="213" y="495.0339">// hardware</text><line style="stroke:#181818;stroke-width:0.5;" x1="208" x2="314" y1="503.1358" y2="503.1358"/></g><!--class Comportamiento--><g id="elem_Comportamiento"><rect codeLine="42" fill="#F1F1F1" height="86.1358" id="Comportamiento" rx="2.5" ry="2.5" style="stroke:#181818;stroke-width:0.5;" width="139" x="605.5" y="115"/><ellipse cx="620.5" cy="131" fill="#A9DCDF" rx="11" ry="11" style="stroke:#181818;stroke-width:1.0;"/><path d="M620.6094,126.3438 L619.4531,131.4219 L621.7813,131.4219 L620.6094,126.3438 Z M619.125,124.1094 L622.1094,124.1094 L625.4688,136.5 L623.0156,136.5 L622.25,133.4375 L618.9688,133.4375 L618.2188,136.5 L615.7813,136.5 L619.125,124.1094 Z " fill="#000000"/><text fill="#000000" font-family="sans-serif" font-size="14" font-style="italic" lengthAdjust="spacing" textLength="107" x="634.5" y="136.432">Comportamiento</text><line style="stroke:#181818;stroke-width:0.5;" x1="606.5" x2="743.5" y1="147" y2="147"/><text fill="#000000" font-family="sans-serif" font-size="14" lengthAdjust="spacing" textLength="117" x="611.5" y="165.9659">// transformaci&#243;n</text><text fill="#000000" font-family="sans-serif" font-size="14" lengthAdjust="spacing" textLength="98" x="611.5" y="185.0339">// en el tiempo</text><line style="stroke:#181818;stroke-width:0.5;" x1="606.5" x2="743.5" y1="193.1358" y2="193.1358"/></g><!--class CasosUso--><g id="elem_CasosUso"><rect codeLine="47" fill="#F1F1F1" height="86.1358" id="CasosUso" rx="2.5" ry="2.5" style="stroke:#181818;stroke-width:0.5;" width="121" x="767.5" y="261"/><ellipse cx="782.5" cy="277" fill="#ADD1B2" rx="11" ry="11" style="stroke:#181818;stroke-width:1.0;"/><path d="M785.4688,282.6406 Q784.8906,282.9375 784.25,283.0781 Q783.6094,283.2344 782.9063,283.2344 Q780.4063,283.2344 779.0781,281.5938 Q777.7656,279.9375 777.7656,276.8125 Q777.7656,273.6875 779.0781,272.0313 Q780.4063,270.375 782.9063,270.375 Q783.6094,270.375 784.25,270.5313 Q784.9063,270.6875 785.4688,270.9844 L785.4688,273.7031 Q784.8438,273.125 784.25,272.8594 Q783.6563,272.5781 783.0313,272.5781 Q781.6875,272.5781 781,273.6563 Q780.3125,274.7188 780.3125,276.8125 Q780.3125,278.9063 781,279.9844 Q781.6875,281.0469 783.0313,281.0469 Q783.6563,281.0469 784.25,280.7813 Q784.8438,280.5 785.4688,279.9219 L785.4688,282.6406 Z " fill="#000000"/><text fill="#000000" font-family="sans-serif" font-size="14" lengthAdjust="spacing" textLength="89" x="796.5" y="282.432">Casos de Uso</text><line style="stroke:#181818;stroke-width:0.5;" x1="768.5" x2="887.5" y1="293" y2="293"/><text fill="#000000" font-family="sans-serif" font-size="14" lengthAdjust="spacing" textLength="66" x="773.5" y="311.9659">// sistema</text><text fill="#000000" font-family="sans-serif" font-size="14" lengthAdjust="spacing" textLength="102" x="773.5" y="331.0339">// como unidad</text><line style="stroke:#181818;stroke-width:0.5;" x1="768.5" x2="887.5" y1="339.1358" y2="339.1358"/></g><!--class Interacci?n--><g id="elem_Interacci&#243;n"><rect codeLine="63" fill="#F1F1F1" height="86.1358" id="Interacci&#243;n" rx="2.5" ry="2.5" style="stroke:#181818;stroke-width:0.5;" width="146" x="775" y="425"/><ellipse cx="809.35" cy="441" fill="#A9DCDF" rx="11" ry="11" style="stroke:#181818;stroke-width:1.0;"/><path d="M809.4594,436.3438 L808.3031,441.4219 L810.6313,441.4219 L809.4594,436.3438 Z M807.975,434.1094 L810.9594,434.1094 L814.3188,446.5 L811.8656,446.5 L811.1,443.4375 L807.8188,443.4375 L807.0688,446.5 L804.6313,446.5 L807.975,434.1094 Z " fill="#000000"/><text fill="#000000" font-family="sans-serif" font-size="14" font-style="italic" lengthAdjust="spacing" textLength="71" x="827.65" y="446.432">Interacci&#243;n</text><line style="stroke:#181818;stroke-width:0.5;" x1="776" x2="920" y1="457" y2="457"/><text fill="#000000" font-family="sans-serif" font-size="14" lengthAdjust="spacing" textLength="134" x="781" y="475.9659">// con objeto emisor</text><text fill="#000000" font-family="sans-serif" font-size="14" lengthAdjust="spacing" textLength="82" x="781" y="495.0339">// y receptor</text><line style="stroke:#181818;stroke-width:0.5;" x1="776" x2="920" y1="503.1358" y2="503.1358"/></g><!--class InteraccionGeneral--><g id="elem_InteraccionGeneral"><rect codeLine="79" fill="#F1F1F1" height="64.1358" id="InteraccionGeneral" rx="2.5" ry="2.5" style="stroke:#181818;stroke-width:0.5;" width="108" x="701" y="735"/><ellipse cx="716" cy="759.0679" fill="#ADD1B2" rx="11" ry="11" style="stroke:#181818;stroke-width:1.0;"/><path d="M718.9688,764.7085 Q718.3906,765.0054 717.75,765.146 Q717.1094,765.3023 716.4063,765.3023 Q713.9063,765.3023 712.5781,763.6617 Q711.2656,762.0054 711.2656,758.8804 Q711.2656,755.7554 712.5781,754.0992 Q713.9063,752.4429 716.4063,752.4429 Q717.1094,752.4429 717.75,752.5992 Q718.4063,752.7554 718.9688,753.0523 L718.9688,755.771 Q718.3438,755.1929 717.75,754.9273 Q717.1563,754.646 716.5313,754.646 Q715.1875,754.646 714.5,755.7242 Q713.8125,756.7867 713.8125,758.8804 Q713.8125,760.9742 714.5,762.0523 Q715.1875,763.1148 716.5313,763.1148 Q717.1563,763.1148 717.75,762.8492 Q718.3438,762.5679 718.9688,761.9898 L718.9688,764.7085 Z " fill="#000000"/><text fill="#000000" font-family="sans-serif" font-size="14" lengthAdjust="spacing" textLength="76" x="730" y="754.9659">Interacci&#243;n</text><text fill="#000000" font-family="sans-serif" font-size="14" lengthAdjust="spacing" textLength="53" x="741.5" y="774.0339">General</text><line style="stroke:#181818;stroke-width:0.5;" x1="702" x2="808" y1="783.1358" y2="783.1358"/><line style="stroke:#181818;stroke-width:0.5;" x1="702" x2="808" y1="791.1358" y2="791.1358"/></g><!--class Tiempo--><g id="elem_Tiempo"><rect codeLine="80" fill="#F1F1F1" height="48" id="Tiempo" rx="2.5" ry="2.5" style="stroke:#181818;stroke-width:0.5;" width="82" x="844" y="743"/><ellipse cx="859" cy="759" fill="#ADD1B2" rx="11" ry="11" style="stroke:#181818;stroke-width:1.0;"/><path d="M861.9688,764.6406 Q861.3906,764.9375 860.75,765.0781 Q860.1094,765.2344 859.4063,765.2344 Q856.9063,765.2344 855.5781,763.5938 Q854.2656,761.9375 854.2656,758.8125 Q854.2656,755.6875 855.5781,754.0313 Q856.9063,752.375 859.4063,752.375 Q860.1094,752.375 860.75,752.5313 Q861.4063,752.6875 861.9688,752.9844 L861.9688,755.7031 Q861.3438,755.125 860.75,754.8594 Q860.1563,754.5781 859.5313,754.5781 Q858.1875,754.5781 857.5,755.6563 Q856.8125,756.7188 856.8125,758.8125 Q856.8125,760.9063 857.5,761.9844 Q858.1875,763.0469 859.5313,763.0469 Q860.1563,763.0469 860.75,762.7813 Q861.3438,762.5 861.9688,761.9219 L861.9688,764.6406 Z " fill="#000000"/><text fill="#000000" font-family="sans-serif" font-size="14" lengthAdjust="spacing" textLength="50" x="873" y="764.432">Tiempo</text><line style="stroke:#181818;stroke-width:0.5;" x1="845" x2="925" y1="775" y2="775"/><line style="stroke:#181818;stroke-width:0.5;" x1="845" x2="925" y1="783" y2="783"/></g><!--class Estados--><g id="elem_Estados"><rect codeLine="53" fill="#F1F1F1" height="86.1358" id="Estados" rx="2.5" ry="2.5" style="stroke:#181818;stroke-width:0.5;" width="114" x="469" y="261"/><ellipse cx="497.5" cy="277" fill="#ADD1B2" rx="11" ry="11" style="stroke:#181818;stroke-width:1.0;"/><path d="M500.4688,282.6406 Q499.8906,282.9375 499.25,283.0781 Q498.6094,283.2344 497.9063,283.2344 Q495.4063,283.2344 494.0781,281.5938 Q492.7656,279.9375 492.7656,276.8125 Q492.7656,273.6875 494.0781,272.0313 Q495.4063,270.375 497.9063,270.375 Q498.6094,270.375 499.25,270.5313 Q499.9063,270.6875 500.4688,270.9844 L500.4688,273.7031 Q499.8438,273.125 499.25,272.8594 Q498.6563,272.5781 498.0313,272.5781 Q496.6875,272.5781 496,273.6563 Q495.3125,274.7188 495.3125,276.8125 Q495.3125,278.9063 496,279.9844 Q496.6875,281.0469 498.0313,281.0469 Q498.6563,281.0469 499.25,280.7813 Q499.8438,280.5 500.4688,279.9219 L500.4688,282.6406 Z " fill="#000000"/><text fill="#000000" font-family="sans-serif" font-size="14" lengthAdjust="spacing" textLength="52" x="514.5" y="282.432">Estados</text><line style="stroke:#181818;stroke-width:0.5;" x1="470" x2="582" y1="293" y2="293"/><text fill="#000000" font-family="sans-serif" font-size="14" lengthAdjust="spacing" textLength="102" x="475" y="311.9659">// secuencia de</text><text fill="#000000" font-family="sans-serif" font-size="14" lengthAdjust="spacing" textLength="66" x="475" y="331.0339">// estados</text><line style="stroke:#181818;stroke-width:0.5;" x1="470" x2="582" y1="339.1358" y2="339.1358"/></g><!--class Actividad--><g id="elem_Actividad"><rect codeLine="57" fill="#F1F1F1" height="86.1358" id="Actividad" rx="2.5" ry="2.5" style="stroke:#181818;stroke-width:0.5;" width="114" x="618" y="261"/><ellipse cx="642" cy="277" fill="#ADD1B2" rx="11" ry="11" style="stroke:#181818;stroke-width:1.0;"/><path d="M644.9688,282.6406 Q644.3906,282.9375 643.75,283.0781 Q643.1094,283.2344 642.4063,283.2344 Q639.9063,283.2344 638.5781,281.5938 Q637.2656,279.9375 637.2656,276.8125 Q637.2656,273.6875 638.5781,272.0313 Q639.9063,270.375 642.4063,270.375 Q643.1094,270.375 643.75,270.5313 Q644.4063,270.6875 644.9688,270.9844 L644.9688,273.7031 Q644.3438,273.125 643.75,272.8594 Q643.1563,272.5781 642.5313,272.5781 Q641.1875,272.5781 640.5,273.6563 Q639.8125,274.7188 639.8125,276.8125 Q639.8125,278.9063 640.5,279.9844 Q641.1875,281.0469 642.5313,281.0469 Q643.1563,281.0469 643.75,280.7813 Q644.3438,280.5 644.9688,279.9219 L644.9688,282.6406 Z " fill="#000000"/><text fill="#000000" font-family="sans-serif" font-size="14" lengthAdjust="spacing" textLength="62" x="658" y="282.432">Actividad</text><line style="stroke:#181818;stroke-width:0.5;" x1="619" x2="731" y1="293" y2="293"/><text fill="#000000" font-family="sans-serif" font-size="14" lengthAdjust="spacing" textLength="102" x="624" y="311.9659">// secuencia de</text><text fill="#000000" font-family="sans-serif" font-size="14" lengthAdjust="spacing" textLength="90" x="624" y="331.0339">// actividades</text><line style="stroke:#181818;stroke-width:0.5;" x1="619" x2="731" y1="339.1358" y2="339.1358"/></g><!--class Comunicaci?n--><g id="elem_Comunicaci&#243;n"><rect codeLine="69" fill="#F1F1F1" height="86.1358" id="Comunicaci&#243;n" rx="2.5" ry="2.5" style="stroke:#181818;stroke-width:0.5;" width="133" x="525.5" y="589"/><ellipse cx="543.2" cy="605" fill="#ADD1B2" rx="11" ry="11" style="stroke:#181818;stroke-width:1.0;"/><path d="M546.1688,610.6406 Q545.5906,610.9375 544.95,611.0781 Q544.3094,611.2344 543.6063,611.2344 Q541.1063,611.2344 539.7781,609.5938 Q538.4656,607.9375 538.4656,604.8125 Q538.4656,601.6875 539.7781,600.0313 Q541.1063,598.375 543.6063,598.375 Q544.3094,598.375 544.95,598.5313 Q545.6063,598.6875 546.1688,598.9844 L546.1688,601.7031 Q545.5438,601.125 544.95,600.8594 Q544.3563,600.5781 543.7313,600.5781 Q542.3875,600.5781 541.7,601.6563 Q541.0125,602.7188 541.0125,604.8125 Q541.0125,606.9063 541.7,607.9844 Q542.3875,609.0469 543.7313,609.0469 Q544.3563,609.0469 544.95,608.7813 Q545.5438,608.5 546.1688,607.9219 L546.1688,610.6406 Z " fill="#000000"/><text fill="#000000" font-family="sans-serif" font-size="14" lengthAdjust="spacing" textLength="95" x="557.8" y="610.432">Comunicaci&#243;n</text><line style="stroke:#181818;stroke-width:0.5;" x1="526.5" x2="657.5" y1="621" y2="621"/><text fill="#000000" font-family="sans-serif" font-size="14" lengthAdjust="spacing" textLength="121" x="531.5" y="639.9659">// colaboraci&#243;n de</text><text fill="#000000" font-family="sans-serif" font-size="14" lengthAdjust="spacing" textLength="78" x="531.5" y="659.0339">// mensajes</text><line style="stroke:#181818;stroke-width:0.5;" x1="526.5" x2="657.5" y1="667.1358" y2="667.1358"/></g><!--class Secuencia--><g id="elem_Secuencia"><rect codeLine="73" fill="#F1F1F1" height="86.1358" id="Secuencia" rx="2.5" ry="2.5" style="stroke:#181818;stroke-width:0.5;" width="118" x="694" y="589"/><ellipse cx="717.1" cy="605" fill="#ADD1B2" rx="11" ry="11" style="stroke:#181818;stroke-width:1.0;"/><path d="M720.0688,610.6406 Q719.4906,610.9375 718.85,611.0781 Q718.2094,611.2344 717.5063,611.2344 Q715.0063,611.2344 713.6781,609.5938 Q712.3656,607.9375 712.3656,604.8125 Q712.3656,601.6875 713.6781,600.0313 Q715.0063,598.375 717.5063,598.375 Q718.2094,598.375 718.85,598.5313 Q719.5063,598.6875 720.0688,598.9844 L720.0688,601.7031 Q719.4438,601.125 718.85,600.8594 Q718.2563,600.5781 717.6313,600.5781 Q716.2875,600.5781 715.6,601.6563 Q714.9125,602.7188 714.9125,604.8125 Q714.9125,606.9063 715.6,607.9844 Q716.2875,609.0469 717.6313,609.0469 Q718.2563,609.0469 718.85,608.7813 Q719.4438,608.5 720.0688,607.9219 L720.0688,610.6406 Z " fill="#000000"/><text fill="#000000" font-family="sans-serif" font-size="14" lengthAdjust="spacing" textLength="68" x="732.9" y="610.432">Secuencia</text><line style="stroke:#181818;stroke-width:0.5;" x1="695" x2="811" y1="621" y2="621"/><text fill="#000000" font-family="sans-serif" font-size="14" lengthAdjust="spacing" textLength="81" x="700" y="639.9659">// secuencia</text><text fill="#000000" font-family="sans-serif" font-size="14" lengthAdjust="spacing" textLength="106" x="700" y="659.0339">// con mensajes</text><line style="stroke:#181818;stroke-width:0.5;" x1="695" x2="811" y1="667.1358" y2="667.1358"/></g><!--class Diagrama--><g id="elem_Diagrama"><rect codeLine="4" fill="#F1F1F1" height="48" id="Diagrama" rx="2.5" ry="2.5" style="stroke:#181818;stroke-width:0.5;" width="95" x="451.5" y="7"/><ellipse cx="466.5" cy="23" fill="#A9DCDF" rx="11" ry="11" style="stroke:#181818;stroke-width:1.0;"/><path d="M466.6094,18.3438 L465.4531,23.4219 L467.7813,23.4219 L466.6094,18.3438 Z M465.125,16.1094 L468.1094,16.1094 L471.4688,28.5 L469.0156,28.5 L468.25,25.4375 L464.9688,25.4375 L464.2188,28.5 L461.7813,28.5 L465.125,16.1094 Z " fill="#000000"/><text fill="#000000" font-family="sans-serif" font-size="14" font-style="italic" lengthAdjust="spacing" textLength="63" x="480.5" y="28.432">Diagrama</text><line style="stroke:#181818;stroke-width:0.5;" x1="452.5" x2="545.5" y1="39" y2="39"/><line style="stroke:#181818;stroke-width:0.5;" x1="452.5" x2="545.5" y1="47" y2="47"/></g><!--reverse link Diagrama to Estructural--><g id="link_Diagrama_Estructural"><path codeLine="83" d="M439.5502,63.4289 C425.3202,70.9589 429,69 429,69 C429,69 401.29,92.22 374.35,114.8 " fill="none" id="Diagrama-backto-Estructural" style="stroke:#181818;stroke-width:1.0;"/><polygon fill="none" points="455.46,55.01,436.7439,58.1256,442.3565,68.7322,455.46,55.01" style="stroke:#181818;stroke-width:1.0;"/></g><!--reverse link Diagrama to Comportamiento--><g id="link_Diagrama_Comportamiento"><path codeLine="84" d="M546.3662,65.6416 C569.9262,82.3716 587.71,95 615.77,114.94 " fill="none" id="Diagrama-backto-Comportamiento" style="stroke:#181818;stroke-width:1.0;"/><polygon fill="none" points="531.69,55.22,542.8923,70.5337,549.8401,60.7495,531.69,55.22" style="stroke:#181818;stroke-width:1.0;"/></g><!--reverse link Estructural to Clases--><g id="link_Estructural_Clases"><path codeLine="86" d="M242.2084,191.7174 C205.6484,206.3474 184,215 184,215 C184,215 157.22,245.21 135.04,270.23 " fill="none" id="Estructural-backto-Clases" style="stroke:#181818;stroke-width:1.0;"/><polygon fill="none" points="258.92,185.03,239.9792,186.1469,244.4375,197.2879,258.92,185.03" style="stroke:#181818;stroke-width:1.0;"/></g><!--reverse link Estructural to Objetos--><g id="link_Estructural_Objetos"><path codeLine="87" d="M297.229,217.4026 C288.629,236.1626 286.02,241.86 277.41,260.66 " fill="none" id="Estructural-backto-Objetos" style="stroke:#181818;stroke-width:1.0;"/><polygon fill="none" points="304.73,201.04,291.7748,214.9023,302.6832,219.9029,304.73,201.04" style="stroke:#181818;stroke-width:1.0;"/></g><!--reverse link Clases to Componentes--><g id="link_Clases_Componentes"><path codeLine="88" d="M106.9404,355.777 C107.4004,380.837 107.71,397.57 108.22,424.72 " fill="none" id="Clases-backto-Componentes" style="stroke:#181818;stroke-width:1.0;"/><polygon fill="none" points="106.61,337.78,100.9414,355.8871,112.9393,355.6669,106.61,337.78" style="stroke:#181818;stroke-width:1.0;"/></g><!--reverse link Clases to Despliegue--><g id="link_Clases_Despliegue"><path codeLine="89" d="M156.0823,349.6522 C178.3123,369.4822 189,379 189,379 C189,379 208,402.22 226.48,424.8 " fill="none" id="Clases-backto-Despliegue" style="stroke:#181818;stroke-width:1.0;"/><polygon fill="none" points="142.65,337.67,152.0883,354.1296,160.0764,345.1747,142.65,337.67" style="stroke:#181818;stroke-width:1.0;"/></g><!--reverse link Estructural to Paquetes--><g id="link_Estructural_Paquetes"><path codeLine="90" d="M331.4943,219.022 C331.4943,219.022 331,535 331,535 C331,535 321.93,563.1 313.6,588.89 " fill="none" id="Estructural-backto-Paquetes" style="stroke:#181818;stroke-width:1.0;"/><polygon fill="none" points="329.27,201.16,325.5403,219.7635,337.4483,218.2806,329.27,201.16" style="stroke:#181818;stroke-width:1.0;"/></g><!--reverse link Estructural to EstructuraCompuesta--><g id="link_Estructural_EstructuraCompuesta"><path codeLine="91" d="M341.0022,218.4625 C341.0022,218.4625 369,543 369,543 C369,543 369,699 369,699 C369,699 359.68,717.36 350.81,734.85 " fill="none" id="Estructural-backto-EstructuraCompuesta" style="stroke:#181818;stroke-width:1.0;"/><polygon fill="none" points="336.04,201.16,335.2347,220.1166,346.7697,216.8084,336.04,201.16" style="stroke:#181818;stroke-width:1.0;"/></g><!--reverse link Comportamiento to CasosUso--><g id="link_Comportamiento_CasosUso"><path codeLine="93" d="M744.2451,212.1115 C754.6151,220.0615 748,215 748,215 C748,215 769.11,238.22 789.64,260.8 " fill="none" id="Comportamiento-backto-CasosUso" style="stroke:#181818;stroke-width:1.0;"/><polygon fill="none" points="729.96,201.16,740.5946,216.8732,747.8956,207.3498,729.96,201.16" style="stroke:#181818;stroke-width:1.0;"/></g><!--reverse link Comportamiento to Estados--><g id="link_Comportamiento_Estados"><path codeLine="94" d="M604.9344,212.0189 C594.4244,219.9689 601,215 601,215 C601,215 581.21,238.22 561.96,260.8 " fill="none" id="Comportamiento-backto-Estados" style="stroke:#181818;stroke-width:1.0;"/><polygon fill="none" points="619.29,201.16,601.3147,207.2337,608.554,216.8041,619.29,201.16" style="stroke:#181818;stroke-width:1.0;"/></g><!--reverse link Comportamiento to Actividad--><g id="link_Comportamiento_Actividad"><path codeLine="95" d="M675,219.04 C675,237.8 675,241.86 675,260.66 " fill="none" id="Comportamiento-backto-Actividad" style="stroke:#181818;stroke-width:1.0;"/><polygon fill="none" points="675,201.04,669,219.04,681,219.04,675,201.04" style="stroke:#181818;stroke-width:1.0;"/></g><!--reverse link Comportamiento to Interacci?n--><g id="link_Comportamiento_Interacci&#243;n"><path codeLine="96" d="M762.1133,180.1209 C830.1333,196.6109 906,215 906,215 C906,215 906,371 906,371 C906,371 889.02,399.1 873.44,424.89 " fill="none" id="Comportamiento-backto-Interacci&#243;n" style="stroke:#181818;stroke-width:1.0;"/><polygon fill="none" points="744.62,175.88,760.6997,185.952,763.5269,174.2898,744.62,175.88" style="stroke:#181818;stroke-width:1.0;"/></g><!--reverse link Interacci?n to Comunicaci?n--><g id="link_Interacci&#243;n_Comunicaci&#243;n"><path codeLine="98" d="M758.4605,507.7489 C711.9905,527.8589 677,543 677,543 C677,543 654.57,566.22 632.76,588.8 " fill="none" id="Interacci&#243;n-backto-Comunicaci&#243;n" style="stroke:#181818;stroke-width:1.0;"/><polygon fill="none" points="774.98,500.6,756.0775,502.2424,760.8434,513.2554,774.98,500.6" style="stroke:#181818;stroke-width:1.0;"/></g><!--reverse link Interacci?n to Secuencia--><g id="link_Interacci&#243;n_Secuencia"><path codeLine="99" d="M814.1852,526.6675 C800.1652,550.5775 791.78,564.87 777.75,588.79 " fill="none" id="Interacci&#243;n-backto-Secuencia" style="stroke:#181818;stroke-width:1.0;"/><polygon fill="none" points="823.29,511.14,809.0094,523.6326,819.361,529.7024,823.29,511.14" style="stroke:#181818;stroke-width:1.0;"/></g><!--reverse link Interacci?n to InteraccionGeneral--><g id="link_Interacci&#243;n_InteraccionGeneral"><path codeLine="100" d="M842.7715,529.1224 C837.0015,595.5124 828,699 828,699 C828,699 808,717.36 788.94,734.85 " fill="none" id="Interacci&#243;n-backto-InteraccionGeneral" style="stroke:#181818;stroke-width:1.0;"/><polygon fill="none" points="844.33,511.19,836.794,528.6029,848.7489,529.6419,844.33,511.19" style="stroke:#181818;stroke-width:1.0;"/></g><!--reverse link Interacci?n to Tiempo--><g id="link_Interacci&#243;n_Tiempo"><path codeLine="101" d="M855.485,529.102 C863.405,592.682 875.9,692.97 882.11,742.84 " fill="none" id="Interacci&#243;n-backto-Tiempo" style="stroke:#181818;stroke-width:1.0;"/><polygon fill="none" points="853.26,511.24,849.531,529.8436,861.439,528.3603,853.26,511.24" style="stroke:#181818;stroke-width:1.0;"/></g><!--link Clases to Objetos--><!--link Componentes to Despliegue--><!--link Estados to Actividad--><!--link Comunicaci?n to Secuencia--><!--SRC=[XLJDRjGm4BxxAQmzbKFK5-02RK4z89204-KmwynclKtiO3ijAzY7uHbuXBuO4yTnxFm8QREIv_URcM_6FahLWe66rrAXExV8MrsV-mTZiBVEW71Sr60jlvLGaIKmre9uX0hvxeuCEk4w0pLQVdNGJjjNEmwMOwRvnJYVHKjSlPhpwsikj2LV1wgIU_8RnSYbIeKN-kWNORnz-MCb-Uv2f2733Vs7t25EYLOOsGgfLGX-IUm_xaz8-5C7ePKmcDYFqhu-A7MCCKTqtxGrDaYeXNpvgsR0TDDIHELoT5OVt3COpF1Ic0gex0NQsrudiUemZQ5q0ELVHp1bZ9Z0729yWXyTJXZ8dkRRjGFYQI84ywVhe9wx9yD_K7r9NTyJF_n94-Niaj36Dy0uQ2GrWJf-zIHB79aZPieLxkJ-4twoKVQWJPFNW3IkcZk9vBMeuWOi9IcHVxNQv_S2UanXhRGEYVUn9OtcdP8bb2kJVrTt9vtF-yvp9PyrYWwLa42P9-b0gYKptmWdd_fy_my1esb2y01nriHx6YmzVQVI3LHS-qNWs4YhpQWuSre4R9sNp8l-WCh22Us2vzGc0McAaAI6lJP1aS9lGg152px7QjTQaE_c8aW-yRJm1_KU5RrgF_geqQCuUdqPs4Ci7iyWV_sxAFMpAj9JjgBDoSfOUlWc8t-hrdNXBh5mp_B0mnbPwARhi1gpAEBsR-YBrILciysRi8IbsJG8Ex2fZnJViYWomZAMqJVjoKIv3Pj8fNLziKQ33Sl0Yh7znRUZB4jKtusiZYwPN7BmvpRvfFoTc9jalKasQcut5VOF]--></g></svg>