<?xml version="1.0" encoding="us-ascii" standalone="no"?><svg xmlns="http://www.w3.org/2000/svg" xmlns:xlink="http://www.w3.org/1999/xlink" contentStyleType="text/css" height="896px" preserveAspectRatio="none" style="width:1027px;height:896px;background:#FFFFFF;" version="1.1" viewBox="0 0 1027 896" width="1027px" zoomAndPan="magnify"><defs/><g><!--cluster estructurales--><g id="cluster_estructurales"><path d="M8.5,77 L150.5,77 A3.75,3.75 0 0 1 153,79.5 L160,102.0679 L454.5,102.0679 A2.5,2.5 0 0 1 457,104.5679 L457,886.5 A2.5,2.5 0 0 1 454.5,889 L8.5,889 A2.5,2.5 0 0 1 6,886.5 L6,79.5 A2.5,2.5 0 0 1 8.5,77 " fill="none" style="stroke:#000000;stroke-width:1.5;"/><line style="stroke:#000000;stroke-width:1.5;" x1="6" x2="160" y1="102.0679" y2="102.0679"/><text fill="#000000" font-family="sans-serif" font-size="14" font-weight="bold" lengthAdjust="spacing" textLength="141" x="10" y="93.9659">estructurales (fotos)</text></g><!--cluster A--><g id="cluster_A"><path d="M44.5,225 L49.5,225 A3.75,3.75 0 0 1 52,227.5 L59,250.0679 L375.5,250.0679 A2.5,2.5 0 0 1 378,252.5679 L378,378.5 A2.5,2.5 0 0 1 375.5,381 L44.5,381 A2.5,2.5 0 0 1 42,378.5 L42,227.5 A2.5,2.5 0 0 1 44.5,225 " fill="none" style="stroke:#000000;stroke-width:1.5;"/><line style="stroke:#000000;stroke-width:1.5;" x1="42" x2="59" y1="250.0679" y2="250.0679"/><text fill="#000000" font-family="sans-serif" font-size="14" font-weight="bold" lengthAdjust="spacing" textLength="4" x="46" y="241.9659">&#160;</text></g><!--cluster B--><g id="cluster_B"><path d="M40.5,421 L45.5,421 A3.75,3.75 0 0 1 48,423.5 L55,446.0679 L375.5,446.0679 A2.5,2.5 0 0 1 378,448.5679 L378,574.5 A2.5,2.5 0 0 1 375.5,577 L40.5,577 A2.5,2.5 0 0 1 38,574.5 L38,423.5 A2.5,2.5 0 0 1 40.5,421 " fill="none" style="stroke:#000000;stroke-width:1.5;"/><line style="stroke:#000000;stroke-width:1.5;" x1="38" x2="55" y1="446.0679" y2="446.0679"/><text fill="#000000" font-family="sans-serif" font-size="14" font-weight="bold" lengthAdjust="spacing" textLength="4" x="42" y="437.9659">&#160;</text></g><!--cluster comportamientos--><g id="cluster_comportamientos"><path d="M483.5,77 L668.5,77 A3.75,3.75 0 0 1 671,79.5 L678,102.0679 L1017.5,102.0679 A2.5,2.5 0 0 1 1020,104.5679 L1020,886.5 A2.5,2.5 0 0 1 1017.5,889 L483.5,889 A2.5,2.5 0 0 1 481,886.5 L481,79.5 A2.5,2.5 0 0 1 483.5,77 " fill="none" style="stroke:#000000;stroke-width:1.5;"/><line style="stroke:#000000;stroke-width:1.5;" x1="481" x2="678" y1="102.0679" y2="102.0679"/><text fill="#000000" font-family="sans-serif" font-size="14" font-weight="bold" lengthAdjust="spacing" textLength="184" x="485" y="93.9659">comportamientos (videos)</text></g><!--cluster C--><g id="cluster_C"><path d="M650.5,225 L655.5,225 A3.75,3.75 0 0 1 658,227.5 L665,250.0679 L975.5,250.0679 A2.5,2.5 0 0 1 978,252.5679 L978,378.5 A2.5,2.5 0 0 1 975.5,381 L650.5,381 A2.5,2.5 0 0 1 648,378.5 L648,227.5 A2.5,2.5 0 0 1 650.5,225 " fill="none" style="stroke:#000000;stroke-width:1.5;"/><line style="stroke:#000000;stroke-width:1.5;" x1="648" x2="665" y1="250.0679" y2="250.0679"/><text fill="#000000" font-family="sans-serif" font-size="14" font-weight="bold" lengthAdjust="spacing" textLength="4" x="652" y="241.9659">&#160;</text></g><!--cluster D--><g id="cluster_D"><path d="M571.5,617 L576.5,617 A3.75,3.75 0 0 1 579,619.5 L586,642.0679 L920.5,642.0679 A2.5,2.5 0 0 1 923,644.5679 L923,770.5 A2.5,2.5 0 0 1 920.5,773 L571.5,773 A2.5,2.5 0 0 1 569,770.5 L569,619.5 A2.5,2.5 0 0 1 571.5,617 " fill="none" style="stroke:#000000;stroke-width:1.5;"/><line style="stroke:#000000;stroke-width:1.5;" x1="569" x2="586" y1="642.0679" y2="642.0679"/><text fill="#000000" font-family="sans-serif" font-size="14" font-weight="bold" lengthAdjust="spacing" textLength="4" x="573" y="633.9659">&#160;</text></g><!--class DiagramaEstructural--><g id="elem_DiagramaEstructural"><rect codeLine="8" fill="#F1F1F1" height="86.1358" id="DiagramaEstructural" rx="2.5" ry="2.5" style="stroke:#181818;stroke-width:0.5;" width="130" x="311" y="115"/><ellipse cx="339.05" cy="131" fill="#A9DCDF" rx="11" ry="11" style="stroke:#181818;stroke-width:1.0;"/><path d="M339.1594,126.3438 L338.0031,131.4219 L340.3313,131.4219 L339.1594,126.3438 Z M337.675,124.1094 L340.6594,124.1094 L344.0188,136.5 L341.5656,136.5 L340.8,133.4375 L337.5188,133.4375 L336.7688,136.5 L334.3313,136.5 L337.675,124.1094 Z " fill="#000000"/><text fill="#000000" font-family="sans-serif" font-size="14" font-style="italic" lengthAdjust="spacing" textLength="69" x="355.95" y="136.432">Estructural</text><line style="stroke:#181818;stroke-width:0.5;" x1="312" x2="440" y1="147" y2="147"/><text fill="#000000" font-family="sans-serif" font-size="14" lengthAdjust="spacing" textLength="118" x="317" y="165.9659">// cosas tangibles</text><text fill="#000000" font-family="sans-serif" font-size="14" lengthAdjust="spacing" textLength="102" x="317" y="185.0339">// e intangibles</text><line style="stroke:#181818;stroke-width:0.5;" x1="312" x2="440" y1="193.1358" y2="193.1358"/></g><!--class DiagramaPaquetes--><g id="elem_DiagramaPaquetes"><rect codeLine="31" fill="#F1F1F1" height="86.1358" id="DiagramaPaquetes" rx="2.5" ry="2.5" style="stroke:#181818;stroke-width:0.5;" width="103" x="300.5" y="663"/><ellipse cx="318.65" cy="679" fill="#ADD1B2" rx="11" ry="11" style="stroke:#181818;stroke-width:1.0;"/><path d="M321.6188,684.6406 Q321.0406,684.9375 320.4,685.0781 Q319.7594,685.2344 319.0563,685.2344 Q316.5563,685.2344 315.2281,683.5938 Q313.9156,681.9375 313.9156,678.8125 Q313.9156,675.6875 315.2281,674.0313 Q316.5563,672.375 319.0563,672.375 Q319.7594,672.375 320.4,672.5313 Q321.0563,672.6875 321.6188,672.9844 L321.6188,675.7031 Q320.9938,675.125 320.4,674.8594 Q319.8063,674.5781 319.1813,674.5781 Q317.8375,674.5781 317.15,675.6563 Q316.4625,676.7188 316.4625,678.8125 Q316.4625,680.9063 317.15,681.9844 Q317.8375,683.0469 319.1813,683.0469 Q319.8063,683.0469 320.4,682.7813 Q320.9938,682.5 321.6188,681.9219 L321.6188,684.6406 Z " fill="#000000"/><text fill="#000000" font-family="sans-serif" font-size="14" font-weight="bold" lengthAdjust="spacing" textLength="64" x="333.35" y="684.432">Paquetes</text><line style="stroke:#181818;stroke-width:0.5;" x1="301.5" x2="402.5" y1="695" y2="695"/><text fill="#000000" font-family="sans-serif" font-size="14" lengthAdjust="spacing" textLength="91" x="306.5" y="713.9659">// agrupaci&#243;n</text><text fill="#000000" font-family="sans-serif" font-size="14" lengthAdjust="spacing" textLength="84" x="306.5" y="733.0339">// contextual</text><line style="stroke:#181818;stroke-width:0.5;" x1="301.5" x2="402.5" y1="741.1358" y2="741.1358"/></g><!--class DiagramaEstructuraCompuesta--><g id="elem_DiagramaEstructuraCompuesta"><rect codeLine="35" fill="#F1F1F1" height="64.1358" id="DiagramaEstructuraCompuesta" rx="2.5" ry="2.5" style="stroke:#181818;stroke-width:0.5;" width="108" x="315" y="809"/><ellipse cx="330" cy="833.0679" fill="#ADD1B2" rx="11" ry="11" style="stroke:#181818;stroke-width:1.0;"/><path d="M332.9688,838.7085 Q332.3906,839.0054 331.75,839.146 Q331.1094,839.3023 330.4063,839.3023 Q327.9063,839.3023 326.5781,837.6617 Q325.2656,836.0054 325.2656,832.8804 Q325.2656,829.7554 326.5781,828.0992 Q327.9063,826.4429 330.4063,826.4429 Q331.1094,826.4429 331.75,826.5992 Q332.4063,826.7554 332.9688,827.0523 L332.9688,829.771 Q332.3438,829.1929 331.75,828.9273 Q331.1563,828.646 330.5313,828.646 Q329.1875,828.646 328.5,829.7242 Q327.8125,830.7867 327.8125,832.8804 Q327.8125,834.9742 328.5,836.0523 Q329.1875,837.1148 330.5313,837.1148 Q331.1563,837.1148 331.75,836.8492 Q332.3438,836.5679 332.9688,835.9898 L332.9688,838.7085 Z " fill="#000000"/><text fill="#000000" font-family="sans-serif" font-size="14" lengthAdjust="spacing" textLength="70" x="347" y="828.9659">Estructura</text><text fill="#000000" font-family="sans-serif" font-size="14" lengthAdjust="spacing" textLength="76" x="344" y="848.0339">Compuesta</text><line style="stroke:#181818;stroke-width:0.5;" x1="316" x2="422" y1="857.1358" y2="857.1358"/><line style="stroke:#181818;stroke-width:0.5;" x1="316" x2="422" y1="865.1358" y2="865.1358"/></g><!--class DiagramaClases--><g id="elem_DiagramaClases"><rect codeLine="13" fill="#F1F1F1" height="67.0679" id="DiagramaClases" rx="2.5" ry="2.5" style="stroke:#181818;stroke-width:0.5;" width="119" x="85.5" y="280.5"/><ellipse cx="120.3" cy="296.5" fill="#ADD1B2" rx="11" ry="11" style="stroke:#181818;stroke-width:1.0;"/><path d="M123.2688,302.1406 Q122.6906,302.4375 122.05,302.5781 Q121.4094,302.7344 120.7063,302.7344 Q118.2063,302.7344 116.8781,301.0938 Q115.5656,299.4375 115.5656,296.3125 Q115.5656,293.1875 116.8781,291.5313 Q118.2063,289.875 120.7063,289.875 Q121.4094,289.875 122.05,290.0313 Q122.7063,290.1875 123.2688,290.4844 L123.2688,293.2031 Q122.6438,292.625 122.05,292.3594 Q121.4563,292.0781 120.8313,292.0781 Q119.4875,292.0781 118.8,293.1563 Q118.1125,294.2188 118.1125,296.3125 Q118.1125,298.4063 118.8,299.4844 Q119.4875,300.5469 120.8313,300.5469 Q121.4563,300.5469 122.05,300.2813 Q122.6438,300 123.2688,299.4219 L123.2688,302.1406 Z " fill="#000000"/><text fill="#000000" font-family="sans-serif" font-size="14" font-weight="bold" lengthAdjust="spacing" textLength="43" x="138.7" y="301.932">Clases</text><line style="stroke:#181818;stroke-width:0.5;" x1="86.5" x2="203.5" y1="312.5" y2="312.5"/><text fill="#000000" font-family="sans-serif" font-size="14" lengthAdjust="spacing" textLength="107" x="91.5" y="331.4659">// descripciones</text><line style="stroke:#181818;stroke-width:0.5;" x1="86.5" x2="203.5" y1="339.5679" y2="339.5679"/></g><!--class DiagramaObjetos--><g id="elem_DiagramaObjetos"><rect codeLine="16" fill="#F1F1F1" height="86.1358" id="DiagramaObjetos" rx="2.5" ry="2.5" style="stroke:#181818;stroke-width:0.5;" width="114" x="240" y="271"/><ellipse cx="267.6" cy="287" fill="#ADD1B2" rx="11" ry="11" style="stroke:#181818;stroke-width:1.0;"/><path d="M270.5688,292.6406 Q269.9906,292.9375 269.35,293.0781 Q268.7094,293.2344 268.0063,293.2344 Q265.5063,293.2344 264.1781,291.5938 Q262.8656,289.9375 262.8656,286.8125 Q262.8656,283.6875 264.1781,282.0313 Q265.5063,280.375 268.0063,280.375 Q268.7094,280.375 269.35,280.5313 Q270.0063,280.6875 270.5688,280.9844 L270.5688,283.7031 Q269.9438,283.125 269.35,282.8594 Q268.7563,282.5781 268.1313,282.5781 Q266.7875,282.5781 266.1,283.6563 Q265.4125,284.7188 265.4125,286.8125 Q265.4125,288.9063 266.1,289.9844 Q266.7875,291.0469 268.1313,291.0469 Q268.7563,291.0469 269.35,290.7813 Q269.9438,290.5 270.5688,289.9219 L270.5688,292.6406 Z " fill="#000000"/><text fill="#000000" font-family="sans-serif" font-size="14" font-weight="bold" lengthAdjust="spacing" textLength="54" x="284.4" y="292.432">Objetos</text><line style="stroke:#181818;stroke-width:0.5;" x1="241" x2="353" y1="303" y2="303"/><text fill="#000000" font-family="sans-serif" font-size="14" lengthAdjust="spacing" textLength="102" x="246" y="321.9659">// concreciones</text><text fill="#000000" font-family="sans-serif" font-size="14" lengthAdjust="spacing" textLength="87" x="246" y="341.0339">// con estado</text><line style="stroke:#181818;stroke-width:0.5;" x1="241" x2="353" y1="349.1358" y2="349.1358"/></g><!--class DiagramaComponentes--><g id="elem_DiagramaComponentes"><rect codeLine="22" fill="#F1F1F1" height="86.1358" id="DiagramaComponentes" rx="2.5" ry="2.5" style="stroke:#181818;stroke-width:0.5;" width="129" x="81.5" y="467"/><ellipse cx="96.5" cy="483" fill="#ADD1B2" rx="11" ry="11" style="stroke:#181818;stroke-width:1.0;"/><path d="M99.4688,488.6406 Q98.8906,488.9375 98.25,489.0781 Q97.6094,489.2344 96.9063,489.2344 Q94.4063,489.2344 93.0781,487.5938 Q91.7656,485.9375 91.7656,482.8125 Q91.7656,479.6875 93.0781,478.0313 Q94.4063,476.375 96.9063,476.375 Q97.6094,476.375 98.25,476.5313 Q98.9063,476.6875 99.4688,476.9844 L99.4688,479.7031 Q98.8438,479.125 98.25,478.8594 Q97.6563,478.5781 97.0313,478.5781 Q95.6875,478.5781 95,479.6563 Q94.3125,480.7188 94.3125,482.8125 Q94.3125,484.9063 95,485.9844 Q95.6875,487.0469 97.0313,487.0469 Q97.6563,487.0469 98.25,486.7813 Q98.8438,486.5 99.4688,485.9219 L99.4688,488.6406 Z " fill="#000000"/><text fill="#000000" font-family="sans-serif" font-size="14" font-weight="bold" lengthAdjust="spacing" textLength="97" x="110.5" y="488.432">Componentes</text><line style="stroke:#181818;stroke-width:0.5;" x1="82.5" x2="209.5" y1="499" y2="499"/><text fill="#000000" font-family="sans-serif" font-size="14" lengthAdjust="spacing" textLength="72" x="87.5" y="517.9659">// software</text><text fill="#000000" font-family="sans-serif" font-size="14" lengthAdjust="spacing" textLength="97" x="87.5" y="537.0339">// desplegable</text><line style="stroke:#181818;stroke-width:0.5;" x1="82.5" x2="209.5" y1="545.1358" y2="545.1358"/></g><!--class DiagramaDespliegue--><g id="elem_DiagramaDespliegue"><rect codeLine="26" fill="#F1F1F1" height="86.1358" id="DiagramaDespliegue" rx="2.5" ry="2.5" style="stroke:#181818;stroke-width:0.5;" width="108" x="246" y="467"/><ellipse cx="261" cy="483" fill="#ADD1B2" rx="11" ry="11" style="stroke:#181818;stroke-width:1.0;"/><path d="M263.9688,488.6406 Q263.3906,488.9375 262.75,489.0781 Q262.1094,489.2344 261.4063,489.2344 Q258.9063,489.2344 257.5781,487.5938 Q256.2656,485.9375 256.2656,482.8125 Q256.2656,479.6875 257.5781,478.0313 Q258.9063,476.375 261.4063,476.375 Q262.1094,476.375 262.75,476.5313 Q263.4063,476.6875 263.9688,476.9844 L263.9688,479.7031 Q263.3438,479.125 262.75,478.8594 Q262.1563,478.5781 261.5313,478.5781 Q260.1875,478.5781 259.5,479.6563 Q258.8125,480.7188 258.8125,482.8125 Q258.8125,484.9063 259.5,485.9844 Q260.1875,487.0469 261.5313,487.0469 Q262.1563,487.0469 262.75,486.7813 Q263.3438,486.5 263.9688,485.9219 L263.9688,488.6406 Z " fill="#000000"/><text fill="#000000" font-family="sans-serif" font-size="14" font-weight="bold" lengthAdjust="spacing" textLength="76" x="275" y="488.432">Despliegue</text><line style="stroke:#181818;stroke-width:0.5;" x1="247" x2="353" y1="499" y2="499"/><text fill="#000000" font-family="sans-serif" font-size="14" lengthAdjust="spacing" textLength="48" x="252" y="517.9659">// nodo</text><text fill="#000000" font-family="sans-serif" font-size="14" lengthAdjust="spacing" textLength="79" x="252" y="537.0339">// hardware</text><line style="stroke:#181818;stroke-width:0.5;" x1="247" x2="353" y1="545.1358" y2="545.1358"/></g><!--class DiagramaComportamiento--><g id="elem_DiagramaComportamiento"><rect codeLine="38" fill="#F1F1F1" height="86.1358" id="DiagramaComportamiento" rx="2.5" ry="2.5" style="stroke:#181818;stroke-width:0.5;" width="139" x="678.5" y="115"/><ellipse cx="693.5" cy="131" fill="#A9DCDF" rx="11" ry="11" style="stroke:#181818;stroke-width:1.0;"/><path d="M693.6094,126.3438 L692.4531,131.4219 L694.7813,131.4219 L693.6094,126.3438 Z M692.125,124.1094 L695.1094,124.1094 L698.4688,136.5 L696.0156,136.5 L695.25,133.4375 L691.9688,133.4375 L691.2188,136.5 L688.7813,136.5 L692.125,124.1094 Z " fill="#000000"/><text fill="#000000" font-family="sans-serif" font-size="14" font-style="italic" lengthAdjust="spacing" textLength="107" x="707.5" y="136.432">Comportamiento</text><line style="stroke:#181818;stroke-width:0.5;" x1="679.5" x2="816.5" y1="147" y2="147"/><text fill="#000000" font-family="sans-serif" font-size="14" lengthAdjust="spacing" textLength="117" x="684.5" y="165.9659">// transformaci&#243;n</text><text fill="#000000" font-family="sans-serif" font-size="14" lengthAdjust="spacing" textLength="98" x="684.5" y="185.0339">// en el tiempo</text><line style="stroke:#181818;stroke-width:0.5;" x1="679.5" x2="816.5" y1="193.1358" y2="193.1358"/></g><!--class DiagramaCasosUso--><g id="elem_DiagramaCasosUso"><rect codeLine="42" fill="#F1F1F1" height="86.1358" id="DiagramaCasosUso" rx="2.5" ry="2.5" style="stroke:#181818;stroke-width:0.5;" width="124" x="497" y="271"/><ellipse cx="512" cy="287" fill="#ADD1B2" rx="11" ry="11" style="stroke:#181818;stroke-width:1.0;"/><path d="M514.9688,292.6406 Q514.3906,292.9375 513.75,293.0781 Q513.1094,293.2344 512.4063,293.2344 Q509.9063,293.2344 508.5781,291.5938 Q507.2656,289.9375 507.2656,286.8125 Q507.2656,283.6875 508.5781,282.0313 Q509.9063,280.375 512.4063,280.375 Q513.1094,280.375 513.75,280.5313 Q514.4063,280.6875 514.9688,280.9844 L514.9688,283.7031 Q514.3438,283.125 513.75,282.8594 Q513.1563,282.5781 512.5313,282.5781 Q511.1875,282.5781 510.5,283.6563 Q509.8125,284.7188 509.8125,286.8125 Q509.8125,288.9063 510.5,289.9844 Q511.1875,291.0469 512.5313,291.0469 Q513.1563,291.0469 513.75,290.7813 Q514.3438,290.5 514.9688,289.9219 L514.9688,292.6406 Z " fill="#000000"/><text fill="#000000" font-family="sans-serif" font-size="14" font-weight="bold" lengthAdjust="spacing" textLength="92" x="526" y="292.432">Casos de Uso</text><line style="stroke:#181818;stroke-width:0.5;" x1="498" x2="620" y1="303" y2="303"/><text fill="#000000" font-family="sans-serif" font-size="14" lengthAdjust="spacing" textLength="66" x="503" y="321.9659">// sistema</text><text fill="#000000" font-family="sans-serif" font-size="14" lengthAdjust="spacing" textLength="102" x="503" y="341.0339">// como unidad</text><line style="stroke:#181818;stroke-width:0.5;" x1="498" x2="620" y1="349.1358" y2="349.1358"/></g><!--class DiagramaInteraccion--><g id="elem_DiagramaInteraccion"><rect codeLine="56" fill="#F1F1F1" height="86.1358" id="DiagramaInteraccion" rx="2.5" ry="2.5" style="stroke:#181818;stroke-width:0.5;" width="146" x="618" y="467"/><ellipse cx="652.35" cy="483" fill="#A9DCDF" rx="11" ry="11" style="stroke:#181818;stroke-width:1.0;"/><path d="M652.4594,478.3438 L651.3031,483.4219 L653.6313,483.4219 L652.4594,478.3438 Z M650.975,476.1094 L653.9594,476.1094 L657.3188,488.5 L654.8656,488.5 L654.1,485.4375 L650.8188,485.4375 L650.0688,488.5 L647.6313,488.5 L650.975,476.1094 Z " fill="#000000"/><text fill="#000000" font-family="sans-serif" font-size="14" font-style="italic" lengthAdjust="spacing" textLength="71" x="670.65" y="488.432">Interacci&#243;n</text><line style="stroke:#181818;stroke-width:0.5;" x1="619" x2="763" y1="499" y2="499"/><text fill="#000000" font-family="sans-serif" font-size="14" lengthAdjust="spacing" textLength="134" x="624" y="517.9659">// con objeto emisor</text><text fill="#000000" font-family="sans-serif" font-size="14" lengthAdjust="spacing" textLength="82" x="624" y="537.0339">// y receptor</text><line style="stroke:#181818;stroke-width:0.5;" x1="619" x2="763" y1="545.1358" y2="545.1358"/></g><!--class DiagramaInteraccionGeneral--><g id="elem_DiagramaInteraccionGeneral"><rect codeLine="70" fill="#F1F1F1" height="64.1358" id="DiagramaInteraccionGeneral" rx="2.5" ry="2.5" style="stroke:#181818;stroke-width:0.5;" width="108" x="518" y="809"/><ellipse cx="533" cy="833.0679" fill="#ADD1B2" rx="11" ry="11" style="stroke:#181818;stroke-width:1.0;"/><path d="M535.9688,838.7085 Q535.3906,839.0054 534.75,839.146 Q534.1094,839.3023 533.4063,839.3023 Q530.9063,839.3023 529.5781,837.6617 Q528.2656,836.0054 528.2656,832.8804 Q528.2656,829.7554 529.5781,828.0992 Q530.9063,826.4429 533.4063,826.4429 Q534.1094,826.4429 534.75,826.5992 Q535.4063,826.7554 535.9688,827.0523 L535.9688,829.771 Q535.3438,829.1929 534.75,828.9273 Q534.1563,828.646 533.5313,828.646 Q532.1875,828.646 531.5,829.7242 Q530.8125,830.7867 530.8125,832.8804 Q530.8125,834.9742 531.5,836.0523 Q532.1875,837.1148 533.5313,837.1148 Q534.1563,837.1148 534.75,836.8492 Q535.3438,836.5679 535.9688,835.9898 L535.9688,838.7085 Z " fill="#000000"/><text fill="#000000" font-family="sans-serif" font-size="14" lengthAdjust="spacing" textLength="76" x="547" y="828.9659">Interacci&#243;n</text><text fill="#000000" font-family="sans-serif" font-size="14" lengthAdjust="spacing" textLength="53" x="558.5" y="848.0339">General</text><line style="stroke:#181818;stroke-width:0.5;" x1="519" x2="625" y1="857.1358" y2="857.1358"/><line style="stroke:#181818;stroke-width:0.5;" x1="519" x2="625" y1="865.1358" y2="865.1358"/></g><!--class DiagramaTiempo--><g id="elem_DiagramaTiempo"><rect codeLine="71" fill="#F1F1F1" height="48" id="DiagramaTiempo" rx="2.5" ry="2.5" style="stroke:#181818;stroke-width:0.5;" width="82" x="781" y="817"/><ellipse cx="796" cy="833" fill="#ADD1B2" rx="11" ry="11" style="stroke:#181818;stroke-width:1.0;"/><path d="M798.9688,838.6406 Q798.3906,838.9375 797.75,839.0781 Q797.1094,839.2344 796.4063,839.2344 Q793.9063,839.2344 792.5781,837.5938 Q791.2656,835.9375 791.2656,832.8125 Q791.2656,829.6875 792.5781,828.0313 Q793.9063,826.375 796.4063,826.375 Q797.1094,826.375 797.75,826.5313 Q798.4063,826.6875 798.9688,826.9844 L798.9688,829.7031 Q798.3438,829.125 797.75,828.8594 Q797.1563,828.5781 796.5313,828.5781 Q795.1875,828.5781 794.5,829.6563 Q793.8125,830.7188 793.8125,832.8125 Q793.8125,834.9063 794.5,835.9844 Q795.1875,837.0469 796.5313,837.0469 Q797.1563,837.0469 797.75,836.7813 Q798.3438,836.5 798.9688,835.9219 L798.9688,838.6406 Z " fill="#000000"/><text fill="#000000" font-family="sans-serif" font-size="14" lengthAdjust="spacing" textLength="50" x="810" y="838.432">Tiempo</text><line style="stroke:#181818;stroke-width:0.5;" x1="782" x2="862" y1="849" y2="849"/><line style="stroke:#181818;stroke-width:0.5;" x1="782" x2="862" y1="857" y2="857"/></g><!--class DiagramaEstados--><g id="elem_DiagramaEstados"><rect codeLine="47" fill="#F1F1F1" height="86.1358" id="DiagramaEstados" rx="2.5" ry="2.5" style="stroke:#181818;stroke-width:0.5;" width="114" x="840" y="271"/><ellipse cx="867.6" cy="287" fill="#ADD1B2" rx="11" ry="11" style="stroke:#181818;stroke-width:1.0;"/><path d="M870.5688,292.6406 Q869.9906,292.9375 869.35,293.0781 Q868.7094,293.2344 868.0063,293.2344 Q865.5063,293.2344 864.1781,291.5938 Q862.8656,289.9375 862.8656,286.8125 Q862.8656,283.6875 864.1781,282.0313 Q865.5063,280.375 868.0063,280.375 Q868.7094,280.375 869.35,280.5313 Q870.0063,280.6875 870.5688,280.9844 L870.5688,283.7031 Q869.9438,283.125 869.35,282.8594 Q868.7563,282.5781 868.1313,282.5781 Q866.7875,282.5781 866.1,283.6563 Q865.4125,284.7188 865.4125,286.8125 Q865.4125,288.9063 866.1,289.9844 Q866.7875,291.0469 868.1313,291.0469 Q868.7563,291.0469 869.35,290.7813 Q869.9438,290.5 870.5688,289.9219 L870.5688,292.6406 Z " fill="#000000"/><text fill="#000000" font-family="sans-serif" font-size="14" font-weight="bold" lengthAdjust="spacing" textLength="54" x="884.4" y="292.432">Estados</text><line style="stroke:#181818;stroke-width:0.5;" x1="841" x2="953" y1="303" y2="303"/><text fill="#000000" font-family="sans-serif" font-size="14" lengthAdjust="spacing" textLength="102" x="846" y="321.9659">// secuencia de</text><text fill="#000000" font-family="sans-serif" font-size="14" lengthAdjust="spacing" textLength="87" x="846" y="341.0339">// de estados</text><line style="stroke:#181818;stroke-width:0.5;" x1="841" x2="953" y1="349.1358" y2="349.1358"/></g><!--class DiagramaActividad--><g id="elem_DiagramaActividad"><rect codeLine="51" fill="#F1F1F1" height="86.1358" id="DiagramaActividad" rx="2.5" ry="2.5" style="stroke:#181818;stroke-width:0.5;" width="114" x="691" y="271"/><ellipse cx="713.65" cy="287" fill="#ADD1B2" rx="11" ry="11" style="stroke:#181818;stroke-width:1.0;"/><path d="M716.6188,292.6406 Q716.0406,292.9375 715.4,293.0781 Q714.7594,293.2344 714.0563,293.2344 Q711.5563,293.2344 710.2281,291.5938 Q708.9156,289.9375 708.9156,286.8125 Q708.9156,283.6875 710.2281,282.0313 Q711.5563,280.375 714.0563,280.375 Q714.7594,280.375 715.4,280.5313 Q716.0563,280.6875 716.6188,280.9844 L716.6188,283.7031 Q715.9938,283.125 715.4,282.8594 Q714.8063,282.5781 714.1813,282.5781 Q712.8375,282.5781 712.15,283.6563 Q711.4625,284.7188 711.4625,286.8125 Q711.4625,288.9063 712.15,289.9844 Q712.8375,291.0469 714.1813,291.0469 Q714.8063,291.0469 715.4,290.7813 Q715.9938,290.5 716.6188,289.9219 L716.6188,292.6406 Z " fill="#000000"/><text fill="#000000" font-family="sans-serif" font-size="14" font-weight="bold" lengthAdjust="spacing" textLength="65" x="729.35" y="292.432">Actividad</text><line style="stroke:#181818;stroke-width:0.5;" x1="692" x2="804" y1="303" y2="303"/><text fill="#000000" font-family="sans-serif" font-size="14" lengthAdjust="spacing" textLength="102" x="697" y="321.9659">// secuencia de</text><text fill="#000000" font-family="sans-serif" font-size="14" lengthAdjust="spacing" textLength="90" x="697" y="341.0339">// actividades</text><line style="stroke:#181818;stroke-width:0.5;" x1="692" x2="804" y1="349.1358" y2="349.1358"/></g><!--class DiagramaComunicacion--><g id="elem_DiagramaComunicacion"><rect codeLine="61" fill="#F1F1F1" height="86.1358" id="DiagramaComunicacion" rx="2.5" ry="2.5" style="stroke:#181818;stroke-width:0.5;" width="133" x="765.5" y="663"/><ellipse cx="781.85" cy="679" fill="#ADD1B2" rx="11" ry="11" style="stroke:#181818;stroke-width:1.0;"/><path d="M784.8188,684.6406 Q784.2406,684.9375 783.6,685.0781 Q782.9594,685.2344 782.2563,685.2344 Q779.7563,685.2344 778.4281,683.5938 Q777.1156,681.9375 777.1156,678.8125 Q777.1156,675.6875 778.4281,674.0313 Q779.7563,672.375 782.2563,672.375 Q782.9594,672.375 783.6,672.5313 Q784.2563,672.6875 784.8188,672.9844 L784.8188,675.7031 Q784.1938,675.125 783.6,674.8594 Q783.0063,674.5781 782.3813,674.5781 Q781.0375,674.5781 780.35,675.6563 Q779.6625,676.7188 779.6625,678.8125 Q779.6625,680.9063 780.35,681.9844 Q781.0375,683.0469 782.3813,683.0469 Q783.0063,683.0469 783.6,682.7813 Q784.1938,682.5 784.8188,681.9219 L784.8188,684.6406 Z " fill="#000000"/><text fill="#000000" font-family="sans-serif" font-size="14" font-weight="bold" lengthAdjust="spacing" textLength="98" x="796.15" y="684.432">Comunicaci&#243;n</text><line style="stroke:#181818;stroke-width:0.5;" x1="766.5" x2="897.5" y1="695" y2="695"/><text fill="#000000" font-family="sans-serif" font-size="14" lengthAdjust="spacing" textLength="121" x="771.5" y="713.9659">// colaboraci&#243;n de</text><text fill="#000000" font-family="sans-serif" font-size="14" lengthAdjust="spacing" textLength="78" x="771.5" y="733.0339">// mensajes</text><line style="stroke:#181818;stroke-width:0.5;" x1="766.5" x2="897.5" y1="741.1358" y2="741.1358"/></g><!--class DiagramaSecuencia--><g id="elem_DiagramaSecuencia"><rect codeLine="65" fill="#F1F1F1" height="86.1358" id="DiagramaSecuencia" rx="2.5" ry="2.5" style="stroke:#181818;stroke-width:0.5;" width="118" x="612" y="663"/><ellipse cx="635.1" cy="679" fill="#ADD1B2" rx="11" ry="11" style="stroke:#181818;stroke-width:1.0;"/><path d="M638.0688,684.6406 Q637.4906,684.9375 636.85,685.0781 Q636.2094,685.2344 635.5063,685.2344 Q633.0063,685.2344 631.6781,683.5938 Q630.3656,681.9375 630.3656,678.8125 Q630.3656,675.6875 631.6781,674.0313 Q633.0063,672.375 635.5063,672.375 Q636.2094,672.375 636.85,672.5313 Q637.5063,672.6875 638.0688,672.9844 L638.0688,675.7031 Q637.4438,675.125 636.85,674.8594 Q636.2563,674.5781 635.6313,674.5781 Q634.2875,674.5781 633.6,675.6563 Q632.9125,676.7188 632.9125,678.8125 Q632.9125,680.9063 633.6,681.9844 Q634.2875,683.0469 635.6313,683.0469 Q636.2563,683.0469 636.85,682.7813 Q637.4438,682.5 638.0688,681.9219 L638.0688,684.6406 Z " fill="#000000"/><text fill="#000000" font-family="sans-serif" font-size="14" font-weight="bold" lengthAdjust="spacing" textLength="68" x="650.9" y="684.432">Secuencia</text><line style="stroke:#181818;stroke-width:0.5;" x1="613" x2="729" y1="695" y2="695"/><text fill="#000000" font-family="sans-serif" font-size="14" lengthAdjust="spacing" textLength="81" x="618" y="713.9659">// secuencia</text><text fill="#000000" font-family="sans-serif" font-size="14" lengthAdjust="spacing" textLength="106" x="618" y="733.0339">// con mensajes</text><line style="stroke:#181818;stroke-width:0.5;" x1="613" x2="729" y1="741.1358" y2="741.1358"/></g><!--class Diagrama--><g id="elem_Diagrama"><rect codeLine="4" fill="#F1F1F1" height="48" id="Diagrama" rx="2.5" ry="2.5" style="stroke:#181818;stroke-width:0.5;" width="95" x="514.5" y="7"/><ellipse cx="529.5" cy="23" fill="#A9DCDF" rx="11" ry="11" style="stroke:#181818;stroke-width:1.0;"/><path d="M529.6094,18.3438 L528.4531,23.4219 L530.7813,23.4219 L529.6094,18.3438 Z M528.125,16.1094 L531.1094,16.1094 L534.4688,28.5 L532.0156,28.5 L531.25,25.4375 L527.9688,25.4375 L527.2188,28.5 L524.7813,28.5 L528.125,16.1094 Z " fill="#000000"/><text fill="#000000" font-family="sans-serif" font-size="14" font-style="italic" lengthAdjust="spacing" textLength="63" x="543.5" y="28.432">Diagrama</text><line style="stroke:#181818;stroke-width:0.5;" x1="515.5" x2="608.5" y1="39" y2="39"/><line style="stroke:#181818;stroke-width:0.5;" x1="515.5" x2="608.5" y1="47" y2="47"/></g><!--reverse link Diagrama to DiagramaEstructural--><g id="link_Diagrama_DiagramaEstructural"><path codeLine="73" d="M498.0361,61.2164 C480.4061,69.2664 481,69 481,69 C481,69 453.29,92.22 426.35,114.8 " fill="none" id="Diagrama-backto-DiagramaEstructural" style="stroke:#181818;stroke-width:1.0;"/><polygon fill="none" points="514.41,53.74,495.544,55.7585,500.5283,66.6744,514.41,53.74" style="stroke:#181818;stroke-width:1.0;"/></g><!--reverse link Diagrama to DiagramaComportamiento--><g id="link_Diagrama_DiagramaComportamiento"><path codeLine="74" d="M611.4908,65.2585 C636.3908,81.9885 655.75,95 685.41,114.94 " fill="none" id="Diagrama-backto-DiagramaComportamiento" style="stroke:#181818;stroke-width:1.0;"/><polygon fill="none" points="596.55,55.22,608.1446,70.2388,614.837,60.2783,596.55,55.22" style="stroke:#181818;stroke-width:1.0;"/></g><!--reverse link DiagramaEstructural to DiagramaClases--><g id="link_DiagramaEstructural_DiagramaClases"><path codeLine="75" d="M293.5607,185.942 C251.9807,199.532 223,209 223,209 C223,209 192.34,249.88 169.47,280.38 " fill="none" id="DiagramaEstructural-backto-DiagramaClases" style="stroke:#181818;stroke-width:1.0;"/><polygon fill="none" points="310.67,180.35,291.6967,180.2389,295.4247,191.6451,310.67,180.35" style="stroke:#181818;stroke-width:1.0;"/></g><!--reverse link DiagramaEstructural to DiagramaObjetos--><g id="link_DiagramaEstructural_DiagramaObjetos"><path codeLine="76" d="M346.1984,217.0978 C335.0584,238.8278 329.7,249.25 318.56,270.97 " fill="none" id="DiagramaEstructural-backto-DiagramaObjetos" style="stroke:#181818;stroke-width:1.0;"/><polygon fill="none" points="354.41,201.08,340.8591,214.3606,351.5377,219.835,354.41,201.08" style="stroke:#181818;stroke-width:1.0;"/></g><!--reverse link DiagramaClases to DiagramaComponentes--><g id="link_DiagramaClases_DiagramaComponentes"><path codeLine="77" d="M145.2634,365.9098 C145.4334,398.6598 145.6,431.07 145.78,466.76 " fill="none" id="DiagramaClases-backto-DiagramaComponentes" style="stroke:#181818;stroke-width:1.0;"/><polygon fill="none" points="145.17,347.91,139.2635,365.9409,151.2634,365.8786,145.17,347.91" style="stroke:#181818;stroke-width:1.0;"/></g><!--reverse link DiagramaClases to DiagramaDespliegue--><g id="link_DiagramaClases_DiagramaDespliegue"><path codeLine="78" d="M187.4033,360.9818 C211.1333,386.7118 228,405 228,405 C228,405 250.94,438.14 270.92,467 " fill="none" id="DiagramaClases-backto-DiagramaDespliegue" style="stroke:#181818;stroke-width:1.0;"/><polygon fill="none" points="175.2,347.75,182.9927,365.0495,191.8139,356.914,175.2,347.75" style="stroke:#181818;stroke-width:1.0;"/></g><!--reverse link DiagramaEstructural to DiagramaPaquetes--><g id="link_DiagramaEstructural_DiagramaPaquetes"><path codeLine="79" d="M375.1705,219.0083 C373.6605,327.9283 370,593 370,593 C370,593 363.86,631.2 358.75,662.98 " fill="none" id="DiagramaEstructural-backto-DiagramaPaquetes" style="stroke:#181818;stroke-width:1.0;"/><polygon fill="none" points="375.42,201.01,369.1711,218.9251,381.1699,219.0914,375.42,201.01" style="stroke:#181818;stroke-width:1.0;"/></g><!--reverse link DiagramaEstructural to DiagramaEstructuraCompuesta--><g id="link_DiagramaEstructural_DiagramaEstructuraCompuesta"><path codeLine="80" d="M384.3811,219.0196 C384.3811,219.0196 421,601 421,601 C421,601 421,789 421,789 C421,789 411.57,798.25 400.75,808.86 " fill="none" id="DiagramaEstructural-backto-DiagramaEstructuraCompuesta" style="stroke:#181818;stroke-width:1.0;"/><polygon fill="none" points="381.91,201.19,378.4379,219.8433,390.3242,218.1959,381.91,201.19" style="stroke:#181818;stroke-width:1.0;"/></g><!--link DiagramaClases to DiagramaObjetos--><!--link DiagramaComponentes to DiagramaDespliegue--><!--link A to B--><!--link B to DiagramaPaquetes--><!--link C to DiagramaCasosUso--><!--link DiagramaActividad to DiagramaEstados--><!--link DiagramaPaquetes to DiagramaEstructuraCompuesta--><!--reverse link DiagramaComportamiento to DiagramaCasosUso--><g id="link_DiagramaComportamiento_DiagramaCasosUso"><path codeLine="89" d="M662.0468,198.7948 C641.1468,208.4748 640,209 640,209 C640,209 614.19,242.14 591.71,271 " fill="none" id="DiagramaComportamiento-backto-DiagramaCasosUso" style="stroke:#181818;stroke-width:1.0;"/><polygon fill="none" points="678.38,191.23,659.5252,193.3504,664.5684,204.2392,678.38,191.23" style="stroke:#181818;stroke-width:1.0;"/></g><!--reverse link DiagramaComportamiento to DiagramaInteraccion--><g id="link_DiagramaComportamiento_DiagramaInteraccion"><path codeLine="90" d="M835.1898,178.6364 C900.2998,193.3064 970,209 970,209 C970,209 970,397 970,397 C970,397 846.97,446.39 764.3,479.57 " fill="none" id="DiagramaComportamiento-backto-DiagramaInteraccion" style="stroke:#181818;stroke-width:1.0;"/><polygon fill="none" points="817.63,174.68,833.871,184.4897,836.5086,172.7831,817.63,174.68" style="stroke:#181818;stroke-width:1.0;"/></g><!--reverse link DiagramaComportamiento to DiagramaActividad--><g id="link_DiagramaComportamiento_DiagramaActividad"><path codeLine="91" d="M748,219.08 C748,240.81 748,249.25 748,270.97 " fill="none" id="DiagramaComportamiento-backto-DiagramaActividad" style="stroke:#181818;stroke-width:1.0;"/><polygon fill="none" points="748,201.08,742,219.08,754,219.08,748,201.08" style="stroke:#181818;stroke-width:1.0;"/></g><!--reverse link DiagramaComportamiento to DiagramaEstados--><g id="link_DiagramaComportamiento_DiagramaEstados"><path codeLine="92" d="M826.2536,211.1795 C826.2536,211.1795 846.58,242.14 867.11,271 " fill="none" id="DiagramaComportamiento-backto-DiagramaEstados" style="stroke:#181818;stroke-width:1.0;"/><polygon fill="none" points="811.28,201.19,822.9238,216.1707,829.5835,206.1883,811.28,201.19" style="stroke:#181818;stroke-width:1.0;"/></g><!--link C to DiagramaInteraccion--><!--reverse link DiagramaInteraccion to DiagramaComunicacion--><g id="link_DiagramaInteraccion_DiagramaComunicacion"><path codeLine="94" d="M732.1755,567.6584 C755.8355,600.1984 777.83,630.47 801.46,662.99 " fill="none" id="DiagramaInteraccion-backto-DiagramaComunicacion" style="stroke:#181818;stroke-width:1.0;"/><polygon fill="none" points="721.59,553.1,727.3227,571.1869,737.0283,564.1299,721.59,553.1" style="stroke:#181818;stroke-width:1.0;"/></g><!--reverse link DiagramaInteraccion to DiagramaSecuencia--><g id="link_DiagramaInteraccion_DiagramaSecuencia"><path codeLine="95" d="M684.8166,571.0054 C681.4666,603.5454 678.68,630.47 675.33,662.99 " fill="none" id="DiagramaInteraccion-backto-DiagramaSecuencia" style="stroke:#181818;stroke-width:1.0;"/><polygon fill="none" points="686.66,553.1,678.8482,570.3909,690.7851,571.6198,686.66,553.1" style="stroke:#181818;stroke-width:1.0;"/></g><!--reverse link DiagramaInteraccion to DiagramaInteraccionGeneral--><g id="link_DiagramaInteraccion_DiagramaInteraccionGeneral"><path codeLine="96" d="M615.389,563.3435 C581.549,586.7635 561,601 561,601 C561,601 561,789 561,789 C561,789 562.99,798.25 565.28,808.86 " fill="none" id="DiagramaInteraccion-backto-DiagramaInteraccionGeneral" style="stroke:#181818;stroke-width:1.0;"/><polygon fill="none" points="630.19,553.1,611.9745,558.4098,618.8035,568.2772,630.19,553.1" style="stroke:#181818;stroke-width:1.0;"/></g><!--reverse link DiagramaInteraccion to DiagramaTiempo--><g id="link_DiagramaInteraccion_DiagramaTiempo"><path codeLine="97" d="M780.7415,547.0528 C846.1015,573.3228 915,601 915,601 C915,601 915,789 915,789 C915,789 887.98,803.82 863.06,817.48 " fill="none" id="DiagramaInteraccion-backto-DiagramaTiempo" style="stroke:#181818;stroke-width:1.0;"/><polygon fill="none" points="764.04,540.34,778.5039,552.6199,782.979,541.4856,764.04,540.34" style="stroke:#181818;stroke-width:1.0;"/></g><!--link D to DiagramaTiempo--><!--link D to DiagramaInteraccionGeneral--><!--SRC=[ZLHBRjim4Dth58HNwSBm1Om0_WH5LotGTjLqCQR63XE9L4KggP7wL3r2BzOXHL6KA7_iXJt3cJV_fr-4hA26aXL2eZbMo2fL7AsGPR3JfWPks5R0WMmWoohWBt10XlJISDFKKA1ceDbigBdRAwFqXzdx1Cf3R-ay8td6thF5Wd6bwS60F8WTeLaLCY5xnIaaCgClsQuOUV82j0vXDYJvt9Qx-rPQBdRtFaQEcjUYua991pXq_hnxHYgWy_PYvCwLv3LwxrQsJO5S4LQItdeYFLLMv2nDb6ElYY9fjJTlKADFkYhm0DI49EMjVHDuQB33wpKHd5IK8lq-GPqxs5E2z0L-DHZbrSaH2XasLAFuzrVwwWt-DWqK2LW_NLjUOtiqclgZ32-pg7NSTgCsK0hgY1_5M7VtAdAqUqPPXJsRw7DmSIX3bQ-8VANUgxhigq8QQS6CG39Fwjg0LlgxLc5uLgO1CTB5qnFQ85sEQrAfM2D53dcw8PjaGHxSDeKXU366HjwWv08eQhiSVWFJTLvn8rvju0ujA2xWGMVZxkDqhi6VQFIajgVWq8DCNUoFXIbtGWnBeLLjbKT6zuEL8IdfndRgNAXr74AOzbwyZa8DRhE0dQfRlI-cHAdXUUBIluQgFMfGJBMcgoQ26mD6_VY84ZkMYzlosBtCHhxVtAuv-_QlFOZkaIt_p7Fr9kTJJ7h1QhZksHGDfpwEBc-pzUIOZOXtEe-MtgxQzjHrMmuTHLsqfiybMXedDV_n9F8SvS_pbKOSdbf7DQpwPvV9EbkFD4aXMK8qmQ70lPblilIuqnmyQsG9jG-ZtzQM8PEcy_M9tkmGNShDFg7Ocpsw5cpET7mgYvZJ270-IKFNhGELN3TDMUEwJqiHsVPCOLUUquZ_0G00]--></g></svg>